<svg width="35" height="36" viewBox="0 0 35 36" fill="none" xmlns="http://www.w3.org/2000/svg">
<rect x="0.5" y="0.900391" width="34" height="34" rx="4.5" fill="white"/>
<rect x="0.5" y="0.900391" width="34" height="34" rx="4.5" stroke="#E1DFDF"/>
<g clip-path="url(#clip0_12329_17369)">
<path d="M13 16.4837H16.1875L15.8333 17.9004H13V24.2754H11.5833V17.9004H8.75V16.4837H11.5833V15.1521C11.5833 14.5571 11.6117 14.0943 11.6683 13.7637C11.725 13.4898 11.8194 13.2254 11.9517 12.9704C12.2067 12.5076 12.5656 12.1534 13.0283 11.9079C13.2739 11.7662 13.5383 11.6718 13.8217 11.6246C14.1522 11.5584 14.615 11.5254 15.21 11.5254C15.5783 11.5254 15.8994 11.5584 16.1733 11.6246V12.9421H15.21C14.7567 12.9421 14.4285 12.9562 14.2254 12.9846C14.0224 13.0129 13.8453 13.0696 13.6942 13.1546C13.4769 13.2679 13.3117 13.4284 13.1983 13.6362C13.1228 13.7873 13.0708 13.9644 13.0425 14.1675C13.0142 14.3705 12.9953 14.6987 12.9858 15.1521V16.4837H13Z" fill="black"/>
</g>
<defs>
<clipPath id="clip0_12329_17369">
<rect width="17.48" height="17" fill="white" transform="matrix(1 0 0 -1 8.75 26.4004)"/>
</clipPath>
</defs>
</svg>
