<svg width="35" height="36" viewBox="0 0 35 36" fill="none" xmlns="http://www.w3.org/2000/svg">
<rect x="0.5" y="0.900391" width="34" height="34" rx="4.5" fill="white"/>
<rect x="0.5" y="0.900391" width="34" height="34" rx="4.5" stroke="#E1DFDF"/>
<g clip-path="url(#clip0_12329_17375)">
<path d="M21.4858 17.6031C21.4575 17.0269 21.3489 16.4792 21.16 15.9597C20.9711 15.4403 20.7114 14.9586 20.3808 14.5147C20.1919 14.7131 19.9747 14.9208 19.7292 15.1381C19.0492 15.7047 18.2653 16.1769 17.3775 16.5547C17.5003 16.8097 17.6089 17.0458 17.7033 17.2631L17.7742 17.4614C18.7847 17.3481 19.885 17.3717 21.075 17.5322L21.4858 17.6031ZM14.8417 12.3189C14.9739 12.4983 15.1108 12.6967 15.2525 12.9139C15.7153 13.5844 16.1356 14.255 16.5133 14.9256L16.7542 15.3506C17.5853 15.02 18.3031 14.5997 18.9075 14.0897C19.1247 13.9103 19.3136 13.7308 19.4742 13.5514C18.9736 13.1358 18.4164 12.8147 17.8025 12.5881C17.1697 12.3519 16.5133 12.2339 15.8333 12.2339C15.5028 12.2339 15.1722 12.2622 14.8417 12.3189ZM10.3508 16.4839C10.7947 16.4744 11.2764 16.4461 11.7958 16.3989C12.9953 16.2856 14.1428 16.0919 15.2383 15.8181C14.8417 15.1192 14.4025 14.4108 13.9208 13.6931C13.7131 13.3814 13.5147 13.0886 13.3258 12.8147C12.5892 13.1831 11.9588 13.686 11.4346 14.3235C10.9104 14.961 10.5492 15.6811 10.3508 16.4839ZM11.4275 21.4706C11.7392 21.0172 12.1122 20.5686 12.5467 20.1247C13.6422 19.0008 14.8606 18.2217 16.2017 17.7872L16.2442 17.7731C16.1214 17.5181 16.0081 17.2867 15.9042 17.0789C14.6575 17.4378 13.3117 17.6833 11.8667 17.8156C11.2528 17.8722 10.6861 17.9006 10.1667 17.9006C10.1667 18.5711 10.28 19.2133 10.5067 19.8272C10.7239 20.4222 11.0308 20.97 11.4275 21.4706ZM17.9583 23.1564C17.8828 22.7408 17.7836 22.3064 17.6608 21.8531C17.4247 20.9086 17.1414 19.9925 16.8108 19.1047C15.4508 19.5958 14.3081 20.3183 13.3825 21.2722C12.9953 21.6689 12.6836 22.0608 12.4475 22.4481C12.9292 22.8069 13.4581 23.0832 14.0342 23.2768C14.6103 23.4704 15.21 23.5672 15.8333 23.5672C16.57 23.5672 17.2783 23.4303 17.9583 23.1564ZM19.29 22.3914C19.8378 21.9664 20.2958 21.4587 20.6642 20.8685C21.0325 20.2782 21.2781 19.6383 21.4008 18.9489C21.1269 18.8733 20.8342 18.8167 20.5225 18.7789C19.7386 18.6656 18.9878 18.6561 18.27 18.7506C18.5817 19.6194 18.8461 20.5025 19.0633 21.3997C19.1483 21.7492 19.2239 22.0797 19.29 22.3914ZM15.8333 24.9839C14.87 24.9839 13.9492 24.7997 13.0708 24.4314C12.2303 24.0725 11.4818 23.5649 10.8254 22.9085C10.169 22.2521 9.66139 21.5036 9.3025 20.6631C8.93417 19.7847 8.75 18.8639 8.75 17.9006C8.75 16.9372 8.93417 16.0164 9.3025 15.1381C9.66139 14.2975 10.169 13.549 10.8254 12.8926C11.4818 12.2362 12.2303 11.7286 13.0708 11.3697C13.9492 11.0014 14.87 10.8172 15.8333 10.8172C16.7967 10.8172 17.7175 11.0014 18.5958 11.3697C19.4364 11.7286 20.1849 12.2362 20.8413 12.8926C21.4976 13.549 22.0053 14.2975 22.3642 15.1381C22.7325 16.0164 22.9167 16.9372 22.9167 17.9006C22.9167 18.8639 22.7325 19.7847 22.3642 20.6631C22.0053 21.5036 21.4976 22.2521 20.8413 22.9085C20.1849 23.5649 19.4364 24.0725 18.5958 24.4314C17.7175 24.7997 16.7967 24.9839 15.8333 24.9839Z" fill="black"/>
</g>
<defs>
<clipPath id="clip0_12329_17375">
<rect width="17.48" height="17" fill="white" transform="matrix(1 0 0 -1 8.75 26.4004)"/>
</clipPath>
</defs>
</svg>
