<svg width="35" height="36" viewBox="0 0 35 36" fill="none" xmlns="http://www.w3.org/2000/svg">
<rect x="0.5" y="0.900391" width="34" height="34" rx="4.5" fill="white"/>
<rect x="0.5" y="0.900391" width="34" height="34" rx="4.5" stroke="#E1DFDF"/>
<g clip-path="url(#clip0_12329_17378)">
<path d="M15.8333 15.7756C15.4461 15.7756 15.0896 15.87 14.7638 16.0589C14.4379 16.2478 14.1806 16.5051 13.9917 16.831C13.8028 17.1568 13.7083 17.5133 13.7083 17.9006C13.7083 18.2878 13.8028 18.6443 13.9917 18.9701C14.1806 19.296 14.4379 19.5533 14.7638 19.7422C15.0896 19.9311 15.4461 20.0256 15.8333 20.0256C16.2206 20.0256 16.5771 19.9311 16.9029 19.7422C17.2288 19.5533 17.4861 19.296 17.675 18.9701C17.8639 18.6443 17.9583 18.2878 17.9583 17.9006C17.9583 17.5133 17.8639 17.1568 17.675 16.831C17.4861 16.5051 17.2288 16.2478 16.9029 16.0589C16.5771 15.87 16.2206 15.7756 15.8333 15.7756ZM15.8333 14.3589C16.4756 14.3589 17.0682 14.5171 17.6112 14.8335C18.1543 15.1499 18.584 15.5796 18.9004 16.1226C19.2168 16.6657 19.375 17.2583 19.375 17.9006C19.375 18.5428 19.2168 19.1354 18.9004 19.6785C18.584 20.2215 18.1543 20.6512 17.6112 20.9676C17.0682 21.284 16.4756 21.4422 15.8333 21.4422C15.1911 21.4422 14.5985 21.284 14.0554 20.9676C13.5124 20.6512 13.0826 20.2215 12.7663 19.6785C12.4499 19.1354 12.2917 18.5428 12.2917 17.9006C12.2917 17.2583 12.4499 16.6657 12.7663 16.1226C13.0826 15.5796 13.5124 15.1499 14.0554 14.8335C14.5985 14.5171 15.1911 14.3589 15.8333 14.3589ZM20.4375 14.1747C20.4375 14.4203 20.3501 14.6304 20.1754 14.8051C20.0007 14.9799 19.7929 15.0672 19.5521 15.0672C19.3113 15.0672 19.1035 14.9799 18.9288 14.8051C18.754 14.6304 18.6667 14.4226 18.6667 14.1818C18.6667 13.941 18.754 13.7332 18.9288 13.5585C19.1035 13.3837 19.3113 13.2964 19.5521 13.2964C19.7929 13.2964 20.0007 13.3837 20.1754 13.5585C20.3501 13.7332 20.4375 13.9386 20.4375 14.1747ZM15.8333 12.2339C14.9644 12.2339 14.3742 12.2362 14.0625 12.241C13.7508 12.2457 13.3919 12.2575 12.9858 12.2764C12.4758 12.2953 12.0508 12.3708 11.7108 12.5031C11.4181 12.6164 11.1607 12.784 10.9388 13.006C10.7168 13.2279 10.5492 13.4853 10.4358 13.7781C10.3036 14.1181 10.2281 14.5431 10.2092 15.0531C10.1903 15.4403 10.1785 15.7874 10.1738 16.0943C10.169 16.4012 10.1667 17.0033 10.1667 17.9006C10.1667 18.7694 10.169 19.3597 10.1738 19.6714C10.1785 19.9831 10.1903 20.3419 10.2092 20.7481C10.2281 21.2581 10.3036 21.6831 10.4358 22.0231C10.5492 22.3158 10.7168 22.5732 10.9388 22.7951C11.1607 23.0171 11.4181 23.18 11.7108 23.2839C12.0508 23.4256 12.4758 23.5058 12.9858 23.5247C13.3731 23.5436 13.7201 23.5554 14.0271 23.5601C14.334 23.5649 14.9361 23.5672 15.8333 23.5672C16.7022 23.5672 17.2925 23.5649 17.6042 23.5601C17.9158 23.5554 18.2747 23.5436 18.6808 23.5247C19.1908 23.5058 19.6158 23.4303 19.9558 23.2981C20.2486 23.1847 20.506 23.0171 20.7279 22.7951C20.9499 22.5732 21.1128 22.3158 21.2167 22.0231C21.3583 21.6831 21.4386 21.2581 21.4575 20.7481C21.4764 20.3608 21.4882 20.0137 21.4929 19.7068C21.4976 19.3999 21.5 18.7978 21.5 17.9006C21.5 17.0317 21.4976 16.4414 21.4929 16.1297C21.4882 15.8181 21.4764 15.4592 21.4575 15.0531C21.4386 14.5431 21.3631 14.1181 21.2308 13.7781C21.1175 13.4853 20.9499 13.2279 20.7279 13.006C20.506 12.784 20.2486 12.6164 19.9558 12.5031C19.6158 12.3708 19.1908 12.2953 18.6808 12.2764C18.2936 12.2575 17.9465 12.2457 17.6396 12.241C17.3326 12.2362 16.7306 12.2339 15.8333 12.2339ZM15.8333 10.8172C16.7589 10.8172 17.3917 10.8219 17.7317 10.8314C18.015 10.8314 18.355 10.8408 18.7517 10.8597C19.4128 10.8881 19.9842 10.9967 20.4658 11.1856C20.9475 11.3744 21.3678 11.6483 21.7267 12.0072C22.0856 12.3661 22.3594 12.7864 22.5483 13.2681C22.7372 13.7497 22.8458 14.3211 22.8742 14.9822C22.8931 15.3883 22.9025 15.7283 22.9025 16.0022C22.9119 16.3611 22.9167 16.9986 22.9167 17.9147C22.9167 18.8308 22.9119 19.4589 22.9025 19.7989C22.9025 20.0822 22.8931 20.4222 22.8742 20.8189C22.8458 21.48 22.7372 22.0514 22.5483 22.5331C22.3594 23.0147 22.0856 23.435 21.7267 23.7939C21.3678 24.1528 20.9475 24.4267 20.4658 24.6156C19.9842 24.8044 19.4128 24.9131 18.7517 24.9414C18.3456 24.9603 18.0056 24.9697 17.7317 24.9697C17.3728 24.9792 16.7353 24.9839 15.8192 24.9839C14.9031 24.9839 14.275 24.9792 13.935 24.9697C13.6517 24.9697 13.3117 24.9603 12.915 24.9414C12.2539 24.9131 11.6825 24.8044 11.2008 24.6156C10.7192 24.4267 10.2989 24.1528 9.94 23.7939C9.58111 23.435 9.30722 23.0147 9.11833 22.5331C8.92944 22.0514 8.82083 21.48 8.7925 20.8189C8.77361 20.4128 8.76417 20.0728 8.76417 19.7989C8.75472 19.44 8.75 18.8025 8.75 17.8864C8.75 16.9703 8.75472 16.3422 8.76417 16.0022C8.76417 15.7189 8.77361 15.3789 8.7925 14.9822C8.82083 14.3211 8.92944 13.7497 9.11833 13.2681C9.30722 12.7864 9.58111 12.3661 9.94 12.0072C10.2989 11.6483 10.7192 11.3744 11.2008 11.1856C11.6825 10.9967 12.2539 10.8881 12.915 10.8597C13.3211 10.8408 13.6611 10.8314 13.935 10.8314C14.2939 10.8219 14.9267 10.8172 15.8333 10.8172Z" fill="black"/>
</g>
<defs>
<clipPath id="clip0_12329_17378">
<rect width="17.48" height="17" fill="white" transform="matrix(1 0 0 -1 8.75 26.4004)"/>
</clipPath>
</defs>
</svg>
