<svg width="321" height="108" viewBox="0 0 321 108" fill="none" xmlns="http://www.w3.org/2000/svg">
<rect y="0.47998" width="321" height="107" rx="10" fill="#F4F6FA"/>
<g clip-path="url(#clip0_8336_1025)">
<g clip-path="url(#clip1_8336_1025)">
<g clip-path="url(#clip2_8336_1025)">
<mask id="mask0_8336_1025" style="mask-type:luminance" maskUnits="userSpaceOnUse" x="20" y="20" width="60" height="60">
<path d="M79.7914 20.48H20.4863V79.785H79.7914V20.48Z" fill="white"/>
</mask>
<g mask="url(#mask0_8336_1025)">
<path d="M64.0158 76.4259C63.4152 76.4259 62.9214 76.8829 62.8631 77.4681H54.1466L52.7715 69.1875L54.2999 67.6592C54.5171 67.442 54.6392 67.1473 54.6392 66.8402C54.6392 66.533 54.5171 66.2384 54.2999 66.0211L52.9475 64.6687H55.2585C57.7947 64.6687 60.1547 65.9275 61.5712 68.036C61.928 68.567 62.6477 68.7082 63.1786 68.3516C63.7096 67.9948 63.8508 67.2752 63.4941 66.7441C61.661 64.0156 58.6159 62.3789 55.3364 62.3532C56.4585 61.1106 57.1429 59.4656 57.1429 57.6635V55.9646C57.1429 52.1019 54.0004 48.9595 50.1377 48.9595C46.275 48.9595 43.1326 52.1019 43.1326 55.9646V57.6635C43.1326 59.4661 43.8172 61.1113 44.9396 62.354C39.5079 62.396 35.1016 66.8261 35.1016 72.2676V78.6264C35.1016 79.2661 35.6201 79.7847 36.2599 79.7847H64.0156C64.6553 79.7847 65.1739 79.2661 65.1739 78.6264V77.5842C65.1741 76.9446 64.6555 76.4259 64.0158 76.4259ZM50.1513 68.5317L48.4596 66.8402L50.1513 65.1486L51.843 66.8402L50.1513 68.5317ZM49.5517 71.1596C49.7356 71.271 49.9432 71.3281 50.1512 71.3281C50.3592 71.3281 50.5669 71.2711 50.7506 71.1596L51.7983 77.4681H48.504L49.5517 71.1596ZM45.4494 55.9646C45.4494 53.3794 47.5526 51.2761 50.138 51.2761C52.7233 51.2761 54.8266 53.3792 54.8266 55.9646V57.6635C54.8266 60.2487 52.7233 62.3521 50.138 62.3521C47.5526 62.3521 45.4494 60.2488 45.4494 57.6635V55.9646ZM37.4184 72.2676C37.4184 68.0774 40.8273 64.6687 45.0173 64.6687H47.3548L46.0024 66.0211C45.7852 66.2384 45.6631 66.533 45.6631 66.8402C45.6631 67.1473 45.7852 67.442 46.0024 67.6592L47.5308 69.1875L46.1557 77.4681H37.4183L37.4184 72.2676Z" fill="#3BB77E"/>
<path d="M44 21.7656C44.3429 21.7656 52.1429 22.0513 56 22.1942V34.6228L44 34.1942V21.7656Z" fill="#FDC040"/>
<path d="M71.4277 22.1941L65.4277 33.3369H78.2849L72.2849 22.6227L71.4277 22.1941Z" fill="#FDC040"/>
<path d="M44 21.7656C44.3429 21.7656 52.1429 22.0513 56 22.1942V34.6228L44 34.1942V21.7656Z" stroke="black" stroke-width="0.857143" stroke-linecap="round" stroke-linejoin="round"/>
<path d="M71.4277 22.1941L65.4277 33.3369H78.2849L72.2849 22.6227L71.4277 22.1941Z" stroke="black" stroke-width="0.857143" stroke-linecap="round" stroke-linejoin="round"/>
<path d="M35.2993 27.8874C35.2993 23.8034 31.9766 20.481 27.8929 20.481C23.809 20.481 20.4863 23.8035 20.4863 27.8874C20.4863 31.9712 23.8089 35.2938 27.8927 35.2938C31.9766 35.2938 35.2993 31.9713 35.2993 27.8874ZM22.8029 27.8874C22.8029 25.0809 25.0862 22.7976 27.8927 22.7976C30.6993 22.7976 32.9825 25.0809 32.9825 27.8874C32.9825 30.6938 30.6993 32.9772 27.8927 32.9772C25.0862 32.9772 22.8029 30.694 22.8029 27.8874Z" fill="#3BB77E"/>
<path d="M43.8907 35.2929H56.3871C57.0267 35.2929 57.5453 34.7742 57.5453 34.1346V21.6383C57.5453 20.9987 57.0267 20.48 56.3871 20.48H43.8907C43.251 20.48 42.7324 20.9987 42.7324 21.6383V34.1346C42.7324 34.7742 43.251 35.2929 43.8907 35.2929ZM45.049 22.7966H55.2287V32.9763H45.049V22.7966Z" fill="#3BB77E"/>
<path d="M79.6359 33.0951L72.9523 21.5191C72.7455 21.1607 72.3631 20.9399 71.9493 20.9399C71.5354 20.9399 71.153 21.1607 70.9462 21.5191L64.2626 33.0951C64.0557 33.4536 64.0557 33.8951 64.2626 34.2535C64.4695 34.6118 64.8519 34.8326 65.2657 34.8326H78.6328C79.0466 34.8326 79.429 34.6118 79.6359 34.2535C79.8428 33.8951 79.8428 33.4536 79.6359 33.0951ZM67.2719 32.516L71.9491 24.4148L76.6264 32.516H67.2719Z" fill="#3BB77E"/>
<path d="M50.1394 46.6857C50.7792 46.6857 51.2977 46.1669 51.2977 45.5273V42.2223L51.3446 42.2878C51.5708 42.6039 51.9264 42.7722 52.2876 42.7722C52.5209 42.7722 52.7565 42.7019 52.9608 42.5557C53.481 42.1834 53.6009 41.4599 53.2286 40.9397L51.0815 37.9394C50.8639 37.6354 50.5132 37.4551 50.1395 37.4551C49.7658 37.4551 49.4151 37.6354 49.1976 37.9394L47.0504 40.9397C46.6781 41.4599 46.7981 42.1834 47.3183 42.5557C47.8385 42.9279 48.5619 42.8082 48.9343 42.2879L48.9811 42.2223V45.5273C48.9811 46.1671 49.4997 46.6857 50.1394 46.6857Z" fill="#3BB77E"/>
<path d="M40.6019 56.0667C40.6019 55.427 40.0833 54.9084 39.4436 54.9084H29.0574V42.2223L29.1044 42.2878C29.3306 42.6038 29.6862 42.7722 30.0474 42.7722C30.2806 42.7722 30.5162 42.7019 30.7206 42.5557C31.2408 42.1834 31.3606 41.4599 30.9883 40.9397L28.8412 37.9394C28.6236 37.6354 28.2729 37.4551 27.8993 37.4551C27.5256 37.4551 27.1749 37.6354 26.9573 37.9394L24.8102 40.9397C24.4379 41.4599 24.5578 42.1834 25.078 42.5557C25.5981 42.9279 26.3217 42.8082 26.6941 42.2879L26.7409 42.2223V56.0667C26.7409 56.7063 27.2594 57.225 27.8992 57.225H39.4436C40.0832 57.225 40.6019 56.7064 40.6019 56.0667Z" fill="#3BB77E"/>
<path d="M73.3205 37.9394C73.1029 37.6354 72.7522 37.4551 72.3786 37.4551C72.0049 37.4551 71.6542 37.6354 71.4366 37.9394L69.2895 40.9397C68.9172 41.4599 69.0371 42.1834 69.5573 42.5557C70.0775 42.9279 70.8011 42.8082 71.1733 42.2879L71.2202 42.2224V54.9085H60.8341C60.1944 54.9085 59.6758 55.4272 59.6758 56.0668C59.6758 56.7064 60.1944 57.2251 60.8341 57.2251H72.3786C73.0182 57.2251 73.5368 56.7064 73.5368 56.0668V42.2224L73.5838 42.2879C73.81 42.6039 74.1656 42.7723 74.5267 42.7723C74.76 42.7723 74.9956 42.702 75.1999 42.5558C75.7201 42.1835 75.84 41.4601 75.4678 40.9399L73.3205 37.9394Z" fill="#3BB77E"/>
<path d="M64.0158 73.5305C64.6554 73.5305 65.174 73.0119 65.174 72.3722C65.174 71.7325 64.6554 71.2139 64.0158 71.2139C63.376 71.2139 62.8574 71.7325 62.8574 72.3722C62.8574 73.0119 63.376 73.5305 64.0158 73.5305Z" fill="#3BB77E"/>
</g>
</g>
</g>
</g>
<path d="M115.768 33.0359C116.008 33.0359 116.23 33.1259 116.434 33.3059C116.638 33.4739 116.74 33.7079 116.74 34.0079C116.74 34.0919 116.722 34.1939 116.686 34.3139L112.996 45.1139C112.936 45.2939 112.828 45.4319 112.672 45.5279C112.516 45.6239 112.354 45.6779 112.186 45.6899C112.018 45.6899 111.85 45.6419 111.682 45.5459C111.514 45.4499 111.388 45.3059 111.304 45.1139L108.46 38.4539L108.622 38.5259L105.814 45.1139C105.718 45.3059 105.586 45.4499 105.418 45.5459C105.262 45.6419 105.094 45.6899 104.914 45.6899C104.758 45.6779 104.602 45.6239 104.446 45.5279C104.29 45.4319 104.182 45.2939 104.122 45.1139L100.432 34.3139C100.396 34.1939 100.378 34.0919 100.378 34.0079C100.378 33.7079 100.486 33.4739 100.702 33.3059C100.918 33.1259 101.14 33.0359 101.368 33.0359C101.56 33.0359 101.734 33.0899 101.89 33.1979C102.058 33.2939 102.172 33.4379 102.232 33.6299L105.346 42.9179H105.022L107.758 36.2219C107.842 36.0419 107.956 35.8979 108.1 35.7899C108.256 35.6819 108.43 35.6339 108.622 35.6459C108.814 35.6339 108.982 35.6819 109.126 35.7899C109.282 35.8979 109.396 36.0419 109.468 36.2219L112.06 42.7199L111.79 42.8639L114.886 33.6299C114.946 33.4379 115.06 33.2939 115.228 33.1979C115.396 33.0899 115.576 33.0359 115.768 33.0359ZM120.073 44.7719C120.073 45.0359 119.989 45.2579 119.821 45.4379C119.653 45.6059 119.437 45.6899 119.173 45.6899C118.921 45.6899 118.705 45.6059 118.525 45.4379C118.357 45.2579 118.273 45.0359 118.273 44.7719V37.0679C118.273 36.8039 118.357 36.5879 118.525 36.4199C118.705 36.2399 118.921 36.1499 119.173 36.1499C119.437 36.1499 119.653 36.2399 119.821 36.4199C119.989 36.5879 120.073 36.8039 120.073 37.0679V44.7719ZM119.155 34.9619C118.807 34.9619 118.555 34.9019 118.399 34.7819C118.243 34.6499 118.165 34.4339 118.165 34.1339V33.8459C118.165 33.5459 118.249 33.3359 118.417 33.2159C118.585 33.0959 118.837 33.0359 119.173 33.0359C119.533 33.0359 119.791 33.1019 119.947 33.2339C120.103 33.3539 120.181 33.5579 120.181 33.8459V34.1339C120.181 34.4459 120.097 34.6619 119.929 34.7819C119.773 34.9019 119.515 34.9619 119.155 34.9619ZM130.252 32.3699C130.516 32.3699 130.732 32.4539 130.9 32.6219C131.068 32.7899 131.152 33.0119 131.152 33.2879V44.7719C131.152 45.0359 131.068 45.2579 130.9 45.4379C130.732 45.6059 130.516 45.6899 130.252 45.6899C130 45.6899 129.784 45.6059 129.604 45.4379C129.436 45.2579 129.352 45.0359 129.352 44.7719V43.4759L129.73 43.4939C129.73 43.7099 129.64 43.9559 129.46 44.2319C129.292 44.4959 129.058 44.7539 128.758 45.0059C128.458 45.2579 128.104 45.4679 127.696 45.6359C127.288 45.7919 126.85 45.8699 126.382 45.8699C125.554 45.8699 124.81 45.6599 124.15 45.2399C123.49 44.8079 122.968 44.2259 122.584 43.4939C122.2 42.7499 122.008 41.8979 122.008 40.9379C122.008 39.9779 122.2 39.1319 122.584 38.3999C122.968 37.6559 123.484 37.0739 124.132 36.6539C124.792 36.2219 125.524 36.0059 126.328 36.0059C126.832 36.0059 127.3 36.0899 127.732 36.2579C128.176 36.4259 128.56 36.6419 128.884 36.9059C129.208 37.1699 129.46 37.4519 129.64 37.7519C129.82 38.0399 129.91 38.3159 129.91 38.5799L129.352 38.6339V33.2879C129.352 33.0239 129.436 32.8079 129.604 32.6399C129.784 32.4599 130 32.3699 130.252 32.3699ZM126.58 44.2139C127.156 44.2139 127.654 44.0699 128.074 43.7819C128.506 43.4939 128.842 43.1039 129.082 42.6119C129.322 42.1199 129.442 41.5619 129.442 40.9379C129.442 40.3139 129.322 39.7559 129.082 39.2639C128.842 38.7719 128.506 38.3819 128.074 38.0939C127.642 37.8059 127.144 37.6619 126.58 37.6619C126.028 37.6619 125.536 37.8059 125.104 38.0939C124.684 38.3819 124.348 38.7719 124.096 39.2639C123.856 39.7559 123.736 40.3139 123.736 40.9379C123.736 41.5619 123.856 42.1199 124.096 42.6119C124.348 43.1039 124.684 43.4939 125.104 43.7819C125.536 44.0699 126.028 44.2139 126.58 44.2139ZM138.084 45.8699C137.088 45.8699 136.224 45.6659 135.492 45.2579C134.76 44.8379 134.19 44.2679 133.782 43.5479C133.386 42.8159 133.188 41.9819 133.188 41.0459C133.188 39.9899 133.398 39.0899 133.818 38.3459C134.25 37.5899 134.808 37.0139 135.492 36.6179C136.176 36.2099 136.902 36.0059 137.67 36.0059C138.258 36.0059 138.816 36.1259 139.344 36.3659C139.872 36.5939 140.34 36.9179 140.748 37.3379C141.168 37.7459 141.498 38.2319 141.738 38.7959C141.978 39.3479 142.104 39.9539 142.116 40.6139C142.104 40.8539 142.008 41.0519 141.828 41.2079C141.648 41.3639 141.438 41.4419 141.198 41.4419H134.196L133.764 39.9119H140.532L140.19 40.2359V39.7859C140.166 39.3659 140.028 38.9999 139.776 38.6879C139.524 38.3639 139.212 38.1179 138.84 37.9499C138.468 37.7699 138.078 37.6799 137.67 37.6799C137.31 37.6799 136.962 37.7399 136.626 37.8599C136.302 37.9679 136.008 38.1479 135.744 38.3999C135.492 38.6519 135.288 38.9879 135.132 39.4079C134.988 39.8159 134.916 40.3259 134.916 40.9379C134.916 41.5979 135.054 42.1739 135.33 42.6659C135.606 43.1579 135.978 43.5419 136.446 43.8179C136.914 44.0819 137.43 44.2139 137.994 44.2139C138.438 44.2139 138.804 44.1719 139.092 44.0879C139.38 43.9919 139.62 43.8779 139.812 43.7459C140.004 43.6139 140.172 43.4879 140.316 43.3679C140.496 43.2599 140.676 43.2059 140.856 43.2059C141.072 43.2059 141.252 43.2839 141.396 43.4399C141.54 43.5839 141.612 43.7579 141.612 43.9619C141.612 44.2259 141.48 44.4659 141.216 44.6819C140.892 44.9939 140.442 45.2699 139.866 45.5099C139.302 45.7499 138.708 45.8699 138.084 45.8699ZM156.918 36.0779C157.182 36.0779 157.398 36.1679 157.566 36.3479C157.734 36.5159 157.818 36.7319 157.818 36.9959V44.7719C157.818 45.0359 157.734 45.2579 157.566 45.4379C157.398 45.6059 157.182 45.6899 156.918 45.6899C156.666 45.6899 156.45 45.6059 156.27 45.4379C156.102 45.2579 156.018 45.0359 156.018 44.7719V43.4759L156.396 43.5299C156.396 43.7459 156.306 43.9859 156.126 44.2499C155.958 44.5139 155.724 44.7719 155.424 45.0239C155.124 45.2639 154.77 45.4679 154.362 45.6359C153.954 45.7919 153.516 45.8699 153.048 45.8699C152.22 45.8699 151.476 45.6599 150.816 45.2399C150.156 44.8079 149.634 44.2199 149.25 43.4759C148.866 42.7319 148.674 41.8859 148.674 40.9379C148.674 39.9659 148.866 39.1139 149.25 38.3819C149.634 37.6379 150.15 37.0559 150.798 36.6359C151.458 36.2159 152.19 36.0059 152.994 36.0059C153.51 36.0059 153.984 36.0899 154.416 36.2579C154.86 36.4259 155.244 36.6419 155.568 36.9059C155.892 37.1699 156.138 37.4519 156.306 37.7519C156.486 38.0399 156.576 38.3159 156.576 38.5799L156.018 38.6339V36.9959C156.018 36.7439 156.102 36.5279 156.27 36.3479C156.45 36.1679 156.666 36.0779 156.918 36.0779ZM153.246 44.2139C153.81 44.2139 154.308 44.0699 154.74 43.7819C155.172 43.4939 155.508 43.1039 155.748 42.6119C155.988 42.1079 156.108 41.5499 156.108 40.9379C156.108 40.3139 155.988 39.7559 155.748 39.2639C155.508 38.7719 155.172 38.3819 154.74 38.0939C154.308 37.8059 153.81 37.6619 153.246 37.6619C152.694 37.6619 152.202 37.8059 151.77 38.0939C151.35 38.3819 151.014 38.7719 150.762 39.2639C150.522 39.7559 150.402 40.3139 150.402 40.9379C150.402 41.5499 150.522 42.1079 150.762 42.6119C151.014 43.1039 151.35 43.4939 151.77 43.7819C152.202 44.0699 152.694 44.2139 153.246 44.2139ZM159.782 44.2139C159.674 44.0459 159.626 43.8539 159.638 43.6379C159.65 43.4099 159.776 43.2179 160.016 43.0619C160.184 42.9539 160.358 42.9119 160.538 42.9359C160.73 42.9479 160.91 43.0379 161.078 43.2059C161.414 43.5779 161.786 43.8719 162.194 44.0879C162.614 44.3039 163.118 44.4119 163.706 44.4119C163.946 44.3999 164.192 44.3639 164.444 44.3039C164.696 44.2319 164.912 44.1119 165.092 43.9439C165.272 43.7639 165.362 43.5059 165.362 43.1699C165.362 42.8699 165.266 42.6299 165.074 42.4499C164.882 42.2699 164.63 42.1259 164.318 42.0179C164.006 41.8979 163.67 41.7899 163.31 41.6939C162.926 41.5859 162.536 41.4659 162.14 41.3339C161.756 41.2019 161.408 41.0339 161.096 40.8299C160.784 40.6139 160.526 40.3379 160.322 40.0019C160.13 39.6659 160.034 39.2519 160.034 38.7599C160.034 38.1959 160.19 37.7099 160.502 37.3019C160.826 36.8939 161.24 36.5759 161.744 36.3479C162.26 36.1199 162.818 36.0059 163.418 36.0059C163.766 36.0059 164.132 36.0539 164.516 36.1499C164.9 36.2339 165.272 36.3719 165.632 36.5639C165.992 36.7559 166.304 37.0079 166.568 37.3199C166.688 37.4759 166.754 37.6619 166.766 37.8779C166.79 38.0939 166.694 38.2859 166.478 38.4539C166.334 38.5739 166.16 38.6279 165.956 38.6159C165.752 38.6039 165.584 38.5379 165.452 38.4179C165.224 38.1299 164.93 37.9079 164.57 37.7519C164.21 37.5839 163.802 37.4999 163.346 37.4999C163.118 37.4999 162.878 37.5359 162.626 37.6079C162.386 37.6679 162.182 37.7819 162.014 37.9499C161.846 38.1179 161.762 38.3639 161.762 38.6879C161.762 38.9879 161.858 39.2279 162.05 39.4079C162.254 39.5879 162.518 39.7379 162.842 39.8579C163.166 39.9779 163.52 40.0859 163.904 40.1819C164.276 40.2779 164.642 40.3919 165.002 40.5239C165.374 40.6559 165.704 40.8299 165.992 41.0459C166.292 41.2499 166.532 41.5199 166.712 41.8559C166.904 42.1799 167 42.5939 167 43.0979C167 43.6859 166.826 44.1899 166.478 44.6099C166.142 45.0179 165.71 45.3299 165.182 45.5459C164.666 45.7619 164.12 45.8699 163.544 45.8699C162.86 45.8699 162.176 45.7499 161.492 45.5099C160.82 45.2579 160.25 44.8259 159.782 44.2139ZM168.378 44.2139C168.27 44.0459 168.222 43.8539 168.234 43.6379C168.246 43.4099 168.372 43.2179 168.612 43.0619C168.78 42.9539 168.954 42.9119 169.134 42.9359C169.326 42.9479 169.506 43.0379 169.674 43.2059C170.01 43.5779 170.382 43.8719 170.79 44.0879C171.21 44.3039 171.714 44.4119 172.302 44.4119C172.542 44.3999 172.788 44.3639 173.04 44.3039C173.292 44.2319 173.508 44.1119 173.688 43.9439C173.868 43.7639 173.958 43.5059 173.958 43.1699C173.958 42.8699 173.862 42.6299 173.67 42.4499C173.478 42.2699 173.226 42.1259 172.914 42.0179C172.602 41.8979 172.266 41.7899 171.906 41.6939C171.522 41.5859 171.132 41.4659 170.736 41.3339C170.352 41.2019 170.004 41.0339 169.692 40.8299C169.38 40.6139 169.122 40.3379 168.918 40.0019C168.726 39.6659 168.63 39.2519 168.63 38.7599C168.63 38.1959 168.786 37.7099 169.098 37.3019C169.422 36.8939 169.836 36.5759 170.34 36.3479C170.856 36.1199 171.414 36.0059 172.014 36.0059C172.362 36.0059 172.728 36.0539 173.112 36.1499C173.496 36.2339 173.868 36.3719 174.228 36.5639C174.588 36.7559 174.9 37.0079 175.164 37.3199C175.284 37.4759 175.35 37.6619 175.362 37.8779C175.386 38.0939 175.29 38.2859 175.074 38.4539C174.93 38.5739 174.756 38.6279 174.552 38.6159C174.348 38.6039 174.18 38.5379 174.048 38.4179C173.82 38.1299 173.526 37.9079 173.166 37.7519C172.806 37.5839 172.398 37.4999 171.942 37.4999C171.714 37.4999 171.474 37.5359 171.222 37.6079C170.982 37.6679 170.778 37.7819 170.61 37.9499C170.442 38.1179 170.358 38.3639 170.358 38.6879C170.358 38.9879 170.454 39.2279 170.646 39.4079C170.85 39.5879 171.114 39.7379 171.438 39.8579C171.762 39.9779 172.116 40.0859 172.5 40.1819C172.872 40.2779 173.238 40.3919 173.598 40.5239C173.97 40.6559 174.3 40.8299 174.588 41.0459C174.888 41.2499 175.128 41.5199 175.308 41.8559C175.5 42.1799 175.596 42.5939 175.596 43.0979C175.596 43.6859 175.422 44.1899 175.074 44.6099C174.738 45.0179 174.306 45.3299 173.778 45.5459C173.262 45.7619 172.716 45.8699 172.14 45.8699C171.456 45.8699 170.772 45.7499 170.088 45.5099C169.416 45.2579 168.846 44.8259 168.378 44.2139ZM186.603 40.9559C186.603 41.9159 186.393 42.7679 185.973 43.5119C185.553 44.2439 184.983 44.8199 184.263 45.2399C183.543 45.6599 182.733 45.8699 181.833 45.8699C180.933 45.8699 180.123 45.6599 179.403 45.2399C178.683 44.8199 178.107 44.2439 177.675 43.5119C177.255 42.7679 177.045 41.9159 177.045 40.9559C177.045 39.9839 177.255 39.1319 177.675 38.3999C178.107 37.6559 178.683 37.0739 179.403 36.6539C180.123 36.2219 180.933 36.0059 181.833 36.0059C182.733 36.0059 183.543 36.2219 184.263 36.6539C184.983 37.0739 185.553 37.6559 185.973 38.3999C186.393 39.1319 186.603 39.9839 186.603 40.9559ZM184.803 40.9559C184.803 40.2959 184.671 39.7259 184.407 39.2459C184.143 38.7539 183.783 38.3699 183.327 38.0939C182.883 37.8059 182.385 37.6619 181.833 37.6619C181.281 37.6619 180.777 37.8059 180.321 38.0939C179.865 38.3699 179.505 38.7539 179.241 39.2459C178.977 39.7259 178.845 40.2959 178.845 40.9559C178.845 41.5919 178.977 42.1559 179.241 42.6479C179.505 43.1399 179.865 43.5239 180.321 43.7999C180.777 44.0759 181.281 44.2139 181.833 44.2139C182.385 44.2139 182.883 44.0759 183.327 43.7999C183.783 43.5239 184.143 43.1399 184.407 42.6479C184.671 42.1559 184.803 41.5919 184.803 40.9559ZM189.541 45.6899C189.277 45.6899 189.061 45.6059 188.893 45.4379C188.725 45.2579 188.641 45.0359 188.641 44.7719V37.1399C188.641 36.8759 188.725 36.6599 188.893 36.4919C189.061 36.3119 189.277 36.2219 189.541 36.2219C189.793 36.2219 190.003 36.3119 190.171 36.4919C190.351 36.6599 190.441 36.8759 190.441 37.1399V39.1559L190.261 38.3819C190.357 38.0459 190.501 37.7339 190.693 37.4459C190.897 37.1579 191.137 36.9059 191.413 36.6899C191.689 36.4739 191.995 36.3059 192.331 36.1859C192.679 36.0659 193.039 36.0059 193.411 36.0059C193.723 36.0059 193.993 36.0899 194.221 36.2579C194.449 36.4259 194.563 36.6359 194.563 36.8879C194.563 37.2119 194.479 37.4519 194.311 37.6079C194.143 37.7519 193.957 37.8239 193.753 37.8239C193.573 37.8239 193.399 37.7879 193.231 37.7159C193.063 37.6319 192.865 37.5899 192.637 37.5899C192.385 37.5899 192.127 37.6559 191.863 37.7879C191.599 37.9199 191.359 38.1179 191.143 38.3819C190.927 38.6339 190.753 38.9339 190.621 39.2819C190.501 39.6299 190.441 40.0199 190.441 40.4519V44.7719C190.441 45.0359 190.351 45.2579 190.171 45.4379C190.003 45.6059 189.793 45.6899 189.541 45.6899ZM196.038 36.3299H200.268C200.508 36.3299 200.706 36.4139 200.862 36.5819C201.03 36.7379 201.114 36.9359 201.114 37.1759C201.114 37.4039 201.03 37.5959 200.862 37.7519C200.706 37.9079 200.508 37.9859 200.268 37.9859H196.038C195.798 37.9859 195.594 37.9079 195.426 37.7519C195.27 37.5839 195.192 37.3859 195.192 37.1579C195.192 36.9179 195.27 36.7199 195.426 36.5639C195.594 36.4079 195.798 36.3299 196.038 36.3299ZM197.928 33.9899C198.192 33.9899 198.408 34.0799 198.576 34.2599C198.744 34.4279 198.828 34.6439 198.828 34.9079V43.2599C198.828 43.4759 198.864 43.6499 198.936 43.7819C199.008 43.9139 199.104 44.0039 199.224 44.0519C199.356 44.0999 199.488 44.1239 199.62 44.1239C199.752 44.1239 199.866 44.0999 199.962 44.0519C200.07 44.0039 200.196 43.9799 200.34 43.9799C200.484 43.9799 200.616 44.0459 200.736 44.1779C200.856 44.3099 200.916 44.4899 200.916 44.7179C200.916 45.0059 200.76 45.2399 200.448 45.4199C200.136 45.5999 199.8 45.6899 199.44 45.6899C199.236 45.6899 198.996 45.6719 198.72 45.6359C198.444 45.5999 198.174 45.5099 197.91 45.3659C197.658 45.2219 197.448 44.9939 197.28 44.6819C197.112 44.3579 197.028 43.9079 197.028 43.3319V34.9079C197.028 34.6439 197.112 34.4279 197.28 34.2599C197.46 34.0799 197.676 33.9899 197.928 33.9899ZM207.86 36.0599C208.748 36.0599 209.432 36.2819 209.912 36.7259C210.392 37.1579 210.71 37.7459 210.866 38.4899L210.578 38.3999L210.704 38.1119C210.86 37.7999 211.094 37.4879 211.406 37.1759C211.73 36.8519 212.114 36.5879 212.558 36.3839C213.002 36.1679 213.476 36.0599 213.98 36.0599C214.808 36.0599 215.45 36.2399 215.906 36.5999C216.362 36.9479 216.68 37.4219 216.86 38.0219C217.04 38.6099 217.13 39.2699 217.13 40.0019V44.7719C217.13 45.0359 217.046 45.2579 216.878 45.4379C216.71 45.6059 216.494 45.6899 216.23 45.6899C215.978 45.6899 215.762 45.6059 215.582 45.4379C215.414 45.2579 215.33 45.0359 215.33 44.7719V40.0199C215.33 39.5999 215.27 39.2159 215.15 38.8679C215.042 38.5199 214.844 38.2439 214.556 38.0399C214.28 37.8239 213.896 37.7159 213.404 37.7159C212.936 37.7159 212.516 37.8239 212.144 38.0399C211.784 38.2439 211.502 38.5199 211.298 38.8679C211.094 39.2159 210.992 39.5999 210.992 40.0199V44.7719C210.992 45.0359 210.908 45.2579 210.74 45.4379C210.572 45.6059 210.356 45.6899 210.092 45.6899C209.828 45.6899 209.612 45.6059 209.444 45.4379C209.276 45.2579 209.192 45.0359 209.192 44.7719V40.0019C209.192 39.5819 209.132 39.1979 209.012 38.8499C208.904 38.5019 208.712 38.2259 208.436 38.0219C208.16 37.8179 207.776 37.7159 207.284 37.7159C206.816 37.7159 206.402 37.8179 206.042 38.0219C205.682 38.2259 205.4 38.5019 205.196 38.8499C205.004 39.1979 204.908 39.5819 204.908 40.0019V44.7719C204.908 45.0359 204.818 45.2579 204.638 45.4379C204.47 45.6059 204.26 45.6899 204.008 45.6899C203.744 45.6899 203.528 45.6059 203.36 45.4379C203.192 45.2579 203.108 45.0359 203.108 44.7719V37.1399C203.108 36.8759 203.192 36.6599 203.36 36.4919C203.528 36.3119 203.744 36.2219 204.008 36.2219C204.26 36.2219 204.47 36.3119 204.638 36.4919C204.818 36.6599 204.908 36.8759 204.908 37.1399V38.2019L204.566 38.3999C204.65 38.1359 204.788 37.8659 204.98 37.5899C205.172 37.3139 205.412 37.0619 205.7 36.8339C206 36.6059 206.33 36.4199 206.69 36.2759C207.05 36.1319 207.44 36.0599 207.86 36.0599ZM224.059 45.8699C223.063 45.8699 222.199 45.6659 221.467 45.2579C220.735 44.8379 220.165 44.2679 219.757 43.5479C219.361 42.8159 219.163 41.9819 219.163 41.0459C219.163 39.9899 219.373 39.0899 219.793 38.3459C220.225 37.5899 220.783 37.0139 221.467 36.6179C222.151 36.2099 222.877 36.0059 223.645 36.0059C224.233 36.0059 224.791 36.1259 225.319 36.3659C225.847 36.5939 226.315 36.9179 226.723 37.3379C227.143 37.7459 227.473 38.2319 227.713 38.7959C227.953 39.3479 228.079 39.9539 228.091 40.6139C228.079 40.8539 227.983 41.0519 227.803 41.2079C227.623 41.3639 227.413 41.4419 227.173 41.4419H220.171L219.739 39.9119H226.507L226.165 40.2359V39.7859C226.141 39.3659 226.003 38.9999 225.751 38.6879C225.499 38.3639 225.187 38.1179 224.815 37.9499C224.443 37.7699 224.053 37.6799 223.645 37.6799C223.285 37.6799 222.937 37.7399 222.601 37.8599C222.277 37.9679 221.983 38.1479 221.719 38.3999C221.467 38.6519 221.263 38.9879 221.107 39.4079C220.963 39.8159 220.891 40.3259 220.891 40.9379C220.891 41.5979 221.029 42.1739 221.305 42.6659C221.581 43.1579 221.953 43.5419 222.421 43.8179C222.889 44.0819 223.405 44.2139 223.969 44.2139C224.413 44.2139 224.779 44.1719 225.067 44.0879C225.355 43.9919 225.595 43.8779 225.787 43.7459C225.979 43.6139 226.147 43.4879 226.291 43.3679C226.471 43.2599 226.651 43.2059 226.831 43.2059C227.047 43.2059 227.227 43.2839 227.371 43.4399C227.515 43.5839 227.587 43.7579 227.587 43.9619C227.587 44.2259 227.455 44.4659 227.191 44.6819C226.867 44.9939 226.417 45.2699 225.841 45.5099C225.277 45.7499 224.683 45.8699 224.059 45.8699ZM235.003 36.0059C235.855 36.0059 236.515 36.1859 236.983 36.5459C237.451 36.8939 237.775 37.3679 237.955 37.9679C238.147 38.5559 238.243 39.2159 238.243 39.9479V44.7719C238.243 45.0359 238.153 45.2579 237.973 45.4379C237.805 45.6059 237.595 45.6899 237.343 45.6899C237.079 45.6899 236.863 45.6059 236.695 45.4379C236.527 45.2579 236.443 45.0359 236.443 44.7719V39.9659C236.443 39.5339 236.383 39.1499 236.263 38.8139C236.143 38.4659 235.933 38.1899 235.633 37.9859C235.345 37.7699 234.937 37.6619 234.409 37.6619C233.917 37.6619 233.485 37.7699 233.113 37.9859C232.741 38.1899 232.447 38.4659 232.231 38.8139C232.027 39.1499 231.925 39.5339 231.925 39.9659V44.7719C231.925 45.0359 231.835 45.2579 231.655 45.4379C231.487 45.6059 231.277 45.6899 231.025 45.6899C230.761 45.6899 230.545 45.6059 230.377 45.4379C230.209 45.2579 230.125 45.0359 230.125 44.7719V37.1399C230.125 36.8759 230.209 36.6599 230.377 36.4919C230.545 36.3119 230.761 36.2219 231.025 36.2219C231.277 36.2219 231.487 36.3119 231.655 36.4919C231.835 36.6599 231.925 36.8759 231.925 37.1399V38.1479L231.601 38.3279C231.685 38.0639 231.829 37.7999 232.033 37.5359C232.249 37.2599 232.507 37.0079 232.807 36.7799C233.107 36.5399 233.443 36.3539 233.815 36.2219C234.187 36.0779 234.583 36.0059 235.003 36.0059ZM240.616 36.3299H244.846C245.086 36.3299 245.284 36.4139 245.44 36.5819C245.608 36.7379 245.692 36.9359 245.692 37.1759C245.692 37.4039 245.608 37.5959 245.44 37.7519C245.284 37.9079 245.086 37.9859 244.846 37.9859H240.616C240.376 37.9859 240.172 37.9079 240.004 37.7519C239.848 37.5839 239.77 37.3859 239.77 37.1579C239.77 36.9179 239.848 36.7199 240.004 36.5639C240.172 36.4079 240.376 36.3299 240.616 36.3299ZM242.506 33.9899C242.77 33.9899 242.986 34.0799 243.154 34.2599C243.322 34.4279 243.406 34.6439 243.406 34.9079V43.2599C243.406 43.4759 243.442 43.6499 243.514 43.7819C243.586 43.9139 243.682 44.0039 243.802 44.0519C243.934 44.0999 244.066 44.1239 244.198 44.1239C244.33 44.1239 244.444 44.0999 244.54 44.0519C244.648 44.0039 244.774 43.9799 244.918 43.9799C245.062 43.9799 245.194 44.0459 245.314 44.1779C245.434 44.3099 245.494 44.4899 245.494 44.7179C245.494 45.0059 245.338 45.2399 245.026 45.4199C244.714 45.5999 244.378 45.6899 244.018 45.6899C243.814 45.6899 243.574 45.6719 243.298 45.6359C243.022 45.5999 242.752 45.5099 242.488 45.3659C242.236 45.2219 242.026 44.9939 241.858 44.6819C241.69 44.3579 241.606 43.9079 241.606 43.3319V34.9079C241.606 34.6439 241.69 34.4279 241.858 34.2599C242.038 34.0799 242.254 33.9899 242.506 33.9899Z" fill="#242424"/>
<path d="M113.392 61.816V73.28H112.032V64.856C112.032 64.744 112.035 64.624 112.04 64.496C112.051 64.368 112.061 64.2374 112.072 64.104L108.136 71.272C108.013 71.512 107.827 71.632 107.576 71.632H107.352C107.101 71.632 106.915 71.512 106.792 71.272L102.776 64.072C102.808 64.3547 102.824 64.616 102.824 64.856V73.28H101.464V61.816H102.608C102.747 61.816 102.853 61.8294 102.928 61.856C103.003 61.8827 103.075 61.9574 103.144 62.08L107.104 69.136C107.168 69.264 107.229 69.3974 107.288 69.536C107.352 69.6747 107.411 69.816 107.464 69.96C107.517 69.816 107.573 69.6747 107.632 69.536C107.691 69.392 107.755 69.256 107.824 69.128L111.712 62.08C111.776 61.9574 111.845 61.8827 111.92 61.856C112 61.8294 112.109 61.816 112.248 61.816H113.392ZM121.161 68.344C121.161 68.0134 121.113 67.712 121.017 67.44C120.927 67.1627 120.791 66.9254 120.609 66.728C120.433 66.5254 120.217 66.3707 119.961 66.264C119.705 66.152 119.415 66.096 119.089 66.096C118.407 66.096 117.865 66.296 117.465 66.696C117.071 67.0907 116.825 67.64 116.729 68.344H121.161ZM122.313 72.144C122.137 72.3574 121.927 72.544 121.681 72.704C121.436 72.8587 121.172 72.9867 120.889 73.088C120.612 73.1894 120.324 73.264 120.025 73.312C119.727 73.3654 119.431 73.392 119.137 73.392C118.577 73.392 118.06 73.2987 117.585 73.112C117.116 72.92 116.708 72.6427 116.361 72.28C116.02 71.912 115.753 71.4587 115.561 70.92C115.369 70.3814 115.273 69.7627 115.273 69.064C115.273 68.4987 115.359 67.9707 115.529 67.48C115.705 66.9894 115.956 66.5654 116.281 66.208C116.607 65.8454 117.004 65.5627 117.473 65.36C117.943 65.152 118.471 65.048 119.057 65.048C119.543 65.048 119.991 65.1307 120.401 65.296C120.817 65.456 121.175 65.6907 121.473 66C121.777 66.304 122.015 66.6827 122.185 67.136C122.356 67.584 122.441 68.096 122.441 68.672C122.441 68.896 122.417 69.0454 122.369 69.12C122.321 69.1947 122.231 69.232 122.097 69.232H116.681C116.697 69.744 116.767 70.1894 116.889 70.568C117.017 70.9467 117.193 71.264 117.417 71.52C117.641 71.7707 117.908 71.96 118.217 72.088C118.527 72.2107 118.873 72.272 119.257 72.272C119.615 72.272 119.921 72.232 120.177 72.152C120.439 72.0667 120.663 71.976 120.849 71.88C121.036 71.784 121.191 71.696 121.313 71.616C121.441 71.5307 121.551 71.488 121.641 71.488C121.759 71.488 121.849 71.5334 121.913 71.624L122.313 72.144ZM127.015 69.32C127.303 69.32 127.556 69.28 127.775 69.2C127.993 69.12 128.177 69.008 128.327 68.864C128.476 68.72 128.588 68.5494 128.663 68.352C128.737 68.1494 128.775 67.928 128.775 67.688C128.775 67.192 128.623 66.7974 128.319 66.504C128.02 66.2107 127.585 66.064 127.015 66.064C126.439 66.064 125.999 66.2107 125.695 66.504C125.396 66.7974 125.247 67.192 125.247 67.688C125.247 67.928 125.284 68.1494 125.359 68.352C125.439 68.5494 125.553 68.72 125.703 68.864C125.852 69.008 126.036 69.12 126.255 69.2C126.473 69.28 126.727 69.32 127.015 69.32ZM129.583 73.72C129.583 73.5227 129.527 73.3627 129.415 73.24C129.303 73.1174 129.151 73.0214 128.959 72.952C128.772 72.8827 128.553 72.8347 128.303 72.808C128.052 72.776 127.785 72.752 127.503 72.736C127.225 72.72 126.943 72.704 126.655 72.688C126.367 72.672 126.089 72.6454 125.823 72.608C125.524 72.7467 125.279 72.9227 125.087 73.136C124.9 73.344 124.807 73.5894 124.807 73.872C124.807 74.0534 124.852 74.2214 124.943 74.376C125.039 74.536 125.183 74.672 125.375 74.784C125.567 74.9014 125.807 74.992 126.095 75.056C126.388 75.1254 126.732 75.16 127.127 75.16C127.511 75.16 127.855 75.1254 128.159 75.056C128.463 74.9867 128.719 74.888 128.927 74.76C129.14 74.632 129.303 74.48 129.415 74.304C129.527 74.128 129.583 73.9334 129.583 73.72ZM131.031 65.496V66.024C131.031 66.2 130.919 66.312 130.695 66.36L129.775 66.48C129.956 66.832 130.047 67.2214 130.047 67.648C130.047 68.0427 129.969 68.4027 129.815 68.728C129.665 69.048 129.457 69.3227 129.191 69.552C128.924 69.7814 128.604 69.9574 128.231 70.08C127.857 70.2027 127.452 70.264 127.015 70.264C126.636 70.264 126.279 70.2187 125.943 70.128C125.772 70.2347 125.641 70.3494 125.551 70.472C125.46 70.5894 125.414 70.7094 125.414 70.832C125.414 71.024 125.492 71.1707 125.647 71.272C125.807 71.368 126.015 71.4374 126.271 71.48C126.527 71.5227 126.817 71.5494 127.143 71.56C127.473 71.5707 127.809 71.5894 128.151 71.616C128.497 71.6374 128.833 71.6774 129.159 71.736C129.489 71.7947 129.783 71.8907 130.039 72.024C130.295 72.1574 130.5 72.3414 130.655 72.576C130.815 72.8107 130.895 73.1147 130.895 73.488C130.895 73.8347 130.807 74.1707 130.631 74.496C130.46 74.8214 130.212 75.1094 129.887 75.36C129.561 75.616 129.161 75.8187 128.687 75.968C128.217 76.1227 127.687 76.2 127.095 76.2C126.503 76.2 125.985 76.1414 125.543 76.024C125.1 75.9067 124.732 75.7494 124.439 75.552C124.145 75.3547 123.924 75.1254 123.775 74.864C123.631 74.608 123.559 74.3387 123.559 74.056C123.559 73.656 123.684 73.3174 123.935 73.04C124.185 72.7627 124.529 72.5414 124.967 72.376C124.727 72.2694 124.535 72.128 124.391 71.952C124.252 71.7707 124.183 71.528 124.183 71.224C124.183 71.1067 124.204 70.9867 124.247 70.864C124.289 70.736 124.353 70.6107 124.439 70.488C124.529 70.36 124.639 70.24 124.767 70.128C124.895 70.016 125.044 69.9174 125.215 69.832C124.815 69.608 124.503 69.312 124.279 68.944C124.055 68.5707 123.943 68.1387 123.943 67.648C123.943 67.2534 124.017 66.896 124.167 66.576C124.321 66.2507 124.535 65.976 124.807 65.752C125.079 65.5227 125.401 65.3467 125.775 65.224C126.153 65.1014 126.567 65.04 127.015 65.04C127.367 65.04 127.695 65.08 127.999 65.16C128.303 65.2347 128.58 65.3467 128.831 65.496H131.031ZM136.895 69.632C136.239 69.6534 135.679 69.7067 135.215 69.792C134.756 69.872 134.38 69.9787 134.087 70.112C133.799 70.2454 133.588 70.4027 133.455 70.584C133.327 70.7654 133.263 70.968 133.263 71.192C133.263 71.4054 133.298 71.5894 133.367 71.744C133.436 71.8987 133.53 72.0267 133.647 72.128C133.77 72.224 133.911 72.296 134.071 72.344C134.236 72.3867 134.412 72.408 134.599 72.408C134.85 72.408 135.079 72.384 135.287 72.336C135.495 72.2827 135.69 72.208 135.871 72.112C136.058 72.016 136.234 71.9014 136.399 71.768C136.57 71.6347 136.735 71.4827 136.895 71.312V69.632ZM132.295 66.32C132.743 65.888 133.226 65.5654 133.743 65.352C134.26 65.1387 134.834 65.032 135.463 65.032C135.916 65.032 136.319 65.1067 136.671 65.256C137.023 65.4054 137.319 65.6134 137.559 65.88C137.799 66.1467 137.98 66.4694 138.103 66.848C138.226 67.2267 138.287 67.6427 138.287 68.096V73.28H137.655C137.516 73.28 137.41 73.2587 137.335 73.216C137.26 73.168 137.202 73.0774 137.159 72.944L136.999 72.176C136.786 72.3734 136.578 72.5494 136.375 72.704C136.172 72.8534 135.959 72.9814 135.735 73.088C135.511 73.1894 135.271 73.2667 135.015 73.32C134.764 73.3787 134.484 73.408 134.175 73.408C133.86 73.408 133.564 73.3654 133.287 73.28C133.01 73.1894 132.767 73.056 132.559 72.88C132.356 72.704 132.194 72.4827 132.071 72.216C131.954 71.944 131.895 71.624 131.895 71.256C131.895 70.936 131.983 70.6294 132.159 70.336C132.335 70.0374 132.62 69.7734 133.015 69.544C133.41 69.3147 133.924 69.128 134.559 68.984C135.194 68.8347 135.972 68.7494 136.895 68.728V68.096C136.895 67.4667 136.759 66.992 136.487 66.672C136.215 66.3467 135.818 66.184 135.295 66.184C134.943 66.184 134.647 66.2294 134.407 66.32C134.172 66.4054 133.967 66.504 133.791 66.616C133.62 66.7227 133.471 66.8214 133.343 66.912C133.22 66.9974 133.098 67.04 132.975 67.04C132.879 67.04 132.796 67.016 132.727 66.968C132.658 66.9147 132.599 66.8507 132.551 66.776L132.295 66.32ZM154.822 67.552C154.822 68.4107 154.686 69.192 154.414 69.896C154.142 70.6 153.758 71.2027 153.262 71.704C152.766 72.2054 152.169 72.5947 151.47 72.872C150.777 73.144 150.009 73.28 149.166 73.28H144.886V61.816H149.166C150.009 61.816 150.777 61.9547 151.47 62.232C152.169 62.504 152.766 62.8934 153.262 63.4C153.758 63.9014 154.142 64.504 154.414 65.208C154.686 65.912 154.822 66.6934 154.822 67.552ZM153.23 67.552C153.23 66.848 153.134 66.2187 152.942 65.664C152.75 65.1094 152.478 64.64 152.126 64.256C151.774 63.872 151.347 63.5787 150.846 63.376C150.345 63.1734 149.785 63.072 149.166 63.072H146.438V72.024H149.166C149.785 72.024 150.345 71.9227 150.846 71.72C151.347 71.5174 151.774 71.2267 152.126 70.848C152.478 70.464 152.75 69.9947 152.942 69.44C153.134 68.8854 153.23 68.256 153.23 67.552ZM158.07 65.176V73.28H156.646V65.176H158.07ZM158.374 62.632C158.374 62.7707 158.344 62.9014 158.286 63.024C158.232 63.1414 158.158 63.248 158.062 63.344C157.971 63.4347 157.862 63.5067 157.734 63.56C157.611 63.6134 157.48 63.64 157.342 63.64C157.203 63.64 157.072 63.6134 156.95 63.56C156.832 63.5067 156.728 63.4347 156.638 63.344C156.547 63.248 156.475 63.1414 156.422 63.024C156.368 62.9014 156.342 62.7707 156.342 62.632C156.342 62.4934 156.368 62.3627 156.422 62.24C156.475 62.112 156.547 62.0027 156.638 61.912C156.728 61.816 156.832 61.7414 156.95 61.688C157.072 61.6347 157.203 61.608 157.342 61.608C157.48 61.608 157.611 61.6347 157.734 61.688C157.862 61.7414 157.971 61.816 158.062 61.912C158.158 62.0027 158.232 62.112 158.286 62.24C158.344 62.3627 158.374 62.4934 158.374 62.632ZM165.129 66.512C165.065 66.6294 164.967 66.688 164.833 66.688C164.753 66.688 164.663 66.6587 164.561 66.6C164.46 66.5414 164.335 66.4774 164.185 66.408C164.041 66.3334 163.868 66.2667 163.665 66.208C163.463 66.144 163.223 66.112 162.945 66.112C162.705 66.112 162.489 66.144 162.297 66.208C162.105 66.2667 161.94 66.3494 161.801 66.456C161.668 66.5627 161.564 66.688 161.489 66.832C161.42 66.9707 161.385 67.1227 161.385 67.288C161.385 67.496 161.444 67.6694 161.561 67.808C161.684 67.9467 161.844 68.0667 162.041 68.168C162.239 68.2694 162.463 68.36 162.713 68.44C162.964 68.5147 163.22 68.5974 163.481 68.688C163.748 68.7734 164.007 68.8694 164.257 68.976C164.508 69.0827 164.732 69.216 164.929 69.376C165.127 69.536 165.284 69.7334 165.401 69.968C165.524 70.1974 165.585 70.4747 165.585 70.8C165.585 71.1734 165.519 71.52 165.385 71.84C165.252 72.1547 165.055 72.4294 164.793 72.664C164.532 72.8934 164.212 73.0747 163.833 73.208C163.455 73.3414 163.017 73.408 162.521 73.408C161.956 73.408 161.444 73.3174 160.985 73.136C160.527 72.9494 160.137 72.712 159.817 72.424L160.153 71.88C160.196 71.8107 160.247 71.7574 160.305 71.72C160.364 71.6827 160.439 71.664 160.529 71.664C160.625 71.664 160.727 71.7014 160.833 71.776C160.94 71.8507 161.068 71.9334 161.217 72.024C161.372 72.1147 161.559 72.1974 161.777 72.272C161.996 72.3467 162.268 72.384 162.593 72.384C162.871 72.384 163.113 72.3494 163.321 72.28C163.529 72.2054 163.703 72.1067 163.841 71.984C163.98 71.8614 164.081 71.72 164.145 71.56C164.215 71.4 164.249 71.2294 164.249 71.048C164.249 70.824 164.188 70.64 164.065 70.496C163.948 70.3467 163.791 70.2214 163.593 70.12C163.396 70.0134 163.169 69.9227 162.913 69.848C162.663 69.768 162.404 69.6854 162.137 69.6C161.876 69.5147 161.617 69.4187 161.361 69.312C161.111 69.2 160.887 69.0614 160.689 68.896C160.492 68.7307 160.332 68.528 160.209 68.288C160.092 68.0427 160.033 67.7467 160.033 67.4C160.033 67.0907 160.097 66.7947 160.225 66.512C160.353 66.224 160.54 65.9734 160.785 65.76C161.031 65.5414 161.332 65.368 161.689 65.24C162.047 65.112 162.455 65.048 162.913 65.048C163.447 65.048 163.924 65.1334 164.345 65.304C164.772 65.4694 165.14 65.6987 165.449 65.992L165.129 66.512ZM172.971 66.616C172.928 66.6747 172.886 66.72 172.843 66.752C172.8 66.784 172.742 66.8 172.667 66.8C172.587 66.8 172.499 66.768 172.403 66.704C172.307 66.6347 172.187 66.56 172.043 66.48C171.904 66.4 171.731 66.328 171.523 66.264C171.32 66.1947 171.07 66.16 170.771 66.16C170.371 66.16 170.019 66.232 169.715 66.376C169.411 66.5147 169.155 66.7174 168.947 66.984C168.744 67.2507 168.59 67.5734 168.483 67.952C168.382 68.3307 168.331 68.7547 168.331 69.224C168.331 69.7147 168.387 70.152 168.499 70.536C168.611 70.9147 168.768 71.2347 168.971 71.496C169.179 71.752 169.427 71.9494 169.715 72.088C170.008 72.2214 170.336 72.288 170.699 72.288C171.046 72.288 171.331 72.248 171.555 72.168C171.779 72.0827 171.963 71.9894 172.107 71.888C172.256 71.7867 172.379 71.696 172.475 71.616C172.576 71.5307 172.675 71.488 172.771 71.488C172.888 71.488 172.979 71.5334 173.043 71.624L173.443 72.144C173.267 72.3627 173.067 72.5494 172.843 72.704C172.619 72.8587 172.376 72.9894 172.115 73.096C171.859 73.1974 171.59 73.272 171.307 73.32C171.024 73.368 170.736 73.392 170.443 73.392C169.936 73.392 169.464 73.2987 169.027 73.112C168.595 72.9254 168.219 72.656 167.899 72.304C167.579 71.9467 167.328 71.5094 167.147 70.992C166.966 70.4747 166.875 69.8854 166.875 69.224C166.875 68.6214 166.958 68.064 167.123 67.552C167.294 67.04 167.539 66.6 167.859 66.232C168.184 65.8587 168.582 65.568 169.051 65.36C169.526 65.152 170.07 65.048 170.683 65.048C171.254 65.048 171.755 65.1414 172.187 65.328C172.624 65.5094 173.011 65.768 173.347 66.104L172.971 66.616ZM178.247 65.048C178.839 65.048 179.372 65.1467 179.847 65.344C180.322 65.5414 180.727 65.8214 181.063 66.184C181.399 66.5467 181.655 66.9867 181.831 67.504C182.012 68.016 182.103 68.5894 182.103 69.224C182.103 69.864 182.012 70.44 181.831 70.952C181.655 71.464 181.399 71.9014 181.063 72.264C180.727 72.6267 180.322 72.9067 179.847 73.104C179.372 73.296 178.839 73.392 178.247 73.392C177.65 73.392 177.111 73.296 176.631 73.104C176.156 72.9067 175.751 72.6267 175.415 72.264C175.079 71.9014 174.82 71.464 174.639 70.952C174.463 70.44 174.375 69.864 174.375 69.224C174.375 68.5894 174.463 68.016 174.639 67.504C174.82 66.9867 175.079 66.5467 175.415 66.184C175.751 65.8214 176.156 65.5414 176.631 65.344C177.111 65.1467 177.65 65.048 178.247 65.048ZM178.247 72.28C179.047 72.28 179.644 72.0134 180.039 71.48C180.434 70.9414 180.631 70.192 180.631 69.232C180.631 68.2667 180.434 67.5147 180.039 66.976C179.644 66.4374 179.047 66.168 178.247 66.168C177.842 66.168 177.487 66.2374 177.183 66.376C176.884 66.5147 176.634 66.7147 176.431 66.976C176.234 67.2374 176.084 67.56 175.983 67.944C175.887 68.3227 175.839 68.752 175.839 69.232C175.839 70.192 176.036 70.9414 176.431 71.48C176.831 72.0134 177.436 72.28 178.247 72.28ZM190.573 65.176V73.28H189.725C189.523 73.28 189.395 73.1814 189.341 72.984L189.229 72.112C188.877 72.5014 188.483 72.816 188.045 73.056C187.608 73.2907 187.107 73.408 186.541 73.408C186.099 73.408 185.707 73.336 185.365 73.192C185.029 73.0427 184.747 72.8347 184.517 72.568C184.288 72.3014 184.115 71.9787 183.997 71.6C183.885 71.2214 183.829 70.8027 183.829 70.344V65.176H185.253V70.344C185.253 70.9574 185.392 71.432 185.669 71.768C185.952 72.104 186.381 72.272 186.957 72.272C187.379 72.272 187.771 72.1734 188.133 71.976C188.501 71.7734 188.84 71.496 189.149 71.144V65.176H190.573ZM194.175 66.352C194.351 66.1547 194.538 65.976 194.735 65.816C194.932 65.656 195.14 65.52 195.359 65.408C195.583 65.2907 195.818 65.2027 196.063 65.144C196.314 65.08 196.583 65.048 196.871 65.048C197.314 65.048 197.703 65.1227 198.039 65.272C198.38 65.416 198.663 65.624 198.887 65.896C199.116 66.1627 199.29 66.4854 199.407 66.864C199.524 67.2427 199.583 67.6614 199.583 68.12V73.28H198.151V68.12C198.151 67.5067 198.01 67.032 197.727 66.696C197.45 66.3547 197.026 66.184 196.455 66.184C196.034 66.184 195.639 66.2854 195.271 66.488C194.908 66.6907 194.572 66.9654 194.263 67.312V73.28H192.831V65.176H193.687C193.89 65.176 194.015 65.2747 194.063 65.472L194.175 66.352ZM204.132 73.408C203.492 73.408 202.998 73.2294 202.652 72.872C202.31 72.5147 202.14 72 202.14 71.328V66.368H201.164C201.078 66.368 201.006 66.344 200.948 66.296C200.889 66.2427 200.86 66.1627 200.86 66.056V65.488L202.188 65.32L202.516 62.816C202.532 62.736 202.566 62.672 202.62 62.624C202.678 62.5707 202.753 62.544 202.844 62.544H203.564V65.336H205.908V66.368H203.564V71.232C203.564 71.5734 203.646 71.8267 203.812 71.992C203.977 72.1574 204.19 72.24 204.452 72.24C204.601 72.24 204.729 72.2214 204.836 72.184C204.948 72.1414 205.044 72.096 205.124 72.048C205.204 72 205.27 71.9574 205.324 71.92C205.382 71.8774 205.433 71.856 205.476 71.856C205.55 71.856 205.617 71.9014 205.676 71.992L206.092 72.672C205.846 72.9014 205.55 73.0827 205.204 73.216C204.857 73.344 204.5 73.408 204.132 73.408ZM212.098 66.512C212.034 66.6294 211.935 66.688 211.802 66.688C211.722 66.688 211.631 66.6587 211.53 66.6C211.429 66.5414 211.303 66.4774 211.154 66.408C211.01 66.3334 210.837 66.2667 210.634 66.208C210.431 66.144 210.191 66.112 209.914 66.112C209.674 66.112 209.458 66.144 209.266 66.208C209.074 66.2667 208.909 66.3494 208.77 66.456C208.637 66.5627 208.533 66.688 208.458 66.832C208.389 66.9707 208.354 67.1227 208.354 67.288C208.354 67.496 208.413 67.6694 208.53 67.808C208.653 67.9467 208.813 68.0667 209.01 68.168C209.207 68.2694 209.431 68.36 209.682 68.44C209.933 68.5147 210.189 68.5974 210.45 68.688C210.717 68.7734 210.975 68.8694 211.226 68.976C211.477 69.0827 211.701 69.216 211.898 69.376C212.095 69.536 212.253 69.7334 212.37 69.968C212.493 70.1974 212.554 70.4747 212.554 70.8C212.554 71.1734 212.487 71.52 212.354 71.84C212.221 72.1547 212.023 72.4294 211.762 72.664C211.501 72.8934 211.181 73.0747 210.802 73.208C210.423 73.3414 209.986 73.408 209.49 73.408C208.925 73.408 208.413 73.3174 207.954 73.136C207.495 72.9494 207.106 72.712 206.786 72.424L207.122 71.88C207.165 71.8107 207.215 71.7574 207.274 71.72C207.333 71.6827 207.407 71.664 207.498 71.664C207.594 71.664 207.695 71.7014 207.802 71.776C207.909 71.8507 208.037 71.9334 208.186 72.024C208.341 72.1147 208.527 72.1974 208.746 72.272C208.965 72.3467 209.237 72.384 209.562 72.384C209.839 72.384 210.082 72.3494 210.29 72.28C210.498 72.2054 210.671 72.1067 210.81 71.984C210.949 71.8614 211.05 71.72 211.114 71.56C211.183 71.4 211.218 71.2294 211.218 71.048C211.218 70.824 211.157 70.64 211.034 70.496C210.917 70.3467 210.759 70.2214 210.562 70.12C210.365 70.0134 210.138 69.9227 209.882 69.848C209.631 69.768 209.373 69.6854 209.106 69.6C208.845 69.5147 208.586 69.4187 208.33 69.312C208.079 69.2 207.855 69.0614 207.658 68.896C207.461 68.7307 207.301 68.528 207.178 68.288C207.061 68.0427 207.002 67.7467 207.002 67.4C207.002 67.0907 207.066 66.7947 207.194 66.512C207.322 66.224 207.509 65.9734 207.754 65.76C207.999 65.5414 208.301 65.368 208.658 65.24C209.015 65.112 209.423 65.048 209.882 65.048C210.415 65.048 210.893 65.1334 211.314 65.304C211.741 65.4694 212.109 65.6987 212.418 65.992L212.098 66.512Z" fill="#ADADAD"/>
<defs>
<clipPath id="clip0_8336_1025">
<rect width="60" height="60" fill="white" transform="translate(20 20.48)"/>
</clipPath>
<clipPath id="clip1_8336_1025">
<rect width="60" height="60" fill="white" transform="translate(20 20.48)"/>
</clipPath>
<clipPath id="clip2_8336_1025">
<rect width="60" height="60" fill="white" transform="translate(20 20.48)"/>
</clipPath>
</defs>
</svg>
