<svg width="321" height="108" viewBox="0 0 321 108" fill="none" xmlns="http://www.w3.org/2000/svg">
<rect y="0.47998" width="321" height="107" rx="10" fill="#F4F6FA"/>
<g clip-path="url(#clip0_8336_1009)">
<g clip-path="url(#clip1_8336_1009)">
<g clip-path="url(#clip2_8336_1009)">
<mask id="mask0_8336_1009" style="mask-type:luminance" maskUnits="userSpaceOnUse" x="20" y="20" width="60" height="60">
<path d="M79.6292 20.48H20.3242V79.785H79.6292V20.48Z" fill="white"/>
</mask>
<g mask="url(#mask0_8336_1009)">
<path d="M60.286 77.9087C68.807 77.9087 75.7146 71.0011 75.7146 62.4801C75.7146 53.9591 68.807 47.0515 60.286 47.0515C51.765 47.0515 44.8574 53.9591 44.8574 62.4801C44.8574 71.0011 51.765 77.9087 60.286 77.9087Z" fill="#FDC040"/>
<path d="M63.4066 46.1526V34.9294C63.4066 34.6081 63.2583 34.3113 63.0483 34.0764L50.4654 20.8632C50.2305 20.6162 49.8966 20.48 49.5632 20.48H29.6133C25.9302 20.48 22.9883 23.4834 22.9883 27.1669V64.8909C22.9883 68.5744 25.9302 71.5285 29.6133 71.5285H45.3607C48.3392 76.4726 53.7534 79.785 59.9209 79.785C69.2901 79.785 76.9412 72.171 76.9412 62.7897C76.9539 54.5947 71.07 47.7472 63.4066 46.1526ZM50.7993 24.8186L59.2413 33.7054H53.7657C52.1341 33.7054 50.7993 32.3584 50.7993 30.7269V24.8186ZM29.6133 69.0562C27.3021 69.0562 25.4605 67.2021 25.4605 64.8909V27.1669C25.4605 24.8431 27.3021 22.9522 29.6133 22.9522H48.327V30.7269C48.327 33.7303 50.7621 36.1777 53.7657 36.1777H60.9345V45.8309C60.5638 45.8188 60.267 45.7816 59.9458 45.7816C55.632 45.7816 51.6644 47.4381 48.6732 50.0338H32.9755C32.2954 50.0338 31.7393 50.59 31.7393 51.2695C31.7393 51.9496 32.2954 52.5057 32.9755 52.5057H46.3742C45.4964 53.7418 44.767 54.9779 44.1987 56.3375H32.9755C32.2954 56.3375 31.7393 56.8936 31.7393 57.5737C31.7393 58.2532 32.2954 58.8098 32.9755 58.8098H43.3952C43.0862 60.046 42.9255 61.4178 42.9255 62.7897C42.9255 65.0144 43.3581 67.2148 44.1368 69.0689H29.6133V69.0562ZM59.9336 77.3254C51.9241 77.3254 45.41 70.8113 45.41 62.8018C45.41 54.7924 51.9114 48.2783 59.9336 48.2783C67.9552 48.2783 74.4567 54.7924 74.4567 62.8018C74.4567 70.8113 67.9431 77.3254 59.9336 77.3254Z" fill="#3BB77E"/>
<path d="M32.9763 46.3133H45.4973C46.1773 46.3133 46.7335 45.7568 46.7335 45.0772C46.7335 44.3972 46.1773 43.8411 45.4973 43.8411H32.9763C32.2963 43.8411 31.7402 44.3972 31.7402 45.0772C31.7402 45.7568 32.2963 46.3133 32.9763 46.3133Z" fill="#3BB77E"/>
<path d="M59.5246 55.1755C59.6237 55.2 59.7223 55.2126 59.8214 55.2126C59.9449 55.2126 60.0563 55.2 60.1675 55.1628C61.7991 55.299 63.0724 56.6587 63.0724 58.3152C63.0724 58.9948 63.6284 59.5508 64.308 59.5508C64.9881 59.5508 65.5441 58.9948 65.5441 58.3152C65.5441 55.5959 63.6162 53.3214 61.0575 52.7898V51.9988C61.0575 51.3187 60.501 50.7627 59.8214 50.7627C59.1413 50.7627 58.5852 51.3187 58.5852 51.9988V52.8395C56.1131 53.4327 54.2715 55.6701 54.2715 58.3152C54.2715 61.4299 56.8053 63.9515 59.9078 63.9515C61.6507 63.9515 63.0724 65.3727 63.0724 67.1155C63.0724 68.8584 61.6629 70.2923 59.9078 70.2923C58.165 70.2923 56.7437 68.8706 56.7437 67.1278C56.7437 66.4482 56.1872 65.8916 55.5077 65.8916C54.8276 65.8916 54.2715 66.4482 54.2715 67.1278C54.2715 69.7855 56.1131 72.0102 58.5852 72.6035V73.8767C58.5852 74.5567 59.1413 75.1128 59.8214 75.1128C60.501 75.1128 61.0575 74.5567 61.0575 73.8767V72.6406C63.6162 72.1089 65.5441 69.8348 65.5441 67.1155C65.5441 64.0008 63.0103 61.4792 59.9078 61.4792C58.165 61.4792 56.7437 60.0576 56.7437 58.3152C56.7437 56.708 57.955 55.3611 59.5246 55.1755Z" fill="#3BB77E"/>
</g>
</g>
</g>
</g>
<path d="M107.308 45.8699C106.396 45.8699 105.544 45.7079 104.752 45.3839C103.96 45.0479 103.264 44.5859 102.664 43.9979C102.076 43.3979 101.614 42.7079 101.278 41.9279C100.942 41.1479 100.774 40.3019 100.774 39.3899C100.774 38.4779 100.942 37.6319 101.278 36.8519C101.614 36.0719 102.076 35.3879 102.664 34.7999C103.264 34.1999 103.96 33.7379 104.752 33.4139C105.544 33.0779 106.396 32.9099 107.308 32.9099C107.896 32.9099 108.466 32.9759 109.018 33.1079C109.57 33.2399 110.068 33.4319 110.512 33.6839C110.668 33.7679 110.782 33.8819 110.854 34.0259C110.926 34.1579 110.962 34.2899 110.962 34.4219C110.962 34.6739 110.878 34.8959 110.71 35.0879C110.554 35.2679 110.356 35.3579 110.116 35.3579C110.032 35.3579 109.942 35.3459 109.846 35.3219C109.762 35.2979 109.684 35.2679 109.612 35.2319C109.276 35.0639 108.916 34.9379 108.532 34.8539C108.148 34.7579 107.74 34.7099 107.308 34.7099C106.444 34.7099 105.664 34.9199 104.968 35.3399C104.272 35.7479 103.72 36.3059 103.312 37.0139C102.916 37.7219 102.718 38.5139 102.718 39.3899C102.718 40.2539 102.916 41.0459 103.312 41.7659C103.72 42.4739 104.272 43.0379 104.968 43.4579C105.664 43.8659 106.444 44.0699 107.308 44.0699C107.728 44.0699 108.172 44.0219 108.64 43.9259C109.108 43.8179 109.504 43.6799 109.828 43.5119L109.684 43.9979V40.5779L109.972 40.8299H107.614C107.35 40.8299 107.128 40.7459 106.948 40.5779C106.78 40.4099 106.696 40.1939 106.696 39.9299C106.696 39.6659 106.78 39.4499 106.948 39.2819C107.128 39.1139 107.35 39.0299 107.614 39.0299H110.728C110.98 39.0299 111.19 39.1199 111.358 39.2999C111.538 39.4679 111.628 39.6839 111.628 39.9479V43.9439C111.628 44.1359 111.58 44.2979 111.484 44.4299C111.388 44.5619 111.28 44.6699 111.16 44.7539C110.62 45.0899 110.02 45.3599 109.36 45.5639C108.712 45.7679 108.028 45.8699 107.308 45.8699ZM114.693 45.6899C114.429 45.6899 114.213 45.6059 114.045 45.4379C113.877 45.2579 113.793 45.0359 113.793 44.7719V37.1399C113.793 36.8759 113.877 36.6599 114.045 36.4919C114.213 36.3119 114.429 36.2219 114.693 36.2219C114.945 36.2219 115.155 36.3119 115.323 36.4919C115.503 36.6599 115.593 36.8759 115.593 37.1399V39.1559L115.413 38.3819C115.509 38.0459 115.653 37.7339 115.845 37.4459C116.049 37.1579 116.289 36.9059 116.565 36.6899C116.841 36.4739 117.147 36.3059 117.483 36.1859C117.831 36.0659 118.191 36.0059 118.563 36.0059C118.875 36.0059 119.145 36.0899 119.373 36.2579C119.601 36.4259 119.715 36.6359 119.715 36.8879C119.715 37.2119 119.631 37.4519 119.463 37.6079C119.295 37.7519 119.109 37.8239 118.905 37.8239C118.725 37.8239 118.551 37.7879 118.383 37.7159C118.215 37.6319 118.017 37.5899 117.789 37.5899C117.537 37.5899 117.279 37.6559 117.015 37.7879C116.751 37.9199 116.511 38.1179 116.295 38.3819C116.079 38.6339 115.905 38.9339 115.773 39.2819C115.653 39.6299 115.593 40.0199 115.593 40.4519V44.7719C115.593 45.0359 115.503 45.2579 115.323 45.4379C115.155 45.6059 114.945 45.6899 114.693 45.6899ZM125.322 45.8699C124.326 45.8699 123.462 45.6659 122.73 45.2579C121.998 44.8379 121.428 44.2679 121.02 43.5479C120.624 42.8159 120.426 41.9819 120.426 41.0459C120.426 39.9899 120.636 39.0899 121.056 38.3459C121.488 37.5899 122.046 37.0139 122.73 36.6179C123.414 36.2099 124.14 36.0059 124.908 36.0059C125.496 36.0059 126.054 36.1259 126.582 36.3659C127.11 36.5939 127.578 36.9179 127.986 37.3379C128.406 37.7459 128.736 38.2319 128.976 38.7959C129.216 39.3479 129.342 39.9539 129.354 40.6139C129.342 40.8539 129.246 41.0519 129.066 41.2079C128.886 41.3639 128.676 41.4419 128.436 41.4419H121.434L121.002 39.9119H127.77L127.428 40.2359V39.7859C127.404 39.3659 127.266 38.9999 127.014 38.6879C126.762 38.3639 126.45 38.1179 126.078 37.9499C125.706 37.7699 125.316 37.6799 124.908 37.6799C124.548 37.6799 124.2 37.7399 123.864 37.8599C123.54 37.9679 123.246 38.1479 122.982 38.3999C122.73 38.6519 122.526 38.9879 122.37 39.4079C122.226 39.8159 122.154 40.3259 122.154 40.9379C122.154 41.5979 122.292 42.1739 122.568 42.6659C122.844 43.1579 123.216 43.5419 123.684 43.8179C124.152 44.0819 124.668 44.2139 125.232 44.2139C125.676 44.2139 126.042 44.1719 126.33 44.0879C126.618 43.9919 126.858 43.8779 127.05 43.7459C127.242 43.6139 127.41 43.4879 127.554 43.3679C127.734 43.2599 127.914 43.2059 128.094 43.2059C128.31 43.2059 128.49 43.2839 128.634 43.4399C128.778 43.5839 128.85 43.7579 128.85 43.9619C128.85 44.2259 128.718 44.4659 128.454 44.6819C128.13 44.9939 127.68 45.2699 127.104 45.5099C126.54 45.7499 125.946 45.8699 125.322 45.8699ZM139.217 36.0779C139.481 36.0779 139.697 36.1679 139.865 36.3479C140.033 36.5159 140.117 36.7319 140.117 36.9959V44.7719C140.117 45.0359 140.033 45.2579 139.865 45.4379C139.697 45.6059 139.481 45.6899 139.217 45.6899C138.965 45.6899 138.749 45.6059 138.569 45.4379C138.401 45.2579 138.317 45.0359 138.317 44.7719V43.4759L138.695 43.5299C138.695 43.7459 138.605 43.9859 138.425 44.2499C138.257 44.5139 138.023 44.7719 137.723 45.0239C137.423 45.2639 137.069 45.4679 136.661 45.6359C136.253 45.7919 135.815 45.8699 135.347 45.8699C134.519 45.8699 133.775 45.6599 133.115 45.2399C132.455 44.8079 131.933 44.2199 131.549 43.4759C131.165 42.7319 130.973 41.8859 130.973 40.9379C130.973 39.9659 131.165 39.1139 131.549 38.3819C131.933 37.6379 132.449 37.0559 133.097 36.6359C133.757 36.2159 134.489 36.0059 135.293 36.0059C135.809 36.0059 136.283 36.0899 136.715 36.2579C137.159 36.4259 137.543 36.6419 137.867 36.9059C138.191 37.1699 138.437 37.4519 138.605 37.7519C138.785 38.0399 138.875 38.3159 138.875 38.5799L138.317 38.6339V36.9959C138.317 36.7439 138.401 36.5279 138.569 36.3479C138.749 36.1679 138.965 36.0779 139.217 36.0779ZM135.545 44.2139C136.109 44.2139 136.607 44.0699 137.039 43.7819C137.471 43.4939 137.807 43.1039 138.047 42.6119C138.287 42.1079 138.407 41.5499 138.407 40.9379C138.407 40.3139 138.287 39.7559 138.047 39.2639C137.807 38.7719 137.471 38.3819 137.039 38.0939C136.607 37.8059 136.109 37.6619 135.545 37.6619C134.993 37.6619 134.501 37.8059 134.069 38.0939C133.649 38.3819 133.313 38.7719 133.061 39.2639C132.821 39.7559 132.701 40.3139 132.701 40.9379C132.701 41.5499 132.821 42.1079 133.061 42.6119C133.313 43.1039 133.649 43.4939 134.069 43.7819C134.501 44.0699 134.993 44.2139 135.545 44.2139ZM142.513 36.3299H146.743C146.983 36.3299 147.181 36.4139 147.337 36.5819C147.505 36.7379 147.589 36.9359 147.589 37.1759C147.589 37.4039 147.505 37.5959 147.337 37.7519C147.181 37.9079 146.983 37.9859 146.743 37.9859H142.513C142.273 37.9859 142.069 37.9079 141.901 37.7519C141.745 37.5839 141.667 37.3859 141.667 37.1579C141.667 36.9179 141.745 36.7199 141.901 36.5639C142.069 36.4079 142.273 36.3299 142.513 36.3299ZM144.403 33.9899C144.667 33.9899 144.883 34.0799 145.051 34.2599C145.219 34.4279 145.303 34.6439 145.303 34.9079V43.2599C145.303 43.4759 145.339 43.6499 145.411 43.7819C145.483 43.9139 145.579 44.0039 145.699 44.0519C145.831 44.0999 145.963 44.1239 146.095 44.1239C146.227 44.1239 146.341 44.0999 146.437 44.0519C146.545 44.0039 146.671 43.9799 146.815 43.9799C146.959 43.9799 147.091 44.0459 147.211 44.1779C147.331 44.3099 147.391 44.4899 147.391 44.7179C147.391 45.0059 147.235 45.2399 146.923 45.4199C146.611 45.5999 146.275 45.6899 145.915 45.6899C145.711 45.6899 145.471 45.6719 145.195 45.6359C144.919 45.5999 144.649 45.5099 144.385 45.3659C144.133 45.2219 143.923 44.9939 143.755 44.6819C143.587 44.3579 143.503 43.9079 143.503 43.3319V34.9079C143.503 34.6439 143.587 34.4279 143.755 34.2599C143.935 34.0799 144.151 33.9899 144.403 33.9899ZM162.35 32.3699C162.614 32.3699 162.83 32.4539 162.998 32.6219C163.166 32.7899 163.25 33.0119 163.25 33.2879V44.7719C163.25 45.0359 163.166 45.2579 162.998 45.4379C162.83 45.6059 162.614 45.6899 162.35 45.6899C162.098 45.6899 161.882 45.6059 161.702 45.4379C161.534 45.2579 161.45 45.0359 161.45 44.7719V43.4759L161.828 43.4939C161.828 43.7099 161.738 43.9559 161.558 44.2319C161.39 44.4959 161.156 44.7539 160.856 45.0059C160.556 45.2579 160.202 45.4679 159.794 45.6359C159.386 45.7919 158.948 45.8699 158.48 45.8699C157.652 45.8699 156.908 45.6599 156.248 45.2399C155.588 44.8079 155.066 44.2259 154.682 43.4939C154.298 42.7499 154.106 41.8979 154.106 40.9379C154.106 39.9779 154.298 39.1319 154.682 38.3999C155.066 37.6559 155.582 37.0739 156.23 36.6539C156.89 36.2219 157.622 36.0059 158.426 36.0059C158.93 36.0059 159.398 36.0899 159.83 36.2579C160.274 36.4259 160.658 36.6419 160.982 36.9059C161.306 37.1699 161.558 37.4519 161.738 37.7519C161.918 38.0399 162.008 38.3159 162.008 38.5799L161.45 38.6339V33.2879C161.45 33.0239 161.534 32.8079 161.702 32.6399C161.882 32.4599 162.098 32.3699 162.35 32.3699ZM158.678 44.2139C159.254 44.2139 159.752 44.0699 160.172 43.7819C160.604 43.4939 160.94 43.1039 161.18 42.6119C161.42 42.1199 161.54 41.5619 161.54 40.9379C161.54 40.3139 161.42 39.7559 161.18 39.2639C160.94 38.7719 160.604 38.3819 160.172 38.0939C159.74 37.8059 159.242 37.6619 158.678 37.6619C158.126 37.6619 157.634 37.8059 157.202 38.0939C156.782 38.3819 156.446 38.7719 156.194 39.2639C155.954 39.7559 155.834 40.3139 155.834 40.9379C155.834 41.5619 155.954 42.1199 156.194 42.6119C156.446 43.1039 156.782 43.4939 157.202 43.7819C157.634 44.0699 158.126 44.2139 158.678 44.2139ZM173.53 36.0779C173.794 36.0779 174.01 36.1679 174.178 36.3479C174.346 36.5159 174.43 36.7319 174.43 36.9959V44.7719C174.43 45.0359 174.346 45.2579 174.178 45.4379C174.01 45.6059 173.794 45.6899 173.53 45.6899C173.278 45.6899 173.062 45.6059 172.882 45.4379C172.714 45.2579 172.63 45.0359 172.63 44.7719V43.4759L173.008 43.5299C173.008 43.7459 172.918 43.9859 172.738 44.2499C172.57 44.5139 172.336 44.7719 172.036 45.0239C171.736 45.2639 171.382 45.4679 170.974 45.6359C170.566 45.7919 170.128 45.8699 169.66 45.8699C168.832 45.8699 168.088 45.6599 167.428 45.2399C166.768 44.8079 166.246 44.2199 165.862 43.4759C165.478 42.7319 165.286 41.8859 165.286 40.9379C165.286 39.9659 165.478 39.1139 165.862 38.3819C166.246 37.6379 166.762 37.0559 167.41 36.6359C168.07 36.2159 168.802 36.0059 169.606 36.0059C170.122 36.0059 170.596 36.0899 171.028 36.2579C171.472 36.4259 171.856 36.6419 172.18 36.9059C172.504 37.1699 172.75 37.4519 172.918 37.7519C173.098 38.0399 173.188 38.3159 173.188 38.5799L172.63 38.6339V36.9959C172.63 36.7439 172.714 36.5279 172.882 36.3479C173.062 36.1679 173.278 36.0779 173.53 36.0779ZM169.858 44.2139C170.422 44.2139 170.92 44.0699 171.352 43.7819C171.784 43.4939 172.12 43.1039 172.36 42.6119C172.6 42.1079 172.72 41.5499 172.72 40.9379C172.72 40.3139 172.6 39.7559 172.36 39.2639C172.12 38.7719 171.784 38.3819 171.352 38.0939C170.92 37.8059 170.422 37.6619 169.858 37.6619C169.306 37.6619 168.814 37.8059 168.382 38.0939C167.962 38.3819 167.626 38.7719 167.374 39.2639C167.134 39.7559 167.014 40.3139 167.014 40.9379C167.014 41.5499 167.134 42.1079 167.374 42.6119C167.626 43.1039 167.962 43.4939 168.382 43.7819C168.814 44.0699 169.306 44.2139 169.858 44.2139ZM178.643 44.7719C178.643 45.0359 178.559 45.2579 178.391 45.4379C178.223 45.6059 178.007 45.6899 177.743 45.6899C177.491 45.6899 177.275 45.6059 177.095 45.4379C176.927 45.2579 176.843 45.0359 176.843 44.7719V37.0679C176.843 36.8039 176.927 36.5879 177.095 36.4199C177.275 36.2399 177.491 36.1499 177.743 36.1499C178.007 36.1499 178.223 36.2399 178.391 36.4199C178.559 36.5879 178.643 36.8039 178.643 37.0679V44.7719ZM177.725 34.9619C177.377 34.9619 177.125 34.9019 176.969 34.7819C176.813 34.6499 176.735 34.4339 176.735 34.1339V33.8459C176.735 33.5459 176.819 33.3359 176.987 33.2159C177.155 33.0959 177.407 33.0359 177.743 33.0359C178.103 33.0359 178.361 33.1019 178.517 33.2339C178.673 33.3539 178.751 33.5579 178.751 33.8459V34.1339C178.751 34.4459 178.667 34.6619 178.499 34.7819C178.343 34.9019 178.085 34.9619 177.725 34.9619ZM183.009 44.7719C183.009 45.0359 182.919 45.2579 182.739 45.4379C182.571 45.6059 182.361 45.6899 182.109 45.6899C181.857 45.6899 181.641 45.6059 181.461 45.4379C181.293 45.2579 181.209 45.0359 181.209 44.7719V33.2879C181.209 33.0239 181.299 32.8079 181.479 32.6399C181.659 32.4599 181.875 32.3699 182.127 32.3699C182.391 32.3699 182.601 32.4599 182.757 32.6399C182.925 32.8079 183.009 33.0239 183.009 33.2879V44.7719ZM192.462 36.1499C192.726 36.1499 192.942 36.2399 193.11 36.4199C193.278 36.5879 193.362 36.8039 193.362 37.0679V44.8079C193.362 45.8639 193.158 46.7219 192.75 47.3819C192.354 48.0419 191.814 48.5219 191.13 48.8219C190.458 49.1339 189.696 49.2899 188.844 49.2899C188.412 49.2899 187.98 49.2479 187.548 49.1639C187.116 49.0919 186.762 48.9839 186.486 48.8399C186.198 48.7079 185.994 48.5459 185.874 48.3539C185.754 48.1619 185.736 47.9519 185.82 47.7239C185.904 47.4359 186.048 47.2379 186.252 47.1299C186.456 47.0339 186.666 47.0279 186.882 47.1119C187.086 47.1959 187.356 47.3039 187.692 47.4359C188.028 47.5679 188.412 47.6339 188.844 47.6339C189.432 47.6339 189.93 47.5379 190.338 47.3459C190.746 47.1539 191.052 46.8539 191.256 46.4459C191.472 46.0379 191.58 45.5099 191.58 44.8619V43.6199L191.868 44.0519C191.676 44.4479 191.424 44.7779 191.112 45.0419C190.8 45.3059 190.428 45.5099 189.996 45.6539C189.576 45.7979 189.108 45.8699 188.592 45.8699C187.932 45.8699 187.362 45.7259 186.882 45.4379C186.414 45.1379 186.054 44.7299 185.802 44.2139C185.55 43.6859 185.424 43.0859 185.424 42.4139V37.0679C185.424 36.8039 185.508 36.5879 185.676 36.4199C185.844 36.2399 186.06 36.1499 186.324 36.1499C186.576 36.1499 186.786 36.2399 186.954 36.4199C187.134 36.5879 187.224 36.8039 187.224 37.0679V41.9279C187.224 42.7199 187.398 43.3019 187.746 43.6739C188.094 44.0339 188.61 44.2139 189.294 44.2139C189.75 44.2139 190.146 44.1179 190.482 43.9259C190.818 43.7339 191.082 43.4699 191.274 43.1339C191.466 42.7859 191.562 42.3839 191.562 41.9279V37.0679C191.562 36.8039 191.646 36.5879 191.814 36.4199C191.994 36.2399 192.21 36.1499 192.462 36.1499ZM208.651 32.3699C208.915 32.3699 209.131 32.4539 209.299 32.6219C209.467 32.7899 209.551 33.0119 209.551 33.2879V44.7719C209.551 45.0359 209.467 45.2579 209.299 45.4379C209.131 45.6059 208.915 45.6899 208.651 45.6899C208.399 45.6899 208.183 45.6059 208.003 45.4379C207.835 45.2579 207.751 45.0359 207.751 44.7719V43.4759L208.129 43.4939C208.129 43.7099 208.039 43.9559 207.859 44.2319C207.691 44.4959 207.457 44.7539 207.157 45.0059C206.857 45.2579 206.503 45.4679 206.095 45.6359C205.687 45.7919 205.249 45.8699 204.781 45.8699C203.953 45.8699 203.209 45.6599 202.549 45.2399C201.889 44.8079 201.367 44.2259 200.983 43.4939C200.599 42.7499 200.407 41.8979 200.407 40.9379C200.407 39.9779 200.599 39.1319 200.983 38.3999C201.367 37.6559 201.883 37.0739 202.531 36.6539C203.191 36.2219 203.923 36.0059 204.727 36.0059C205.231 36.0059 205.699 36.0899 206.131 36.2579C206.575 36.4259 206.959 36.6419 207.283 36.9059C207.607 37.1699 207.859 37.4519 208.039 37.7519C208.219 38.0399 208.309 38.3159 208.309 38.5799L207.751 38.6339V33.2879C207.751 33.0239 207.835 32.8079 208.003 32.6399C208.183 32.4599 208.399 32.3699 208.651 32.3699ZM204.979 44.2139C205.555 44.2139 206.053 44.0699 206.473 43.7819C206.905 43.4939 207.241 43.1039 207.481 42.6119C207.721 42.1199 207.841 41.5619 207.841 40.9379C207.841 40.3139 207.721 39.7559 207.481 39.2639C207.241 38.7719 206.905 38.3819 206.473 38.0939C206.041 37.8059 205.543 37.6619 204.979 37.6619C204.427 37.6619 203.935 37.8059 203.503 38.0939C203.083 38.3819 202.747 38.7719 202.495 39.2639C202.255 39.7559 202.135 40.3139 202.135 40.9379C202.135 41.5619 202.255 42.1199 202.495 42.6119C202.747 43.1039 203.083 43.4939 203.503 43.7819C203.935 44.0699 204.427 44.2139 204.979 44.2139ZM216.483 45.8699C215.487 45.8699 214.623 45.6659 213.891 45.2579C213.159 44.8379 212.589 44.2679 212.181 43.5479C211.785 42.8159 211.587 41.9819 211.587 41.0459C211.587 39.9899 211.797 39.0899 212.217 38.3459C212.649 37.5899 213.207 37.0139 213.891 36.6179C214.575 36.2099 215.301 36.0059 216.069 36.0059C216.657 36.0059 217.215 36.1259 217.743 36.3659C218.271 36.5939 218.739 36.9179 219.147 37.3379C219.567 37.7459 219.897 38.2319 220.137 38.7959C220.377 39.3479 220.503 39.9539 220.515 40.6139C220.503 40.8539 220.407 41.0519 220.227 41.2079C220.047 41.3639 219.837 41.4419 219.597 41.4419H212.595L212.163 39.9119H218.931L218.589 40.2359V39.7859C218.565 39.3659 218.427 38.9999 218.175 38.6879C217.923 38.3639 217.611 38.1179 217.239 37.9499C216.867 37.7699 216.477 37.6799 216.069 37.6799C215.709 37.6799 215.361 37.7399 215.025 37.8599C214.701 37.9679 214.407 38.1479 214.143 38.3999C213.891 38.6519 213.687 38.9879 213.531 39.4079C213.387 39.8159 213.315 40.3259 213.315 40.9379C213.315 41.5979 213.453 42.1739 213.729 42.6659C214.005 43.1579 214.377 43.5419 214.845 43.8179C215.313 44.0819 215.829 44.2139 216.393 44.2139C216.837 44.2139 217.203 44.1719 217.491 44.0879C217.779 43.9919 218.019 43.8779 218.211 43.7459C218.403 43.6139 218.571 43.4879 218.715 43.3679C218.895 43.2599 219.075 43.2059 219.255 43.2059C219.471 43.2059 219.651 43.2839 219.795 43.4399C219.939 43.5839 220.011 43.7579 220.011 43.9619C220.011 44.2259 219.879 44.4659 219.615 44.6819C219.291 44.9939 218.841 45.2699 218.265 45.5099C217.701 45.7499 217.107 45.8699 216.483 45.8699ZM230.377 36.0779C230.641 36.0779 230.857 36.1679 231.025 36.3479C231.193 36.5159 231.277 36.7319 231.277 36.9959V44.7719C231.277 45.0359 231.193 45.2579 231.025 45.4379C230.857 45.6059 230.641 45.6899 230.377 45.6899C230.125 45.6899 229.909 45.6059 229.729 45.4379C229.561 45.2579 229.477 45.0359 229.477 44.7719V43.4759L229.855 43.5299C229.855 43.7459 229.765 43.9859 229.585 44.2499C229.417 44.5139 229.183 44.7719 228.883 45.0239C228.583 45.2639 228.229 45.4679 227.821 45.6359C227.413 45.7919 226.975 45.8699 226.507 45.8699C225.679 45.8699 224.935 45.6599 224.275 45.2399C223.615 44.8079 223.093 44.2199 222.709 43.4759C222.325 42.7319 222.133 41.8859 222.133 40.9379C222.133 39.9659 222.325 39.1139 222.709 38.3819C223.093 37.6379 223.609 37.0559 224.257 36.6359C224.917 36.2159 225.649 36.0059 226.453 36.0059C226.969 36.0059 227.443 36.0899 227.875 36.2579C228.319 36.4259 228.703 36.6419 229.027 36.9059C229.351 37.1699 229.597 37.4519 229.765 37.7519C229.945 38.0399 230.035 38.3159 230.035 38.5799L229.477 38.6339V36.9959C229.477 36.7439 229.561 36.5279 229.729 36.3479C229.909 36.1679 230.125 36.0779 230.377 36.0779ZM226.705 44.2139C227.269 44.2139 227.767 44.0699 228.199 43.7819C228.631 43.4939 228.967 43.1039 229.207 42.6119C229.447 42.1079 229.567 41.5499 229.567 40.9379C229.567 40.3139 229.447 39.7559 229.207 39.2639C228.967 38.7719 228.631 38.3819 228.199 38.0939C227.767 37.8059 227.269 37.6619 226.705 37.6619C226.153 37.6619 225.661 37.8059 225.229 38.0939C224.809 38.3819 224.473 38.7719 224.221 39.2639C223.981 39.7559 223.861 40.3139 223.861 40.9379C223.861 41.5499 223.981 42.1079 224.221 42.6119C224.473 43.1039 224.809 43.4939 225.229 43.7819C225.661 44.0699 226.153 44.2139 226.705 44.2139ZM235.743 44.7719C235.743 45.0359 235.653 45.2579 235.473 45.4379C235.305 45.6059 235.095 45.6899 234.843 45.6899C234.591 45.6899 234.375 45.6059 234.195 45.4379C234.027 45.2579 233.943 45.0359 233.943 44.7719V33.2879C233.943 33.0239 234.033 32.8079 234.213 32.6399C234.393 32.4599 234.609 32.3699 234.861 32.3699C235.125 32.3699 235.335 32.4599 235.491 32.6399C235.659 32.8079 235.743 33.0239 235.743 33.2879V44.7719Z" fill="#242424"/>
<path d="M116.32 61.816L112.744 73.28H111.352L108.448 64.536C108.421 64.4507 108.395 64.36 108.368 64.264C108.347 64.168 108.323 64.0667 108.296 63.96C108.269 64.0667 108.243 64.168 108.216 64.264C108.189 64.36 108.163 64.4507 108.136 64.536L105.216 73.28H103.824L100.248 61.816H101.536C101.675 61.816 101.789 61.8507 101.88 61.92C101.976 61.9894 102.037 62.0774 102.064 62.184L104.432 70.152C104.469 70.296 104.504 70.4507 104.536 70.616C104.573 70.7814 104.608 70.9574 104.64 71.144C104.677 70.9574 104.715 70.7814 104.752 70.616C104.795 70.4454 104.84 70.2907 104.888 70.152L107.584 62.184C107.616 62.0934 107.677 62.0107 107.768 61.936C107.864 61.856 107.979 61.816 108.112 61.816H108.56C108.699 61.816 108.811 61.8507 108.896 61.92C108.981 61.9894 109.045 62.0774 109.088 62.184L111.776 70.152C111.824 70.2907 111.867 70.44 111.904 70.6C111.947 70.76 111.987 70.928 112.024 71.104C112.051 70.928 112.08 70.76 112.112 70.6C112.144 70.44 112.179 70.2907 112.216 70.152L114.592 62.184C114.619 62.088 114.677 62.0027 114.768 61.928C114.864 61.8534 114.979 61.816 115.112 61.816H116.32ZM119.044 66.256C119.391 65.888 119.775 65.5947 120.196 65.376C120.618 65.1574 121.103 65.048 121.652 65.048C122.095 65.048 122.484 65.1227 122.82 65.272C123.162 65.416 123.444 65.624 123.668 65.896C123.898 66.1627 124.071 66.4854 124.188 66.864C124.306 67.2427 124.364 67.6614 124.364 68.12V73.28H122.932V68.12C122.932 67.5067 122.791 67.032 122.508 66.696C122.231 66.3547 121.807 66.184 121.236 66.184C120.815 66.184 120.42 66.2854 120.052 66.488C119.69 66.6907 119.354 66.9654 119.044 67.312V73.28H117.612V61.496H119.044V66.256ZM131.958 68.344C131.958 68.0134 131.91 67.712 131.814 67.44C131.724 67.1627 131.588 66.9254 131.406 66.728C131.23 66.5254 131.014 66.3707 130.758 66.264C130.502 66.152 130.212 66.096 129.886 66.096C129.204 66.096 128.662 66.296 128.262 66.696C127.868 67.0907 127.622 67.64 127.526 68.344H131.958ZM133.11 72.144C132.934 72.3574 132.724 72.544 132.478 72.704C132.233 72.8587 131.969 72.9867 131.686 73.088C131.409 73.1894 131.121 73.264 130.822 73.312C130.524 73.3654 130.228 73.392 129.934 73.392C129.374 73.392 128.857 73.2987 128.382 73.112C127.913 72.92 127.505 72.6427 127.158 72.28C126.817 71.912 126.55 71.4587 126.358 70.92C126.166 70.3814 126.07 69.7627 126.07 69.064C126.07 68.4987 126.156 67.9707 126.326 67.48C126.502 66.9894 126.753 66.5654 127.078 66.208C127.404 65.8454 127.801 65.5627 128.27 65.36C128.74 65.152 129.268 65.048 129.854 65.048C130.34 65.048 130.788 65.1307 131.198 65.296C131.614 65.456 131.972 65.6907 132.27 66C132.574 66.304 132.812 66.6827 132.982 67.136C133.153 67.584 133.238 68.096 133.238 68.672C133.238 68.896 133.214 69.0454 133.166 69.12C133.118 69.1947 133.028 69.232 132.894 69.232H127.478C127.494 69.744 127.564 70.1894 127.686 70.568C127.814 70.9467 127.99 71.264 128.214 71.52C128.438 71.7707 128.705 71.96 129.014 72.088C129.324 72.2107 129.67 72.272 130.054 72.272C130.412 72.272 130.718 72.232 130.974 72.152C131.236 72.0667 131.46 71.976 131.646 71.88C131.833 71.784 131.988 71.696 132.11 71.616C132.238 71.5307 132.348 71.488 132.438 71.488C132.556 71.488 132.646 71.5334 132.71 71.624L133.11 72.144ZM136.331 66.352C136.507 66.1547 136.694 65.976 136.891 65.816C137.089 65.656 137.297 65.52 137.515 65.408C137.739 65.2907 137.974 65.2027 138.219 65.144C138.47 65.08 138.739 65.048 139.027 65.048C139.47 65.048 139.859 65.1227 140.195 65.272C140.537 65.416 140.819 65.624 141.043 65.896C141.273 66.1627 141.446 66.4854 141.563 66.864C141.681 67.2427 141.739 67.6614 141.739 68.12V73.28H140.307V68.12C140.307 67.5067 140.166 67.032 139.883 66.696C139.606 66.3547 139.182 66.184 138.611 66.184C138.19 66.184 137.795 66.2854 137.427 66.488C137.065 66.6907 136.729 66.9654 136.419 67.312V73.28H134.987V65.176H135.843C136.046 65.176 136.171 65.2747 136.219 65.472L136.331 66.352ZM154.589 65.176L150.069 75.672C150.021 75.7787 149.959 75.864 149.885 75.928C149.815 75.992 149.706 76.024 149.557 76.024H148.501L149.981 72.808L146.637 65.176H147.869C147.991 65.176 148.087 65.208 148.157 65.272C148.231 65.3307 148.282 65.3974 148.309 65.472L150.477 70.576C150.562 70.8 150.634 71.0347 150.693 71.28C150.767 71.0294 150.847 70.792 150.933 70.568L153.037 65.472C153.069 65.3867 153.122 65.3174 153.197 65.264C153.277 65.2054 153.365 65.176 153.461 65.176H154.589ZM159.044 65.048C159.636 65.048 160.169 65.1467 160.644 65.344C161.119 65.5414 161.524 65.8214 161.86 66.184C162.196 66.5467 162.452 66.9867 162.628 67.504C162.809 68.016 162.9 68.5894 162.9 69.224C162.9 69.864 162.809 70.44 162.628 70.952C162.452 71.464 162.196 71.9014 161.86 72.264C161.524 72.6267 161.119 72.9067 160.644 73.104C160.169 73.296 159.636 73.392 159.044 73.392C158.447 73.392 157.908 73.296 157.428 73.104C156.953 72.9067 156.548 72.6267 156.212 72.264C155.876 71.9014 155.617 71.464 155.436 70.952C155.26 70.44 155.172 69.864 155.172 69.224C155.172 68.5894 155.26 68.016 155.436 67.504C155.617 66.9867 155.876 66.5467 156.212 66.184C156.548 65.8214 156.953 65.5414 157.428 65.344C157.908 65.1467 158.447 65.048 159.044 65.048ZM159.044 72.28C159.844 72.28 160.441 72.0134 160.836 71.48C161.231 70.9414 161.428 70.192 161.428 69.232C161.428 68.2667 161.231 67.5147 160.836 66.976C160.441 66.4374 159.844 66.168 159.044 66.168C158.639 66.168 158.284 66.2374 157.98 66.376C157.681 66.5147 157.431 66.7147 157.228 66.976C157.031 67.2374 156.881 67.56 156.78 67.944C156.684 68.3227 156.636 68.752 156.636 69.232C156.636 70.192 156.833 70.9414 157.228 71.48C157.628 72.0134 158.233 72.28 159.044 72.28ZM171.37 65.176V73.28H170.522C170.319 73.28 170.191 73.1814 170.138 72.984L170.026 72.112C169.674 72.5014 169.279 72.816 168.842 73.056C168.405 73.2907 167.903 73.408 167.338 73.408C166.895 73.408 166.503 73.336 166.162 73.192C165.826 73.0427 165.543 72.8347 165.314 72.568C165.085 72.3014 164.911 71.9787 164.794 71.6C164.682 71.2214 164.626 70.8027 164.626 70.344V65.176H166.05V70.344C166.05 70.9574 166.189 71.432 166.466 71.768C166.749 72.104 167.178 72.272 167.754 72.272C168.175 72.272 168.567 72.1734 168.93 71.976C169.298 71.7734 169.637 71.496 169.946 71.144V65.176H171.37ZM182.442 66.512C182.378 66.6294 182.279 66.688 182.146 66.688C182.066 66.688 181.975 66.6587 181.874 66.6C181.772 66.5414 181.647 66.4774 181.498 66.408C181.354 66.3334 181.18 66.2667 180.978 66.208C180.775 66.144 180.535 66.112 180.258 66.112C180.018 66.112 179.802 66.144 179.61 66.208C179.418 66.2667 179.252 66.3494 179.114 66.456C178.98 66.5627 178.876 66.688 178.802 66.832C178.732 66.9707 178.698 67.1227 178.698 67.288C178.698 67.496 178.756 67.6694 178.874 67.808C178.996 67.9467 179.156 68.0667 179.354 68.168C179.551 68.2694 179.775 68.36 180.026 68.44C180.276 68.5147 180.532 68.5974 180.794 68.688C181.06 68.7734 181.319 68.8694 181.57 68.976C181.82 69.0827 182.044 69.216 182.242 69.376C182.439 69.536 182.596 69.7334 182.714 69.968C182.836 70.1974 182.898 70.4747 182.898 70.8C182.898 71.1734 182.831 71.52 182.698 71.84C182.564 72.1547 182.367 72.4294 182.106 72.664C181.844 72.8934 181.524 73.0747 181.146 73.208C180.767 73.3414 180.33 73.408 179.834 73.408C179.268 73.408 178.756 73.3174 178.298 73.136C177.839 72.9494 177.45 72.712 177.13 72.424L177.466 71.88C177.508 71.8107 177.559 71.7574 177.618 71.72C177.676 71.6827 177.751 71.664 177.842 71.664C177.938 71.664 178.039 71.7014 178.146 71.776C178.252 71.8507 178.38 71.9334 178.53 72.024C178.684 72.1147 178.871 72.1974 179.09 72.272C179.308 72.3467 179.58 72.384 179.906 72.384C180.183 72.384 180.426 72.3494 180.634 72.28C180.842 72.2054 181.015 72.1067 181.154 71.984C181.292 71.8614 181.394 71.72 181.458 71.56C181.527 71.4 181.562 71.2294 181.562 71.048C181.562 70.824 181.5 70.64 181.378 70.496C181.26 70.3467 181.103 70.2214 180.906 70.12C180.708 70.0134 180.482 69.9227 180.226 69.848C179.975 69.768 179.716 69.6854 179.45 69.6C179.188 69.5147 178.93 69.4187 178.674 69.312C178.423 69.2 178.199 69.0614 178.002 68.896C177.804 68.7307 177.644 68.528 177.522 68.288C177.404 68.0427 177.346 67.7467 177.346 67.4C177.346 67.0907 177.41 66.7947 177.538 66.512C177.666 66.224 177.852 65.9734 178.098 65.76C178.343 65.5414 178.644 65.368 179.002 65.24C179.359 65.112 179.767 65.048 180.226 65.048C180.759 65.048 181.236 65.1334 181.658 65.304C182.084 65.4694 182.452 65.6987 182.762 65.992L182.442 66.512ZM186.148 65.176V73.28H184.724V65.176H186.148ZM186.452 62.632C186.452 62.7707 186.422 62.9014 186.364 63.024C186.31 63.1414 186.236 63.248 186.14 63.344C186.049 63.4347 185.94 63.5067 185.812 63.56C185.689 63.6134 185.558 63.64 185.42 63.64C185.281 63.64 185.15 63.6134 185.028 63.56C184.91 63.5067 184.806 63.4347 184.716 63.344C184.625 63.248 184.553 63.1414 184.5 63.024C184.446 62.9014 184.42 62.7707 184.42 62.632C184.42 62.4934 184.446 62.3627 184.5 62.24C184.553 62.112 184.625 62.0027 184.716 61.912C184.806 61.816 184.91 61.7414 185.028 61.688C185.15 61.6347 185.281 61.608 185.42 61.608C185.558 61.608 185.689 61.6347 185.812 61.688C185.94 61.7414 186.049 61.816 186.14 61.912C186.236 62.0027 186.31 62.112 186.364 62.24C186.422 62.3627 186.452 62.4934 186.452 62.632ZM191.311 69.32C191.599 69.32 191.853 69.28 192.071 69.2C192.29 69.12 192.474 69.008 192.623 68.864C192.773 68.72 192.885 68.5494 192.959 68.352C193.034 68.1494 193.071 67.928 193.071 67.688C193.071 67.192 192.919 66.7974 192.615 66.504C192.317 66.2107 191.882 66.064 191.311 66.064C190.735 66.064 190.295 66.2107 189.991 66.504C189.693 66.7974 189.543 67.192 189.543 67.688C189.543 67.928 189.581 68.1494 189.655 68.352C189.735 68.5494 189.85 68.72 189.999 68.864C190.149 69.008 190.333 69.12 190.551 69.2C190.77 69.28 191.023 69.32 191.311 69.32ZM193.879 73.72C193.879 73.5227 193.823 73.3627 193.711 73.24C193.599 73.1174 193.447 73.0214 193.255 72.952C193.069 72.8827 192.85 72.8347 192.599 72.808C192.349 72.776 192.082 72.752 191.799 72.736C191.522 72.72 191.239 72.704 190.951 72.688C190.663 72.672 190.386 72.6454 190.119 72.608C189.821 72.7467 189.575 72.9227 189.383 73.136C189.197 73.344 189.103 73.5894 189.103 73.872C189.103 74.0534 189.149 74.2214 189.239 74.376C189.335 74.536 189.479 74.672 189.671 74.784C189.863 74.9014 190.103 74.992 190.391 75.056C190.685 75.1254 191.029 75.16 191.423 75.16C191.807 75.16 192.151 75.1254 192.455 75.056C192.759 74.9867 193.015 74.888 193.223 74.76C193.437 74.632 193.599 74.48 193.711 74.304C193.823 74.128 193.879 73.9334 193.879 73.72ZM195.327 65.496V66.024C195.327 66.2 195.215 66.312 194.991 66.36L194.071 66.48C194.253 66.832 194.343 67.2214 194.343 67.648C194.343 68.0427 194.266 68.4027 194.111 68.728C193.962 69.048 193.754 69.3227 193.487 69.552C193.221 69.7814 192.901 69.9574 192.527 70.08C192.154 70.2027 191.749 70.264 191.311 70.264C190.933 70.264 190.575 70.2187 190.239 70.128C190.069 70.2347 189.938 70.3494 189.847 70.472C189.757 70.5894 189.711 70.7094 189.711 70.832C189.711 71.024 189.789 71.1707 189.943 71.272C190.103 71.368 190.311 71.4374 190.567 71.48C190.823 71.5227 191.114 71.5494 191.439 71.56C191.77 71.5707 192.106 71.5894 192.447 71.616C192.794 71.6374 193.13 71.6774 193.455 71.736C193.786 71.7947 194.079 71.8907 194.335 72.024C194.591 72.1574 194.797 72.3414 194.951 72.576C195.111 72.8107 195.191 73.1147 195.191 73.488C195.191 73.8347 195.103 74.1707 194.927 74.496C194.757 74.8214 194.509 75.1094 194.183 75.36C193.858 75.616 193.458 75.8187 192.983 75.968C192.514 76.1227 191.983 76.2 191.391 76.2C190.799 76.2 190.282 76.1414 189.839 76.024C189.397 75.9067 189.029 75.7494 188.735 75.552C188.442 75.3547 188.221 75.1254 188.071 74.864C187.927 74.608 187.855 74.3387 187.855 74.056C187.855 73.656 187.981 73.3174 188.231 73.04C188.482 72.7627 188.826 72.5414 189.263 72.376C189.023 72.2694 188.831 72.128 188.687 71.952C188.549 71.7707 188.479 71.528 188.479 71.224C188.479 71.1067 188.501 70.9867 188.543 70.864C188.586 70.736 188.65 70.6107 188.735 70.488C188.826 70.36 188.935 70.24 189.063 70.128C189.191 70.016 189.341 69.9174 189.511 69.832C189.111 69.608 188.799 69.312 188.575 68.944C188.351 68.5707 188.239 68.1387 188.239 67.648C188.239 67.2534 188.314 66.896 188.463 66.576C188.618 66.2507 188.831 65.976 189.103 65.752C189.375 65.5227 189.698 65.3467 190.071 65.224C190.45 65.1014 190.863 65.04 191.311 65.04C191.663 65.04 191.991 65.08 192.295 65.16C192.599 65.2347 192.877 65.3467 193.127 65.496H195.327ZM198.144 66.352C198.32 66.1547 198.507 65.976 198.704 65.816C198.901 65.656 199.109 65.52 199.328 65.408C199.552 65.2907 199.787 65.2027 200.032 65.144C200.283 65.08 200.552 65.048 200.84 65.048C201.283 65.048 201.672 65.1227 202.008 65.272C202.349 65.416 202.632 65.624 202.856 65.896C203.085 66.1627 203.259 66.4854 203.376 66.864C203.493 67.2427 203.552 67.6614 203.552 68.12V73.28H202.12V68.12C202.12 67.5067 201.979 67.032 201.696 66.696C201.419 66.3547 200.995 66.184 200.424 66.184C200.003 66.184 199.608 66.2854 199.24 66.488C198.877 66.6907 198.541 66.9654 198.232 67.312V73.28H196.8V65.176H197.656C197.859 65.176 197.984 65.2747 198.032 65.472L198.144 66.352ZM216.48 65.176V73.28H215.632C215.429 73.28 215.301 73.1814 215.248 72.984L215.136 72.112C214.784 72.5014 214.389 72.816 213.952 73.056C213.514 73.2907 213.013 73.408 212.448 73.408C212.005 73.408 211.613 73.336 211.272 73.192C210.936 73.0427 210.653 72.8347 210.424 72.568C210.194 72.3014 210.021 71.9787 209.904 71.6C209.792 71.2214 209.736 70.8027 209.736 70.344V65.176H211.16V70.344C211.16 70.9574 211.298 71.432 211.576 71.768C211.858 72.104 212.288 72.272 212.864 72.272C213.285 72.272 213.677 72.1734 214.04 71.976C214.408 71.7734 214.746 71.496 215.056 71.144V65.176H216.48ZM220.169 71.328C220.431 71.68 220.716 71.928 221.025 72.072C221.335 72.216 221.681 72.288 222.065 72.288C222.823 72.288 223.404 72.0187 223.809 71.48C224.215 70.9414 224.417 70.1734 224.417 69.176C224.417 68.648 224.369 68.1947 224.273 67.816C224.183 67.4374 224.049 67.128 223.873 66.888C223.697 66.6427 223.481 66.464 223.225 66.352C222.969 66.24 222.679 66.184 222.353 66.184C221.889 66.184 221.481 66.2907 221.129 66.504C220.783 66.7174 220.463 67.0187 220.169 67.408V71.328ZM220.097 66.432C220.439 66.0107 220.833 65.672 221.281 65.416C221.729 65.16 222.241 65.032 222.817 65.032C223.287 65.032 223.711 65.1227 224.089 65.304C224.468 65.48 224.791 65.744 225.057 66.096C225.324 66.4427 225.529 66.8747 225.673 67.392C225.817 67.9094 225.889 68.504 225.889 69.176C225.889 69.7734 225.809 70.3307 225.649 70.848C225.489 71.36 225.257 71.8054 224.953 72.184C224.655 72.5574 224.287 72.8534 223.849 73.072C223.417 73.2854 222.929 73.392 222.385 73.392C221.889 73.392 221.463 73.3094 221.105 73.144C220.753 72.9734 220.441 72.7387 220.169 72.44V76.024H218.737V65.176H219.593C219.796 65.176 219.921 65.2747 219.969 65.472L220.097 66.432Z" fill="#ADADAD"/>
<defs>
<clipPath id="clip0_8336_1009">
<rect width="60" height="60" fill="white" transform="translate(20 20.48)"/>
</clipPath>
<clipPath id="clip1_8336_1009">
<rect width="60" height="60" fill="white" transform="translate(20 20.48)"/>
</clipPath>
<clipPath id="clip2_8336_1009">
<rect width="60" height="60" fill="white" transform="translate(20 20.48)"/>
</clipPath>
</defs>
</svg>
