<svg width="321" height="108" viewBox="0 0 321 108" fill="none" xmlns="http://www.w3.org/2000/svg">
<rect y="0.47998" width="321" height="107" rx="10" fill="#F4F6FA"/>
<g clip-path="url(#clip0_8336_989)">
<g clip-path="url(#clip1_8336_989)">
<g clip-path="url(#clip2_8336_989)">
<mask id="mask0_8336_989" style="mask-type:luminance" maskUnits="userSpaceOnUse" x="20" y="20" width="60" height="60">
<path d="M79.4671 20.48H20.1621V79.785H79.4671V20.48Z" fill="white"/>
</mask>
<g mask="url(#mask0_8336_989)">
<path d="M58.1426 48.7657L61.1426 44.0514L65.4283 41.9086C65.9997 41.7657 67.2283 41.5657 67.5711 41.9086C67.914 42.2514 72.8569 48.9086 75.2854 52.1943L77.4283 56.0514C76.9997 56.9086 76.0569 58.7086 75.714 59.0514C75.3711 59.3943 72.1425 60.9086 70.5711 61.6228C69.714 61.7657 67.914 62.0514 67.5711 62.0514C67.2283 62.0514 63.1425 56.6229 61.1426 53.9086L58.8926 50.0514L58.1426 48.7657Z" fill="#FDC040"/>
<path d="M67.5723 62.0515C67.2294 62.0515 63.1437 56.623 61.1437 53.9087L58.8937 50.0515H57.2866H53.0008C52.5723 50.0515 50.4294 50.9087 49.5723 51.3372L47.0008 52.6229C46.1437 53.0515 45.2866 53.9087 44.858 54.3372C44.4294 54.7658 43.5723 56.0515 43.5723 56.4801C43.5723 56.9087 43.5723 57.7658 44.0008 58.1944C44.4294 58.6229 45.2866 59.0515 45.7151 59.0515H48.2866C48.9723 59.0515 50.858 58.1944 51.7151 57.7658C52.0008 57.9087 52.658 58.2801 53.0008 58.6229C53.3437 58.9658 56.2865 61.0515 57.7151 62.0515L61.1437 65.4801C61.7152 65.7658 62.9437 66.2515 63.2866 65.9087C63.6294 65.5658 64.858 64.6229 65.4294 64.1944L66.7151 63.3372L67.5723 62.0515Z" fill="#FDC040"/>
<path d="M33.2852 66.7656C33.2852 67.4513 34.428 68.7656 34.9994 69.3371L37.9994 71.9085L39.7137 73.1942L41.428 74.9085C41.9995 75.1942 43.1423 75.8513 43.1423 76.1942C43.1423 76.5371 44.8566 76.9085 45.7137 77.0513C46.1423 76.7657 47.0852 76.1085 47.428 75.7656C47.8566 75.3371 47.8566 75.3371 47.8566 74.4799C47.8566 73.6228 47.8566 72.7656 47.428 71.9085C46.9994 71.0513 46.9994 69.3371 46.5709 68.9085C46.1423 68.4799 44.428 67.6228 44.428 67.1942C44.428 66.7656 43.1423 65.0513 42.7137 64.6228C42.2852 64.1942 41.428 62.4799 40.9994 62.0513C40.5709 61.6228 39.2852 60.7656 38.428 61.1942C37.5709 61.6228 34.9994 63.7656 34.5709 64.1942C34.228 64.5371 33.5708 66.0514 33.2852 66.7656Z" fill="#FDC040"/>
<path d="M41.4294 24.7656C44.0008 28.3371 51.3723 35.3085 60.2866 34.6228L58.5723 39.7656L56.0008 41.9085L47.858 44.4799L41.4294 42.3371L37.5723 35.4799L38.0008 29.9085L40.1437 26.0513L41.4294 24.7656Z" fill="#FDC040"/>
<path d="M48.8569 35.887C48.4044 35.887 47.8496 35.8209 47.4697 35.3975C47.3376 35.2488 47.2219 35.1099 47.1097 34.9941C46.2047 34.0417 44.6458 35.3645 45.5904 36.6011L45.8183 36.8954C45.9669 37.0808 46.2345 37.2956 46.6175 37.5404C46.9908 37.7782 47.4069 37.9503 47.8693 38.0528V39.6865C47.8693 40.2486 48.3282 40.7116 48.8899 40.7116C49.4547 40.7116 49.9335 40.2486 49.9335 39.6865V38.0429C50.6734 37.8712 51.3075 37.5106 51.826 36.9651C52.3476 36.4192 52.6086 35.6952 52.6086 34.7924C52.6086 34.1774 52.4899 33.6649 52.252 33.2514C52.0142 32.8414 51.7235 32.5538 51.3767 32.3916C51.0267 32.2295 50.6469 32.0873 50.2274 31.9651C49.8113 31.8428 49.4315 31.7567 49.0814 31.7039C48.7347 31.6541 48.444 31.5483 48.2062 31.393C47.9683 31.2341 47.8495 31.0292 47.8495 30.7745C47.8495 29.5577 49.633 29.7064 50.4189 30.3678C51.5782 31.3433 52.876 29.5577 51.5319 28.5492L51.3766 28.4102C51.2709 28.3277 51.086 28.2251 50.8185 28.096C50.5542 27.9672 50.2569 27.8712 49.9334 27.8017V26.8131V26.3833C49.9334 25.821 49.4742 25.3582 48.9095 25.3582C48.348 25.3582 47.8858 25.8209 47.8858 26.3833V27.7853C47.1326 27.9341 46.5084 28.3079 46.0759 28.8599C45.64 29.4222 45.4186 30.044 45.4186 30.7381C45.4186 31.436 45.5806 32.008 45.9041 32.4611C46.2278 32.9139 46.6209 33.2314 47.0866 33.4167C47.5489 33.6019 48.0112 33.7508 48.4736 33.8597C48.9392 33.9724 49.3324 34.0945 49.6558 34.2368C49.9796 34.3756 50.1414 34.5708 50.1414 34.8254C50.1415 35.533 49.7122 35.887 48.8569 35.887Z" fill="#3BB77E"/>
<path d="M78.2429 53.9374L68.7254 41.7465C68.0843 40.9232 67.1123 40.4509 66.0589 40.4509C65.3153 40.4509 64.6114 40.687 64.0207 41.1352L57.792 45.8832C57.079 46.4266 56.6235 47.2152 56.5094 48.1036C56.4923 48.236 56.4843 48.368 56.4829 48.4994C54.1083 48.3195 51.6557 48.5004 49.2739 50.0485L49.1671 50.1179L43.1418 49.1964C43.1541 48.9878 43.1475 48.7767 43.1199 48.5648C43.0051 47.6785 42.5504 46.8918 41.8388 46.3493L35.6085 41.6055C34.1488 40.4892 32.0383 40.7604 30.9033 42.2116L28.6344 45.1183C28.2373 45.6268 28.3279 46.3608 28.8364 46.7577C29.345 47.1547 30.079 47.0641 30.476 46.5557L32.7441 43.65C33.0875 43.2109 33.7493 43.1245 34.1913 43.4627L40.423 48.2075C40.6341 48.3684 40.7691 48.6019 40.8032 48.8653C40.8373 49.1291 40.7661 49.3902 40.6035 49.599L31.0841 61.7918C30.7431 62.2298 30.0804 62.3154 29.6391 61.9807L23.4101 57.2322C23.1979 57.0705 23.0623 56.8361 23.0283 56.5723C22.9946 56.3098 23.0658 56.0505 23.2297 55.8411L24.8481 53.7678C25.2451 53.2593 25.1546 52.5253 24.646 52.1285C24.1375 51.7313 23.4035 51.822 23.0064 52.3305L21.389 54.4026C20.838 55.107 20.5973 55.9832 20.7113 56.87C20.8253 57.7583 21.281 58.5468 21.9938 59.0901L28.2248 63.8403C28.8312 64.3002 29.5479 64.5228 30.2598 64.5227C30.6716 64.5227 31.0813 64.447 31.4676 64.3011L32.274 65.4055C31.8357 66.2051 31.7673 67.1656 32.1196 68.0925C32.6231 69.4179 33.8112 70.3164 35.0966 70.3592C35.1364 70.548 35.1916 70.7367 35.2671 70.9236C35.7852 72.2073 36.9682 73.0811 38.2395 73.1386C38.2453 73.1719 38.2497 73.2054 38.2565 73.2388C38.4984 74.4142 39.4001 75.418 40.5537 75.7962C40.8475 75.8925 41.1438 75.942 41.4372 75.9507C41.5496 76.4239 41.7844 76.881 42.1455 77.2823C42.7083 77.9079 43.53 78.3082 44.4314 78.308C45.086 78.308 45.7827 78.0956 46.4523 77.6061L47.775 78.8425C48.4487 79.4712 49.2969 79.7851 50.1369 79.7851C50.9889 79.785 51.8324 79.4621 52.4765 78.8173C52.8606 78.4329 53.1582 77.9755 53.3507 77.494C53.6789 77.5938 53.9996 77.641 54.3072 77.641C55.1735 77.6409 55.938 77.2751 56.4857 76.7109C56.9339 76.2493 57.2547 75.6348 57.3966 74.9798C57.444 74.9822 57.4914 74.9842 57.539 74.9846C57.5507 74.9848 57.5621 74.9848 57.5738 74.9848C58.4952 74.9848 59.3792 74.6279 60.0035 74.0027C60.4409 73.5648 60.7418 73.0259 60.8854 72.4374C61.1083 72.4809 61.3321 72.5036 61.5554 72.5036C61.8365 72.5036 62.117 72.4687 62.3932 72.3979C63.5196 72.1093 64.3894 71.229 64.6631 70.1004C64.9157 69.0591 64.6555 67.9621 63.947 66.965C65.7814 65.4891 66.5235 64.7621 67.3615 63.4026C67.9339 63.8238 68.6307 64.0557 69.3672 64.0557C70.1129 64.0557 70.8182 63.8179 71.4045 63.3696L77.6373 58.624C78.3483 58.082 78.8031 57.2954 78.918 56.409C79.0329 55.5217 78.7935 54.6443 78.2429 53.9374ZM35.7076 67.7835C35.5287 67.9452 35.3552 68.0272 35.1918 68.0272C34.8563 68.0272 34.4662 67.6916 34.3034 67.263C34.1555 66.8736 34.2244 66.5484 34.5089 66.2958L34.5127 66.2925L34.5162 66.2894L38.4514 62.7916C38.7807 62.4996 39.1119 62.3452 39.4097 62.3452C39.8455 62.3452 40.1713 62.676 40.2896 62.9838C40.4161 63.3123 40.34 63.6055 40.0647 63.8544L39.3788 64.473L39.377 64.4747C39.3735 64.4776 39.3704 64.4806 39.3669 64.4836C39.3424 64.5059 39.3171 64.5288 39.292 64.5514L35.7076 67.7835ZM38.8885 70.5754C38.7111 70.7321 38.5421 70.808 38.3721 70.808C38.0175 70.808 37.6053 70.4748 37.4336 70.0491C37.2442 69.5802 37.4689 69.3637 37.5399 69.2952C37.5855 69.2514 37.6403 69.1989 37.6974 69.1378L37.6984 69.1368L37.7105 69.1262C37.9352 68.9255 39.9139 67.1376 40.8593 66.2834L40.9298 66.2199C41.2502 65.9387 41.5747 65.79 41.8688 65.79C42.3326 65.79 42.6778 66.145 42.8024 66.4746C42.9262 66.8024 42.8519 67.0893 42.5825 67.3266L42.3402 67.5396C42.3384 67.5413 42.3366 67.5426 42.3349 67.5442L42.3332 67.5459L38.8885 70.5754ZM42.3701 73.0966C42.354 73.1111 42.3388 73.1262 42.3232 73.141L42.0491 73.3883C41.8055 73.6084 41.5616 73.6684 41.2813 73.5764C40.9269 73.4602 40.6175 73.1202 40.545 72.7681C40.4819 72.462 40.6045 72.1782 40.9156 71.904L41.3054 71.5634C41.3152 71.5548 41.3237 71.5454 41.3332 71.5366L43.8863 69.2913C44.4981 68.7504 45.1041 68.6963 45.5073 69.1471C45.5641 69.2106 46.045 69.7824 45.4579 70.3128L43.8899 71.7276C43.8731 71.7425 43.8561 71.7558 43.8394 71.7709C43.8335 71.7764 43.8286 71.7827 43.8228 71.788L42.388 73.0826C42.3823 73.0876 42.3758 73.0914 42.3701 73.0966ZM43.8824 75.7197C43.7593 75.5831 43.5218 75.2287 43.9113 74.8546L45.4755 73.4432C45.5939 73.342 45.708 73.2617 45.8148 73.2066C45.8196 73.204 45.8247 73.2014 45.8295 73.1989C46.46 72.8622 46.8016 73.2547 46.8915 73.383C47.007 73.5479 47.1478 73.8719 46.7937 74.19L45.7221 75.1532C45.718 75.1568 45.7141 75.1605 45.7101 75.1641L45.2455 75.5816C44.482 76.2669 44.0091 75.8608 43.8824 75.7197ZM62.3927 69.5498C62.3209 69.8457 62.1098 70.059 61.8134 70.135C61.322 70.2607 60.7 69.9879 60.1305 69.4036C60.0879 69.3564 60.0441 69.3098 59.9983 69.2647L55.5891 64.9062C55.1301 64.4529 54.3906 64.4571 53.9372 64.9159C53.4837 65.3747 53.4879 66.1143 53.9466 66.5677L58.3487 70.9191C58.3561 70.9269 58.3635 70.9345 58.3707 70.9423C58.5466 71.1232 58.6444 71.3648 58.6455 71.6264C58.6466 71.9027 58.5418 72.1602 58.3505 72.3518C58.1618 72.5409 57.8795 72.6487 57.5745 72.6487C57.5702 72.6487 57.566 72.6487 57.5617 72.6486C57.2916 72.6461 57.0451 72.5556 56.8716 72.3977C56.7985 72.3032 56.7189 72.2116 56.6314 72.1237L53.4081 68.8964C52.9521 68.4402 52.2125 68.4396 51.7561 68.8954C51.2997 69.3512 51.2992 70.0908 51.755 70.5472L54.8119 73.6079C54.8487 73.6618 54.8896 73.7137 54.9366 73.7623L55.0667 73.8965C55.2343 74.2156 55.1304 74.7532 54.8096 75.0838C54.3145 75.5936 53.6177 75.1441 53.1213 74.6779L51.7409 73.3784C51.2712 72.9362 50.5318 72.9586 50.0897 73.4282C49.6475 73.898 49.6698 74.6373 50.1395 75.0795L51.194 76.0721C51.1966 76.0745 51.1987 76.0771 51.2013 76.0794C51.2253 76.102 51.2616 76.136 51.2634 76.2538C51.2679 76.5276 51.0872 76.9029 50.8239 77.1665C50.4395 77.5511 49.8005 77.5374 49.3697 77.1353L48.2138 76.0548L48.355 75.9277C49.5013 74.8985 49.6863 73.3011 48.8049 72.0429C48.5181 71.6334 48.1589 71.3154 47.756 71.0946C48.324 69.9744 48.1652 68.6143 47.2484 67.5896C46.7313 67.0114 46.0007 66.6165 45.1852 66.5291C45.1619 66.236 45.0978 65.9406 44.9878 65.6495C44.5911 64.5989 43.709 63.8256 42.6709 63.5578C42.7141 63.0924 42.6498 62.6119 42.4701 62.1445C41.9784 60.8673 40.7487 60.009 39.4098 60.009C38.5318 60.009 37.6645 60.3668 36.9005 61.0445L33.9182 63.6954L33.2626 62.7976L42.1545 51.4087L46.2198 52.0305L45.6048 52.4295C42.3105 54.5668 42.0694 57.0524 42.9423 58.6661C43.6409 59.9577 45.0351 60.696 46.5151 60.696C47.1243 60.6959 47.7484 60.5707 48.3441 60.3075C48.3599 60.3004 48.3755 60.2932 48.3909 60.2856L51.4706 58.7586L53.2484 60.3774C53.2502 60.3789 53.252 60.3801 53.2536 60.3816C53.2553 60.3832 53.2568 60.3848 53.2585 60.3864L61.4757 67.6944C62.1798 68.3205 62.5227 69.0141 62.3927 69.5498ZM62.2945 65.2964L54.8161 58.6454L52.4531 56.494C52.0973 56.1698 51.5789 56.0971 51.1479 56.3111L47.3782 58.1802C46.3541 58.6207 45.3467 58.2016 44.9969 57.5549C44.5162 56.6663 45.2362 55.4532 46.8761 54.3894L50.5462 52.0079C52.5362 50.7143 54.6237 50.6145 57.4792 50.9459L65.7477 61.5405C64.8752 63.1074 64.4118 63.6048 62.2945 65.2964ZM76.6011 56.1086C76.5671 56.3717 76.432 56.6052 76.2214 56.7657L69.9873 61.5123C69.7634 61.6836 69.5266 61.7196 69.3675 61.7196C69.0398 61.7195 68.7389 61.5752 68.543 61.3246L59.027 49.1316C58.8638 48.923 58.7926 48.6637 58.8264 48.4013C58.8603 48.1374 58.9958 47.9028 59.2082 47.7411L65.435 42.9944C65.6609 42.8232 65.8988 42.7872 66.0587 42.7872C66.3867 42.7872 66.6868 42.9309 66.883 43.1828L76.4006 55.3738C76.5641 55.584 76.6354 55.8448 76.6011 56.1086Z" fill="#3BB77E"/>
<path d="M42.9602 44.2093C44.7941 45.1989 46.8658 45.7219 48.9512 45.7219C55.9035 45.7219 61.5598 40.0594 61.5598 33.0992C61.5598 28.2415 58.7238 23.7619 54.3358 21.687C52.6455 20.8861 50.8338 20.48 48.9512 20.48C42.0004 20.48 36.3457 26.1409 36.3457 33.0992C36.3457 37.7401 38.8795 41.9968 42.9602 44.2093ZM48.9512 22.816C50.485 22.816 51.9602 23.1465 53.3363 23.7984C56.9126 25.4894 59.2235 29.1403 59.2235 33.0992C59.2235 38.7713 54.6154 43.3858 48.9513 43.3858C47.2518 43.3858 45.5638 42.9596 44.0717 42.1546C40.7471 40.3519 38.6818 36.8821 38.6818 33.0992C38.6818 27.4291 43.2886 22.816 48.9512 22.816Z" fill="#3BB77E"/>
<path d="M26.0118 50.3543C26.2269 50.5259 26.4841 50.6094 26.7397 50.6094C27.0828 50.6094 27.4227 50.4588 27.6533 50.1697L27.6665 50.1532C28.0689 49.649 27.9863 48.914 27.4821 48.5117C26.9779 48.1095 26.2429 48.1917 25.8406 48.6961L25.8274 48.7128C25.425 49.2169 25.5076 49.9518 26.0118 50.3543Z" fill="#3BB77E"/>
</g>
</g>
</g>
</g>
<path d="M102.412 45.6899C102.124 45.6899 101.89 45.6059 101.71 45.4379C101.542 45.2579 101.458 45.0359 101.458 44.7719V34.0079C101.458 33.7439 101.548 33.5279 101.728 33.3599C101.908 33.1799 102.124 33.0899 102.376 33.0899H108.46C108.724 33.0899 108.94 33.1739 109.108 33.3419C109.288 33.5099 109.378 33.7199 109.378 33.9719C109.378 34.1999 109.288 34.3979 109.108 34.5659C108.94 34.7339 108.724 34.8179 108.46 34.8179H103.204L103.33 34.6379V38.6519L103.222 38.4359H107.65C107.914 38.4359 108.13 38.5199 108.298 38.6879C108.478 38.8559 108.568 39.0659 108.568 39.3179C108.568 39.5459 108.478 39.7439 108.298 39.9119C108.13 40.0799 107.914 40.1639 107.65 40.1639H103.186L103.33 40.0199V44.7719C103.33 45.0359 103.24 45.2579 103.06 45.4379C102.88 45.6059 102.664 45.6899 102.412 45.6899ZM112.144 45.6899C111.88 45.6899 111.664 45.6059 111.496 45.4379C111.328 45.2579 111.244 45.0359 111.244 44.7719V37.1399C111.244 36.8759 111.328 36.6599 111.496 36.4919C111.664 36.3119 111.88 36.2219 112.144 36.2219C112.396 36.2219 112.606 36.3119 112.774 36.4919C112.954 36.6599 113.044 36.8759 113.044 37.1399V39.1559L112.864 38.3819C112.96 38.0459 113.104 37.7339 113.296 37.4459C113.5 37.1579 113.74 36.9059 114.016 36.6899C114.292 36.4739 114.598 36.3059 114.934 36.1859C115.282 36.0659 115.642 36.0059 116.014 36.0059C116.326 36.0059 116.596 36.0899 116.824 36.2579C117.052 36.4259 117.166 36.6359 117.166 36.8879C117.166 37.2119 117.082 37.4519 116.914 37.6079C116.746 37.7519 116.56 37.8239 116.356 37.8239C116.176 37.8239 116.002 37.7879 115.834 37.7159C115.666 37.6319 115.468 37.5899 115.24 37.5899C114.988 37.5899 114.73 37.6559 114.466 37.7879C114.202 37.9199 113.962 38.1179 113.746 38.3819C113.53 38.6339 113.356 38.9339 113.224 39.2819C113.104 39.6299 113.044 40.0199 113.044 40.4519V44.7719C113.044 45.0359 112.954 45.2579 112.774 45.4379C112.606 45.6059 112.396 45.6899 112.144 45.6899ZM122.774 45.8699C121.778 45.8699 120.914 45.6659 120.182 45.2579C119.45 44.8379 118.88 44.2679 118.472 43.5479C118.076 42.8159 117.878 41.9819 117.878 41.0459C117.878 39.9899 118.088 39.0899 118.508 38.3459C118.94 37.5899 119.498 37.0139 120.182 36.6179C120.866 36.2099 121.592 36.0059 122.36 36.0059C122.948 36.0059 123.506 36.1259 124.034 36.3659C124.562 36.5939 125.03 36.9179 125.438 37.3379C125.858 37.7459 126.188 38.2319 126.428 38.7959C126.668 39.3479 126.794 39.9539 126.806 40.6139C126.794 40.8539 126.698 41.0519 126.518 41.2079C126.338 41.3639 126.128 41.4419 125.888 41.4419H118.886L118.454 39.9119H125.222L124.88 40.2359V39.7859C124.856 39.3659 124.718 38.9999 124.466 38.6879C124.214 38.3639 123.902 38.1179 123.53 37.9499C123.158 37.7699 122.768 37.6799 122.36 37.6799C122 37.6799 121.652 37.7399 121.316 37.8599C120.992 37.9679 120.698 38.1479 120.434 38.3999C120.182 38.6519 119.978 38.9879 119.822 39.4079C119.678 39.8159 119.606 40.3259 119.606 40.9379C119.606 41.5979 119.744 42.1739 120.02 42.6659C120.296 43.1579 120.668 43.5419 121.136 43.8179C121.604 44.0819 122.12 44.2139 122.684 44.2139C123.128 44.2139 123.494 44.1719 123.782 44.0879C124.07 43.9919 124.31 43.8779 124.502 43.7459C124.694 43.6139 124.862 43.4879 125.006 43.3679C125.186 43.2599 125.366 43.2059 125.546 43.2059C125.762 43.2059 125.942 43.2839 126.086 43.4399C126.23 43.5839 126.302 43.7579 126.302 43.9619C126.302 44.2259 126.17 44.4659 125.906 44.6819C125.582 44.9939 125.132 45.2699 124.556 45.5099C123.992 45.7499 123.398 45.8699 122.774 45.8699ZM133.25 45.8699C132.254 45.8699 131.39 45.6659 130.658 45.2579C129.926 44.8379 129.356 44.2679 128.948 43.5479C128.552 42.8159 128.354 41.9819 128.354 41.0459C128.354 39.9899 128.564 39.0899 128.984 38.3459C129.416 37.5899 129.974 37.0139 130.658 36.6179C131.342 36.2099 132.068 36.0059 132.836 36.0059C133.424 36.0059 133.982 36.1259 134.51 36.3659C135.038 36.5939 135.506 36.9179 135.914 37.3379C136.334 37.7459 136.664 38.2319 136.904 38.7959C137.144 39.3479 137.27 39.9539 137.282 40.6139C137.27 40.8539 137.174 41.0519 136.994 41.2079C136.814 41.3639 136.604 41.4419 136.364 41.4419H129.362L128.93 39.9119H135.698L135.356 40.2359V39.7859C135.332 39.3659 135.194 38.9999 134.942 38.6879C134.69 38.3639 134.378 38.1179 134.006 37.9499C133.634 37.7699 133.244 37.6799 132.836 37.6799C132.476 37.6799 132.128 37.7399 131.792 37.8599C131.468 37.9679 131.174 38.1479 130.91 38.3999C130.658 38.6519 130.454 38.9879 130.298 39.4079C130.154 39.8159 130.082 40.3259 130.082 40.9379C130.082 41.5979 130.22 42.1739 130.496 42.6659C130.772 43.1579 131.144 43.5419 131.612 43.8179C132.08 44.0819 132.596 44.2139 133.16 44.2139C133.604 44.2139 133.97 44.1719 134.258 44.0879C134.546 43.9919 134.786 43.8779 134.978 43.7459C135.17 43.6139 135.338 43.4879 135.482 43.3679C135.662 43.2599 135.842 43.2059 136.022 43.2059C136.238 43.2059 136.418 43.2839 136.562 43.4399C136.706 43.5839 136.778 43.7579 136.778 43.9619C136.778 44.2259 136.646 44.4659 136.382 44.6819C136.058 44.9939 135.608 45.2699 135.032 45.5099C134.468 45.7499 133.874 45.8699 133.25 45.8699ZM152.084 32.3699C152.348 32.3699 152.564 32.4539 152.732 32.6219C152.9 32.7899 152.984 33.0119 152.984 33.2879V44.7719C152.984 45.0359 152.9 45.2579 152.732 45.4379C152.564 45.6059 152.348 45.6899 152.084 45.6899C151.832 45.6899 151.616 45.6059 151.436 45.4379C151.268 45.2579 151.184 45.0359 151.184 44.7719V43.4759L151.562 43.4939C151.562 43.7099 151.472 43.9559 151.292 44.2319C151.124 44.4959 150.89 44.7539 150.59 45.0059C150.29 45.2579 149.936 45.4679 149.528 45.6359C149.12 45.7919 148.682 45.8699 148.214 45.8699C147.386 45.8699 146.642 45.6599 145.982 45.2399C145.322 44.8079 144.8 44.2259 144.416 43.4939C144.032 42.7499 143.84 41.8979 143.84 40.9379C143.84 39.9779 144.032 39.1319 144.416 38.3999C144.8 37.6559 145.316 37.0739 145.964 36.6539C146.624 36.2219 147.356 36.0059 148.16 36.0059C148.664 36.0059 149.132 36.0899 149.564 36.2579C150.008 36.4259 150.392 36.6419 150.716 36.9059C151.04 37.1699 151.292 37.4519 151.472 37.7519C151.652 38.0399 151.742 38.3159 151.742 38.5799L151.184 38.6339V33.2879C151.184 33.0239 151.268 32.8079 151.436 32.6399C151.616 32.4599 151.832 32.3699 152.084 32.3699ZM148.412 44.2139C148.988 44.2139 149.486 44.0699 149.906 43.7819C150.338 43.4939 150.674 43.1039 150.914 42.6119C151.154 42.1199 151.274 41.5619 151.274 40.9379C151.274 40.3139 151.154 39.7559 150.914 39.2639C150.674 38.7719 150.338 38.3819 149.906 38.0939C149.474 37.8059 148.976 37.6619 148.412 37.6619C147.86 37.6619 147.368 37.8059 146.936 38.0939C146.516 38.3819 146.18 38.7719 145.928 39.2639C145.688 39.7559 145.568 40.3139 145.568 40.9379C145.568 41.5619 145.688 42.1199 145.928 42.6119C146.18 43.1039 146.516 43.4939 146.936 43.7819C147.368 44.0699 147.86 44.2139 148.412 44.2139ZM159.916 45.8699C158.92 45.8699 158.056 45.6659 157.324 45.2579C156.592 44.8379 156.022 44.2679 155.614 43.5479C155.218 42.8159 155.02 41.9819 155.02 41.0459C155.02 39.9899 155.23 39.0899 155.65 38.3459C156.082 37.5899 156.64 37.0139 157.324 36.6179C158.008 36.2099 158.734 36.0059 159.502 36.0059C160.09 36.0059 160.648 36.1259 161.176 36.3659C161.704 36.5939 162.172 36.9179 162.58 37.3379C163 37.7459 163.33 38.2319 163.57 38.7959C163.81 39.3479 163.936 39.9539 163.948 40.6139C163.936 40.8539 163.84 41.0519 163.66 41.2079C163.48 41.3639 163.27 41.4419 163.03 41.4419H156.028L155.596 39.9119H162.364L162.022 40.2359V39.7859C161.998 39.3659 161.86 38.9999 161.608 38.6879C161.356 38.3639 161.044 38.1179 160.672 37.9499C160.3 37.7699 159.91 37.6799 159.502 37.6799C159.142 37.6799 158.794 37.7399 158.458 37.8599C158.134 37.9679 157.84 38.1479 157.576 38.3999C157.324 38.6519 157.12 38.9879 156.964 39.4079C156.82 39.8159 156.748 40.3259 156.748 40.9379C156.748 41.5979 156.886 42.1739 157.162 42.6659C157.438 43.1579 157.81 43.5419 158.278 43.8179C158.746 44.0819 159.262 44.2139 159.826 44.2139C160.27 44.2139 160.636 44.1719 160.924 44.0879C161.212 43.9919 161.452 43.8779 161.644 43.7459C161.836 43.6139 162.004 43.4879 162.148 43.3679C162.328 43.2599 162.508 43.2059 162.688 43.2059C162.904 43.2059 163.084 43.2839 163.228 43.4399C163.372 43.5839 163.444 43.7579 163.444 43.9619C163.444 44.2259 163.312 44.4659 163.048 44.6819C162.724 44.9939 162.274 45.2699 161.698 45.5099C161.134 45.7499 160.54 45.8699 159.916 45.8699ZM167.927 44.7719C167.927 45.0359 167.837 45.2579 167.657 45.4379C167.489 45.6059 167.279 45.6899 167.027 45.6899C166.775 45.6899 166.559 45.6059 166.379 45.4379C166.211 45.2579 166.127 45.0359 166.127 44.7719V33.2879C166.127 33.0239 166.217 32.8079 166.397 32.6399C166.577 32.4599 166.793 32.3699 167.045 32.3699C167.309 32.3699 167.519 32.4599 167.675 32.6399C167.843 32.8079 167.927 33.0239 167.927 33.2879V44.7719ZM172.298 44.7719C172.298 45.0359 172.214 45.2579 172.046 45.4379C171.878 45.6059 171.662 45.6899 171.398 45.6899C171.146 45.6899 170.93 45.6059 170.75 45.4379C170.582 45.2579 170.498 45.0359 170.498 44.7719V37.0679C170.498 36.8039 170.582 36.5879 170.75 36.4199C170.93 36.2399 171.146 36.1499 171.398 36.1499C171.662 36.1499 171.878 36.2399 172.046 36.4199C172.214 36.5879 172.298 36.8039 172.298 37.0679V44.7719ZM171.38 34.9619C171.032 34.9619 170.78 34.9019 170.624 34.7819C170.468 34.6499 170.39 34.4339 170.39 34.1339V33.8459C170.39 33.5459 170.474 33.3359 170.642 33.2159C170.81 33.0959 171.062 33.0359 171.398 33.0359C171.758 33.0359 172.016 33.1019 172.172 33.2339C172.328 33.3539 172.406 33.5579 172.406 33.8459V34.1339C172.406 34.4459 172.322 34.6619 172.154 34.7819C171.998 34.9019 171.74 34.9619 171.38 34.9619ZM174.935 36.1319C175.115 36.1319 175.283 36.1799 175.439 36.2759C175.607 36.3719 175.727 36.5159 175.799 36.7079L178.625 43.2419L178.283 43.4039L181.145 36.7259C181.313 36.3299 181.583 36.1379 181.955 36.1499C182.195 36.1499 182.393 36.2279 182.549 36.3839C182.717 36.5279 182.801 36.7199 182.801 36.9599C182.801 37.0319 182.789 37.1099 182.765 37.1939C182.741 37.2659 182.711 37.3379 182.675 37.4099L179.255 45.1139C179.099 45.4739 178.841 45.6659 178.481 45.6899C178.301 45.7139 178.121 45.6779 177.941 45.5819C177.773 45.4739 177.641 45.3179 177.545 45.1139L174.143 37.4099C174.119 37.3619 174.095 37.3019 174.071 37.2299C174.047 37.1459 174.035 37.0499 174.035 36.9419C174.035 36.7619 174.113 36.5819 174.269 36.4019C174.437 36.2219 174.659 36.1319 174.935 36.1319ZM188.955 45.8699C187.959 45.8699 187.095 45.6659 186.363 45.2579C185.631 44.8379 185.061 44.2679 184.653 43.5479C184.257 42.8159 184.059 41.9819 184.059 41.0459C184.059 39.9899 184.269 39.0899 184.689 38.3459C185.121 37.5899 185.679 37.0139 186.363 36.6179C187.047 36.2099 187.773 36.0059 188.541 36.0059C189.129 36.0059 189.687 36.1259 190.215 36.3659C190.743 36.5939 191.211 36.9179 191.619 37.3379C192.039 37.7459 192.369 38.2319 192.609 38.7959C192.849 39.3479 192.975 39.9539 192.987 40.6139C192.975 40.8539 192.879 41.0519 192.699 41.2079C192.519 41.3639 192.309 41.4419 192.069 41.4419H185.067L184.635 39.9119H191.403L191.061 40.2359V39.7859C191.037 39.3659 190.899 38.9999 190.647 38.6879C190.395 38.3639 190.083 38.1179 189.711 37.9499C189.339 37.7699 188.949 37.6799 188.541 37.6799C188.181 37.6799 187.833 37.7399 187.497 37.8599C187.173 37.9679 186.879 38.1479 186.615 38.3999C186.363 38.6519 186.159 38.9879 186.003 39.4079C185.859 39.8159 185.787 40.3259 185.787 40.9379C185.787 41.5979 185.925 42.1739 186.201 42.6659C186.477 43.1579 186.849 43.5419 187.317 43.8179C187.785 44.0819 188.301 44.2139 188.865 44.2139C189.309 44.2139 189.675 44.1719 189.963 44.0879C190.251 43.9919 190.491 43.8779 190.683 43.7459C190.875 43.6139 191.043 43.4879 191.187 43.3679C191.367 43.2599 191.547 43.2059 191.727 43.2059C191.943 43.2059 192.123 43.2839 192.267 43.4399C192.411 43.5839 192.483 43.7579 192.483 43.9619C192.483 44.2259 192.351 44.4659 192.087 44.6819C191.763 44.9939 191.313 45.2699 190.737 45.5099C190.173 45.7499 189.579 45.8699 188.955 45.8699ZM195.922 45.6899C195.658 45.6899 195.442 45.6059 195.274 45.4379C195.106 45.2579 195.022 45.0359 195.022 44.7719V37.1399C195.022 36.8759 195.106 36.6599 195.274 36.4919C195.442 36.3119 195.658 36.2219 195.922 36.2219C196.174 36.2219 196.384 36.3119 196.552 36.4919C196.732 36.6599 196.822 36.8759 196.822 37.1399V39.1559L196.642 38.3819C196.738 38.0459 196.882 37.7339 197.074 37.4459C197.278 37.1579 197.518 36.9059 197.794 36.6899C198.07 36.4739 198.376 36.3059 198.712 36.1859C199.06 36.0659 199.42 36.0059 199.792 36.0059C200.104 36.0059 200.374 36.0899 200.602 36.2579C200.83 36.4259 200.944 36.6359 200.944 36.8879C200.944 37.2119 200.86 37.4519 200.692 37.6079C200.524 37.7519 200.338 37.8239 200.134 37.8239C199.954 37.8239 199.78 37.7879 199.612 37.7159C199.444 37.6319 199.246 37.5899 199.018 37.5899C198.766 37.5899 198.508 37.6559 198.244 37.7879C197.98 37.9199 197.74 38.1179 197.524 38.3819C197.308 38.6339 197.134 38.9339 197.002 39.2819C196.882 39.6299 196.822 40.0199 196.822 40.4519V44.7719C196.822 45.0359 196.732 45.2579 196.552 45.4379C196.384 45.6059 196.174 45.6899 195.922 45.6899ZM209.583 36.1499C209.847 36.1499 210.063 36.2399 210.231 36.4199C210.399 36.5879 210.483 36.8039 210.483 37.0679V44.8079C210.483 45.8639 210.279 46.7219 209.871 47.3819C209.475 48.0419 208.935 48.5219 208.251 48.8219C207.579 49.1339 206.817 49.2899 205.965 49.2899C205.533 49.2899 205.101 49.2479 204.669 49.1639C204.237 49.0919 203.883 48.9839 203.607 48.8399C203.319 48.7079 203.115 48.5459 202.995 48.3539C202.875 48.1619 202.857 47.9519 202.941 47.7239C203.025 47.4359 203.169 47.2379 203.373 47.1299C203.577 47.0339 203.787 47.0279 204.003 47.1119C204.207 47.1959 204.477 47.3039 204.813 47.4359C205.149 47.5679 205.533 47.6339 205.965 47.6339C206.553 47.6339 207.051 47.5379 207.459 47.3459C207.867 47.1539 208.173 46.8539 208.377 46.4459C208.593 46.0379 208.701 45.5099 208.701 44.8619V43.6199L208.989 44.0519C208.797 44.4479 208.545 44.7779 208.233 45.0419C207.921 45.3059 207.549 45.5099 207.117 45.6539C206.697 45.7979 206.229 45.8699 205.713 45.8699C205.053 45.8699 204.483 45.7259 204.003 45.4379C203.535 45.1379 203.175 44.7299 202.923 44.2139C202.671 43.6859 202.545 43.0859 202.545 42.4139V37.0679C202.545 36.8039 202.629 36.5879 202.797 36.4199C202.965 36.2399 203.181 36.1499 203.445 36.1499C203.697 36.1499 203.907 36.2399 204.075 36.4199C204.255 36.5879 204.345 36.8039 204.345 37.0679V41.9279C204.345 42.7199 204.519 43.3019 204.867 43.6739C205.215 44.0339 205.731 44.2139 206.415 44.2139C206.871 44.2139 207.267 44.1179 207.603 43.9259C207.939 43.7339 208.203 43.4699 208.395 43.1339C208.587 42.7859 208.683 42.3839 208.683 41.9279V37.0679C208.683 36.8039 208.767 36.5879 208.935 36.4199C209.115 36.2399 209.331 36.1499 209.583 36.1499Z" fill="#242424"/>
<path d="M107.896 71.928C108.051 71.928 108.173 71.9734 108.264 72.064C108.355 72.1547 108.4 72.272 108.4 72.416V73.28H100.752V72.792C100.752 72.6907 100.773 72.5867 100.816 72.48C100.859 72.3734 100.925 72.2747 101.016 72.184L104.688 68.496C104.992 68.1867 105.269 67.8907 105.52 67.608C105.771 67.32 105.984 67.032 106.16 66.744C106.336 66.456 106.472 66.1654 106.568 65.872C106.664 65.5734 106.712 65.256 106.712 64.92C106.712 64.584 106.659 64.2907 106.552 64.04C106.445 63.784 106.299 63.5734 106.112 63.408C105.931 63.2427 105.715 63.12 105.464 63.04C105.213 62.9547 104.944 62.912 104.656 62.912C104.363 62.912 104.093 62.9547 103.848 63.04C103.603 63.1254 103.384 63.2454 103.192 63.4C103.005 63.5494 102.848 63.728 102.72 63.936C102.592 64.144 102.501 64.3734 102.448 64.624C102.384 64.8107 102.296 64.936 102.184 65C102.077 65.0587 101.925 65.0747 101.728 65.048L100.984 64.92C101.059 64.3974 101.203 63.936 101.416 63.536C101.635 63.1307 101.907 62.792 102.232 62.52C102.563 62.248 102.939 62.0427 103.36 61.904C103.781 61.76 104.237 61.688 104.728 61.688C105.213 61.688 105.667 61.76 106.088 61.904C106.509 62.048 106.875 62.2587 107.184 62.536C107.493 62.808 107.736 63.1414 107.912 63.536C108.088 63.9307 108.176 64.3787 108.176 64.88C108.176 65.3067 108.112 65.704 107.984 66.072C107.856 66.4347 107.683 66.7814 107.464 67.112C107.245 67.4427 106.992 67.7654 106.704 68.08C106.421 68.3947 106.12 68.712 105.8 69.032L102.776 72.12C102.989 72.0614 103.205 72.016 103.424 71.984C103.643 71.9467 103.853 71.928 104.056 71.928H107.896ZM115.121 69.144V64.416C115.121 64.2774 115.127 64.1254 115.137 63.96C115.148 63.7947 115.164 63.6267 115.185 63.456L111.009 69.144H115.121ZM118.105 69.144V69.96C118.105 70.0454 118.079 70.1174 118.025 70.176C117.977 70.2347 117.9 70.264 117.793 70.264H116.369V73.28H115.121V70.264H110.033C109.927 70.264 109.833 70.2347 109.753 70.176C109.679 70.112 109.631 70.0347 109.609 69.944L109.465 69.216L115.041 61.816H116.369V69.144H118.105ZM120.475 73.448C120.405 73.6347 120.296 73.7734 120.147 73.864C120.003 73.9547 119.853 74 119.699 74H119.099L123.907 62.024C123.971 61.8534 124.067 61.7227 124.195 61.632C124.328 61.5414 124.48 61.496 124.651 61.496H125.259L120.475 73.448ZM134.445 61.816V62.456C134.445 62.6374 134.424 62.7867 134.381 62.904C134.344 63.0214 134.306 63.12 134.269 63.2L129.517 72.776C129.448 72.9147 129.352 73.0347 129.229 73.136C129.106 73.232 128.944 73.28 128.741 73.28H127.717L132.533 63.824C132.602 63.6907 132.674 63.568 132.749 63.456C132.824 63.344 132.904 63.2374 132.989 63.136H127.005C126.914 63.136 126.834 63.1014 126.765 63.032C126.696 62.9574 126.661 62.8747 126.661 62.784V61.816H134.445ZM144.692 69.632C144.036 69.6534 143.476 69.7067 143.012 69.792C142.553 69.872 142.177 69.9787 141.884 70.112C141.596 70.2454 141.385 70.4027 141.252 70.584C141.124 70.7654 141.06 70.968 141.06 71.192C141.06 71.4054 141.095 71.5894 141.164 71.744C141.233 71.8987 141.327 72.0267 141.444 72.128C141.567 72.224 141.708 72.296 141.868 72.344C142.033 72.3867 142.209 72.408 142.396 72.408C142.647 72.408 142.876 72.384 143.084 72.336C143.292 72.2827 143.487 72.208 143.668 72.112C143.855 72.016 144.031 71.9014 144.196 71.768C144.367 71.6347 144.532 71.4827 144.692 71.312V69.632ZM140.092 66.32C140.54 65.888 141.023 65.5654 141.54 65.352C142.057 65.1387 142.631 65.032 143.26 65.032C143.713 65.032 144.116 65.1067 144.468 65.256C144.82 65.4054 145.116 65.6134 145.356 65.88C145.596 66.1467 145.777 66.4694 145.9 66.848C146.023 67.2267 146.084 67.6427 146.084 68.096V73.28H145.452C145.313 73.28 145.207 73.2587 145.132 73.216C145.057 73.168 144.999 73.0774 144.956 72.944L144.796 72.176C144.583 72.3734 144.375 72.5494 144.172 72.704C143.969 72.8534 143.756 72.9814 143.532 73.088C143.308 73.1894 143.068 73.2667 142.812 73.32C142.561 73.3787 142.281 73.408 141.972 73.408C141.657 73.408 141.361 73.3654 141.084 73.28C140.807 73.1894 140.564 73.056 140.356 72.88C140.153 72.704 139.991 72.4827 139.868 72.216C139.751 71.944 139.692 71.624 139.692 71.256C139.692 70.936 139.78 70.6294 139.956 70.336C140.132 70.0374 140.417 69.7734 140.812 69.544C141.207 69.3147 141.721 69.128 142.356 68.984C142.991 68.8347 143.769 68.7494 144.692 68.728V68.096C144.692 67.4667 144.556 66.992 144.284 66.672C144.012 66.3467 143.615 66.184 143.092 66.184C142.74 66.184 142.444 66.2294 142.204 66.32C141.969 66.4054 141.764 66.504 141.588 66.616C141.417 66.7227 141.268 66.8214 141.14 66.912C141.017 66.9974 140.895 67.04 140.772 67.04C140.676 67.04 140.593 67.016 140.524 66.968C140.455 66.9147 140.396 66.8507 140.348 66.776L140.092 66.32ZM148.253 73.28V65.176H149.109C149.312 65.176 149.437 65.2747 149.485 65.472L149.589 66.304C149.888 65.936 150.224 65.6347 150.597 65.4C150.97 65.1654 151.402 65.048 151.893 65.048C152.437 65.048 152.877 65.2 153.213 65.504C153.554 65.808 153.8 66.2187 153.949 66.736C154.066 66.4427 154.216 66.1894 154.397 65.976C154.584 65.7627 154.792 65.5867 155.021 65.448C155.25 65.3094 155.493 65.208 155.749 65.144C156.01 65.08 156.274 65.048 156.541 65.048C156.968 65.048 157.346 65.1174 157.677 65.256C158.013 65.3894 158.296 65.5867 158.525 65.848C158.76 66.1094 158.938 66.432 159.061 66.816C159.184 67.1947 159.245 67.6294 159.245 68.12V73.28H157.813V68.12C157.813 67.4854 157.674 67.0054 157.397 66.68C157.12 66.3494 156.72 66.184 156.197 66.184C155.962 66.184 155.738 66.2267 155.525 66.312C155.317 66.392 155.133 66.512 154.973 66.672C154.813 66.832 154.685 67.0347 154.589 67.28C154.498 67.52 154.453 67.8 154.453 68.12V73.28H153.021V68.12C153.021 67.4694 152.89 66.984 152.629 66.664C152.368 66.344 151.986 66.184 151.485 66.184C151.133 66.184 150.808 66.28 150.509 66.472C150.21 66.6587 149.936 66.9147 149.685 67.24V73.28H148.253ZM165.801 69.632C165.145 69.6534 164.585 69.7067 164.121 69.792C163.663 69.872 163.287 69.9787 162.993 70.112C162.705 70.2454 162.495 70.4027 162.361 70.584C162.233 70.7654 162.169 70.968 162.169 71.192C162.169 71.4054 162.204 71.5894 162.273 71.744C162.343 71.8987 162.436 72.0267 162.553 72.128C162.676 72.224 162.817 72.296 162.977 72.344C163.143 72.3867 163.319 72.408 163.505 72.408C163.756 72.408 163.985 72.384 164.193 72.336C164.401 72.2827 164.596 72.208 164.777 72.112C164.964 72.016 165.14 71.9014 165.305 71.768C165.476 71.6347 165.641 71.4827 165.801 71.312V69.632ZM161.201 66.32C161.649 65.888 162.132 65.5654 162.649 65.352C163.167 65.1387 163.74 65.032 164.369 65.032C164.823 65.032 165.225 65.1067 165.577 65.256C165.929 65.4054 166.225 65.6134 166.465 65.88C166.705 66.1467 166.887 66.4694 167.009 66.848C167.132 67.2267 167.193 67.6427 167.193 68.096V73.28H166.561C166.423 73.28 166.316 73.2587 166.241 73.216C166.167 73.168 166.108 73.0774 166.065 72.944L165.905 72.176C165.692 72.3734 165.484 72.5494 165.281 72.704C165.079 72.8534 164.865 72.9814 164.641 73.088C164.417 73.1894 164.177 73.2667 163.921 73.32C163.671 73.3787 163.391 73.408 163.081 73.408C162.767 73.408 162.471 73.3654 162.193 73.28C161.916 73.1894 161.673 73.056 161.465 72.88C161.263 72.704 161.1 72.4827 160.977 72.216C160.86 71.944 160.801 71.624 160.801 71.256C160.801 70.936 160.889 70.6294 161.065 70.336C161.241 70.0374 161.527 69.7734 161.921 69.544C162.316 69.3147 162.831 69.128 163.465 68.984C164.1 68.8347 164.879 68.7494 165.801 68.728V68.096C165.801 67.4667 165.665 66.992 165.393 66.672C165.121 66.3467 164.724 66.184 164.201 66.184C163.849 66.184 163.553 66.2294 163.313 66.32C163.079 66.4054 162.873 66.504 162.697 66.616C162.527 66.7227 162.377 66.8214 162.249 66.912C162.127 66.9974 162.004 67.04 161.881 67.04C161.785 67.04 161.703 67.016 161.633 66.968C161.564 66.9147 161.505 66.8507 161.457 66.776L161.201 66.32ZM174.954 65.784C174.954 65.8854 174.936 65.984 174.898 66.08C174.866 66.176 174.821 66.2587 174.762 66.328L170.37 72.168H174.802V73.28H168.698V72.688C168.698 72.6187 168.714 72.5387 168.746 72.448C168.778 72.352 168.826 72.2614 168.89 72.176L173.306 66.296H168.946V65.176H174.954V65.784ZM178.101 65.176V73.28H176.677V65.176H178.101ZM178.405 62.632C178.405 62.7707 178.375 62.9014 178.317 63.024C178.263 63.1414 178.189 63.248 178.093 63.344C178.002 63.4347 177.893 63.5067 177.765 63.56C177.642 63.6134 177.511 63.64 177.373 63.64C177.234 63.64 177.103 63.6134 176.981 63.56C176.863 63.5067 176.759 63.4347 176.669 63.344C176.578 63.248 176.506 63.1414 176.453 63.024C176.399 62.9014 176.373 62.7707 176.373 62.632C176.373 62.4934 176.399 62.3627 176.453 62.24C176.506 62.112 176.578 62.0027 176.669 61.912C176.759 61.816 176.863 61.7414 176.981 61.688C177.103 61.6347 177.234 61.608 177.373 61.608C177.511 61.608 177.642 61.6347 177.765 61.688C177.893 61.7414 178.002 61.816 178.093 61.912C178.189 62.0027 178.263 62.112 178.317 62.24C178.375 62.3627 178.405 62.4934 178.405 62.632ZM181.785 66.352C181.961 66.1547 182.147 65.976 182.345 65.816C182.542 65.656 182.75 65.52 182.969 65.408C183.193 65.2907 183.427 65.2027 183.673 65.144C183.923 65.08 184.193 65.048 184.481 65.048C184.923 65.048 185.313 65.1227 185.649 65.272C185.99 65.416 186.273 65.624 186.497 65.896C186.726 66.1627 186.899 66.4854 187.017 66.864C187.134 67.2427 187.193 67.6614 187.193 68.12V73.28H185.761V68.12C185.761 67.5067 185.619 67.032 185.337 66.696C185.059 66.3547 184.635 66.184 184.065 66.184C183.643 66.184 183.249 66.2854 182.881 66.488C182.518 66.6907 182.182 66.9654 181.873 67.312V73.28H180.441V65.176H181.297C181.499 65.176 181.625 65.2747 181.673 65.472L181.785 66.352ZM192.186 69.32C192.474 69.32 192.728 69.28 192.946 69.2C193.165 69.12 193.349 69.008 193.498 68.864C193.648 68.72 193.76 68.5494 193.834 68.352C193.909 68.1494 193.946 67.928 193.946 67.688C193.946 67.192 193.794 66.7974 193.49 66.504C193.192 66.2107 192.757 66.064 192.186 66.064C191.61 66.064 191.17 66.2107 190.866 66.504C190.568 66.7974 190.418 67.192 190.418 67.688C190.418 67.928 190.456 68.1494 190.53 68.352C190.61 68.5494 190.725 68.72 190.874 68.864C191.024 69.008 191.208 69.12 191.426 69.2C191.645 69.28 191.898 69.32 192.186 69.32ZM194.754 73.72C194.754 73.5227 194.698 73.3627 194.586 73.24C194.474 73.1174 194.322 73.0214 194.13 72.952C193.944 72.8827 193.725 72.8347 193.474 72.808C193.224 72.776 192.957 72.752 192.674 72.736C192.397 72.72 192.114 72.704 191.826 72.688C191.538 72.672 191.261 72.6454 190.994 72.608C190.696 72.7467 190.45 72.9227 190.258 73.136C190.072 73.344 189.978 73.5894 189.978 73.872C189.978 74.0534 190.024 74.2214 190.114 74.376C190.21 74.536 190.354 74.672 190.546 74.784C190.738 74.9014 190.978 74.992 191.266 75.056C191.56 75.1254 191.904 75.16 192.298 75.16C192.682 75.16 193.026 75.1254 193.33 75.056C193.634 74.9867 193.89 74.888 194.098 74.76C194.312 74.632 194.474 74.48 194.586 74.304C194.698 74.128 194.754 73.9334 194.754 73.72ZM196.202 65.496V66.024C196.202 66.2 196.09 66.312 195.866 66.36L194.946 66.48C195.128 66.832 195.218 67.2214 195.218 67.648C195.218 68.0427 195.141 68.4027 194.986 68.728C194.837 69.048 194.629 69.3227 194.362 69.552C194.096 69.7814 193.776 69.9574 193.402 70.08C193.029 70.2027 192.624 70.264 192.186 70.264C191.808 70.264 191.45 70.2187 191.114 70.128C190.944 70.2347 190.813 70.3494 190.722 70.472C190.632 70.5894 190.586 70.7094 190.586 70.832C190.586 71.024 190.664 71.1707 190.818 71.272C190.978 71.368 191.186 71.4374 191.442 71.48C191.698 71.5227 191.989 71.5494 192.314 71.56C192.645 71.5707 192.981 71.5894 193.322 71.616C193.669 71.6374 194.005 71.6774 194.33 71.736C194.661 71.7947 194.954 71.8907 195.21 72.024C195.466 72.1574 195.672 72.3414 195.826 72.576C195.986 72.8107 196.066 73.1147 196.066 73.488C196.066 73.8347 195.978 74.1707 195.802 74.496C195.632 74.8214 195.384 75.1094 195.058 75.36C194.733 75.616 194.333 75.8187 193.858 75.968C193.389 76.1227 192.858 76.2 192.266 76.2C191.674 76.2 191.157 76.1414 190.714 76.024C190.272 75.9067 189.904 75.7494 189.61 75.552C189.317 75.3547 189.096 75.1254 188.946 74.864C188.802 74.608 188.73 74.3387 188.73 74.056C188.73 73.656 188.856 73.3174 189.106 73.04C189.357 72.7627 189.701 72.5414 190.138 72.376C189.898 72.2694 189.706 72.128 189.562 71.952C189.424 71.7707 189.354 71.528 189.354 71.224C189.354 71.1067 189.376 70.9867 189.418 70.864C189.461 70.736 189.525 70.6107 189.61 70.488C189.701 70.36 189.81 70.24 189.938 70.128C190.066 70.016 190.216 69.9174 190.386 69.832C189.986 69.608 189.674 69.312 189.45 68.944C189.226 68.5707 189.114 68.1387 189.114 67.648C189.114 67.2534 189.189 66.896 189.338 66.576C189.493 66.2507 189.706 65.976 189.978 65.752C190.25 65.5227 190.573 65.3467 190.946 65.224C191.325 65.1014 191.738 65.04 192.186 65.04C192.538 65.04 192.866 65.08 193.17 65.16C193.474 65.2347 193.752 65.3467 194.002 65.496H196.202ZM206.489 66.512C206.425 66.6294 206.326 66.688 206.193 66.688C206.113 66.688 206.022 66.6587 205.921 66.6C205.819 66.5414 205.694 66.4774 205.545 66.408C205.401 66.3334 205.227 66.2667 205.025 66.208C204.822 66.144 204.582 66.112 204.305 66.112C204.065 66.112 203.849 66.144 203.657 66.208C203.465 66.2667 203.299 66.3494 203.161 66.456C203.027 66.5627 202.923 66.688 202.849 66.832C202.779 66.9707 202.745 67.1227 202.745 67.288C202.745 67.496 202.803 67.6694 202.921 67.808C203.043 67.9467 203.203 68.0667 203.401 68.168C203.598 68.2694 203.822 68.36 204.073 68.44C204.323 68.5147 204.579 68.5974 204.841 68.688C205.107 68.7734 205.366 68.8694 205.617 68.976C205.867 69.0827 206.091 69.216 206.289 69.376C206.486 69.536 206.643 69.7334 206.761 69.968C206.883 70.1974 206.945 70.4747 206.945 70.8C206.945 71.1734 206.878 71.52 206.745 71.84C206.611 72.1547 206.414 72.4294 206.153 72.664C205.891 72.8934 205.571 73.0747 205.193 73.208C204.814 73.3414 204.377 73.408 203.881 73.408C203.315 73.408 202.803 73.3174 202.345 73.136C201.886 72.9494 201.497 72.712 201.177 72.424L201.513 71.88C201.555 71.8107 201.606 71.7574 201.665 71.72C201.723 71.6827 201.798 71.664 201.889 71.664C201.985 71.664 202.086 71.7014 202.193 71.776C202.299 71.8507 202.427 71.9334 202.577 72.024C202.731 72.1147 202.918 72.1974 203.137 72.272C203.355 72.3467 203.627 72.384 203.953 72.384C204.23 72.384 204.473 72.3494 204.681 72.28C204.889 72.2054 205.062 72.1067 205.201 71.984C205.339 71.8614 205.441 71.72 205.505 71.56C205.574 71.4 205.609 71.2294 205.609 71.048C205.609 70.824 205.547 70.64 205.425 70.496C205.307 70.3467 205.15 70.2214 204.953 70.12C204.755 70.0134 204.529 69.9227 204.273 69.848C204.022 69.768 203.763 69.6854 203.497 69.6C203.235 69.5147 202.977 69.4187 202.721 69.312C202.47 69.2 202.246 69.0614 202.049 68.896C201.851 68.7307 201.691 68.528 201.569 68.288C201.451 68.0427 201.393 67.7467 201.393 67.4C201.393 67.0907 201.457 66.7947 201.585 66.512C201.713 66.224 201.899 65.9734 202.145 65.76C202.39 65.5414 202.691 65.368 203.049 65.24C203.406 65.112 203.814 65.048 204.273 65.048C204.806 65.048 205.283 65.1334 205.705 65.304C206.131 65.4694 206.499 65.6987 206.809 65.992L206.489 66.512ZM214.115 68.344C214.115 68.0134 214.067 67.712 213.971 67.44C213.88 67.1627 213.744 66.9254 213.563 66.728C213.387 66.5254 213.171 66.3707 212.915 66.264C212.659 66.152 212.368 66.096 212.043 66.096C211.36 66.096 210.819 66.296 210.419 66.696C210.024 67.0907 209.779 67.64 209.683 68.344H214.115ZM215.267 72.144C215.091 72.3574 214.88 72.544 214.635 72.704C214.389 72.8587 214.125 72.9867 213.843 73.088C213.565 73.1894 213.277 73.264 212.979 73.312C212.68 73.3654 212.384 73.392 212.091 73.392C211.531 73.392 211.013 73.2987 210.539 73.112C210.069 72.92 209.661 72.6427 209.315 72.28C208.973 71.912 208.707 71.4587 208.515 70.92C208.323 70.3814 208.227 69.7627 208.227 69.064C208.227 68.4987 208.312 67.9707 208.483 67.48C208.659 66.9894 208.909 66.5654 209.235 66.208C209.56 65.8454 209.957 65.5627 210.427 65.36C210.896 65.152 211.424 65.048 212.011 65.048C212.496 65.048 212.944 65.1307 213.355 65.296C213.771 65.456 214.128 65.6907 214.427 66C214.731 66.304 214.968 66.6827 215.139 67.136C215.309 67.584 215.395 68.096 215.395 68.672C215.395 68.896 215.371 69.0454 215.323 69.12C215.275 69.1947 215.184 69.232 215.051 69.232H209.635C209.651 69.744 209.72 70.1894 209.843 70.568C209.971 70.9467 210.147 71.264 210.371 71.52C210.595 71.7707 210.861 71.96 211.171 72.088C211.48 72.2107 211.827 72.272 212.211 72.272C212.568 72.272 212.875 72.232 213.131 72.152C213.392 72.0667 213.616 71.976 213.803 71.88C213.989 71.784 214.144 71.696 214.267 71.616C214.395 71.5307 214.504 71.488 214.595 71.488C214.712 71.488 214.803 71.5334 214.867 71.624L215.267 72.144ZM218.496 66.8C218.752 66.2454 219.066 65.8134 219.44 65.504C219.813 65.1894 220.269 65.032 220.808 65.032C220.978 65.032 221.141 65.0507 221.296 65.088C221.456 65.1254 221.597 65.184 221.72 65.264L221.616 66.328C221.584 66.4614 221.504 66.528 221.376 66.528C221.301 66.528 221.192 66.512 221.048 66.48C220.904 66.448 220.741 66.432 220.56 66.432C220.304 66.432 220.074 66.4694 219.872 66.544C219.674 66.6187 219.496 66.7307 219.336 66.88C219.181 67.024 219.04 67.2054 218.912 67.424C218.789 67.6374 218.677 67.8827 218.576 68.16V73.28H217.144V65.176H217.96C218.114 65.176 218.221 65.2054 218.28 65.264C218.338 65.3227 218.378 65.424 218.4 65.568L218.496 66.8ZM229.916 65.176L226.612 73.28H225.332L222.028 65.176H223.188C223.305 65.176 223.401 65.2054 223.476 65.264C223.55 65.3227 223.601 65.392 223.628 65.472L225.684 70.688C225.748 70.8854 225.804 71.0774 225.852 71.264C225.9 71.4507 225.945 71.6374 225.988 71.824C226.03 71.6374 226.076 71.4507 226.124 71.264C226.172 71.0774 226.23 70.8854 226.3 70.688L228.38 65.472C228.412 65.3867 228.465 65.3174 228.54 65.264C228.614 65.2054 228.702 65.176 228.804 65.176H229.916ZM232.726 65.176V73.28H231.302V65.176H232.726ZM233.03 62.632C233.03 62.7707 233 62.9014 232.942 63.024C232.888 63.1414 232.814 63.248 232.718 63.344C232.627 63.4347 232.518 63.5067 232.39 63.56C232.267 63.6134 232.136 63.64 231.998 63.64C231.859 63.64 231.728 63.6134 231.606 63.56C231.488 63.5067 231.384 63.4347 231.294 63.344C231.203 63.248 231.131 63.1414 231.078 63.024C231.024 62.9014 230.998 62.7707 230.998 62.632C230.998 62.4934 231.024 62.3627 231.078 62.24C231.131 62.112 231.203 62.0027 231.294 61.912C231.384 61.816 231.488 61.7414 231.606 61.688C231.728 61.6347 231.859 61.608 231.998 61.608C232.136 61.608 232.267 61.6347 232.39 61.688C232.518 61.7414 232.627 61.816 232.718 61.912C232.814 62.0027 232.888 62.112 232.942 62.24C233 62.3627 233.03 62.4934 233.03 62.632ZM240.706 66.616C240.663 66.6747 240.62 66.72 240.578 66.752C240.535 66.784 240.476 66.8 240.402 66.8C240.322 66.8 240.234 66.768 240.138 66.704C240.042 66.6347 239.922 66.56 239.778 66.48C239.639 66.4 239.466 66.328 239.258 66.264C239.055 66.1947 238.804 66.16 238.506 66.16C238.106 66.16 237.754 66.232 237.45 66.376C237.146 66.5147 236.89 66.7174 236.682 66.984C236.479 67.2507 236.324 67.5734 236.218 67.952C236.116 68.3307 236.066 68.7547 236.066 69.224C236.066 69.7147 236.122 70.152 236.234 70.536C236.346 70.9147 236.503 71.2347 236.706 71.496C236.914 71.752 237.162 71.9494 237.45 72.088C237.743 72.2214 238.071 72.288 238.434 72.288C238.78 72.288 239.066 72.248 239.29 72.168C239.514 72.0827 239.698 71.9894 239.842 71.888C239.991 71.7867 240.114 71.696 240.21 71.616C240.311 71.5307 240.41 71.488 240.506 71.488C240.623 71.488 240.714 71.5334 240.778 71.624L241.178 72.144C241.002 72.3627 240.802 72.5494 240.578 72.704C240.354 72.8587 240.111 72.9894 239.85 73.096C239.594 73.1974 239.324 73.272 239.042 73.32C238.759 73.368 238.471 73.392 238.178 73.392C237.671 73.392 237.199 73.2987 236.762 73.112C236.33 72.9254 235.954 72.656 235.634 72.304C235.314 71.9467 235.063 71.5094 234.882 70.992C234.7 70.4747 234.61 69.8854 234.61 69.224C234.61 68.6214 234.692 68.064 234.858 67.552C235.028 67.04 235.274 66.6 235.594 66.232C235.919 65.8587 236.316 65.568 236.786 65.36C237.26 65.152 237.804 65.048 238.418 65.048C238.988 65.048 239.49 65.1414 239.922 65.328C240.359 65.5094 240.746 65.768 241.082 66.104L240.706 66.616ZM247.99 68.344C247.99 68.0134 247.942 67.712 247.846 67.44C247.755 67.1627 247.619 66.9254 247.438 66.728C247.262 66.5254 247.046 66.3707 246.79 66.264C246.534 66.152 246.243 66.096 245.918 66.096C245.235 66.096 244.694 66.296 244.294 66.696C243.899 67.0907 243.654 67.64 243.558 68.344H247.99ZM249.142 72.144C248.966 72.3574 248.755 72.544 248.51 72.704C248.264 72.8587 248 72.9867 247.718 73.088C247.44 73.1894 247.152 73.264 246.854 73.312C246.555 73.3654 246.259 73.392 245.966 73.392C245.406 73.392 244.888 73.2987 244.414 73.112C243.944 72.92 243.536 72.6427 243.19 72.28C242.848 71.912 242.582 71.4587 242.39 70.92C242.198 70.3814 242.102 69.7627 242.102 69.064C242.102 68.4987 242.187 67.9707 242.358 67.48C242.534 66.9894 242.784 66.5654 243.11 66.208C243.435 65.8454 243.832 65.5627 244.302 65.36C244.771 65.152 245.299 65.048 245.886 65.048C246.371 65.048 246.819 65.1307 247.23 65.296C247.646 65.456 248.003 65.6907 248.302 66C248.606 66.304 248.843 66.6827 249.014 67.136C249.184 67.584 249.27 68.096 249.27 68.672C249.27 68.896 249.246 69.0454 249.198 69.12C249.15 69.1947 249.059 69.232 248.926 69.232H243.51C243.526 69.744 243.595 70.1894 243.718 70.568C243.846 70.9467 244.022 71.264 244.246 71.52C244.47 71.7707 244.736 71.96 245.046 72.088C245.355 72.2107 245.702 72.272 246.086 72.272C246.443 72.272 246.75 72.232 247.006 72.152C247.267 72.0667 247.491 71.976 247.678 71.88C247.864 71.784 248.019 71.696 248.142 71.616C248.27 71.5307 248.379 71.488 248.47 71.488C248.587 71.488 248.678 71.5334 248.742 71.624L249.142 72.144ZM255.739 66.512C255.675 66.6294 255.576 66.688 255.443 66.688C255.363 66.688 255.272 66.6587 255.171 66.6C255.069 66.5414 254.944 66.4774 254.795 66.408C254.651 66.3334 254.477 66.2667 254.275 66.208C254.072 66.144 253.832 66.112 253.555 66.112C253.315 66.112 253.099 66.144 252.907 66.208C252.715 66.2667 252.549 66.3494 252.411 66.456C252.277 66.5627 252.173 66.688 252.099 66.832C252.029 66.9707 251.995 67.1227 251.995 67.288C251.995 67.496 252.053 67.6694 252.171 67.808C252.293 67.9467 252.453 68.0667 252.651 68.168C252.848 68.2694 253.072 68.36 253.323 68.44C253.573 68.5147 253.829 68.5974 254.091 68.688C254.357 68.7734 254.616 68.8694 254.867 68.976C255.117 69.0827 255.341 69.216 255.539 69.376C255.736 69.536 255.893 69.7334 256.011 69.968C256.133 70.1974 256.195 70.4747 256.195 70.8C256.195 71.1734 256.128 71.52 255.995 71.84C255.861 72.1547 255.664 72.4294 255.403 72.664C255.141 72.8934 254.821 73.0747 254.443 73.208C254.064 73.3414 253.627 73.408 253.131 73.408C252.565 73.408 252.053 73.3174 251.595 73.136C251.136 72.9494 250.747 72.712 250.427 72.424L250.763 71.88C250.805 71.8107 250.856 71.7574 250.915 71.72C250.973 71.6827 251.048 71.664 251.139 71.664C251.235 71.664 251.336 71.7014 251.443 71.776C251.549 71.8507 251.677 71.9334 251.827 72.024C251.981 72.1147 252.168 72.1974 252.387 72.272C252.605 72.3467 252.877 72.384 253.203 72.384C253.48 72.384 253.723 72.3494 253.931 72.28C254.139 72.2054 254.312 72.1067 254.451 71.984C254.589 71.8614 254.691 71.72 254.755 71.56C254.824 71.4 254.859 71.2294 254.859 71.048C254.859 70.824 254.797 70.64 254.675 70.496C254.557 70.3467 254.4 70.2214 254.203 70.12C254.005 70.0134 253.779 69.9227 253.523 69.848C253.272 69.768 253.013 69.6854 252.747 69.6C252.485 69.5147 252.227 69.4187 251.971 69.312C251.72 69.2 251.496 69.0614 251.299 68.896C251.101 68.7307 250.941 68.528 250.819 68.288C250.701 68.0427 250.643 67.7467 250.643 67.4C250.643 67.0907 250.707 66.7947 250.835 66.512C250.963 66.224 251.149 65.9734 251.395 65.76C251.64 65.5414 251.941 65.368 252.299 65.24C252.656 65.112 253.064 65.048 253.523 65.048C254.056 65.048 254.533 65.1334 254.955 65.304C255.381 65.4694 255.749 65.6987 256.059 65.992L255.739 66.512Z" fill="#ADADAD"/>
<defs>
<clipPath id="clip0_8336_989">
<rect width="60" height="60" fill="white" transform="translate(20 20.48)"/>
</clipPath>
<clipPath id="clip1_8336_989">
<rect width="60" height="60" fill="white" transform="translate(20 20.48)"/>
</clipPath>
<clipPath id="clip2_8336_989">
<rect width="60" height="60" fill="white" transform="translate(20 20.48)"/>
</clipPath>
</defs>
</svg>
