<svg width="321" height="108" viewBox="0 0 321 108" fill="none" xmlns="http://www.w3.org/2000/svg">
<rect y="0.47998" width="321" height="107" rx="10" fill="#F4F6FA"/>
<g clip-path="url(#clip0_8336_1049)">
<g clip-path="url(#clip1_8336_1049)">
<g clip-path="url(#clip2_8336_1049)">
<mask id="mask0_8336_1049" style="mask-type:luminance" maskUnits="userSpaceOnUse" x="20" y="20" width="60" height="60">
<path d="M79.8377 20.48H20.6484V79.6692H79.8377V20.48Z" fill="white"/>
</mask>
<g mask="url(#mask0_8336_1049)">
<path d="M32.4277 34.6228V50.4799C35.4277 49.4799 42.7992 49.2799 48.2849 56.4799C49.5706 59.1943 51.6277 65.4799 49.5706 68.9085L55.5706 72.3371V46.6228L32.4277 34.6228Z" fill="#FDC040"/>
<path d="M79.2379 33.2815L56.1857 20.6233C55.8394 20.4332 55.4194 20.4332 55.0731 20.6233L46.3843 25.3942C46.201 25.4425 46.0298 25.5347 45.888 25.667L32.0213 33.2815C31.6516 33.4842 31.4217 33.8726 31.4217 34.2948V49.6042C29.0825 50.3358 26.9389 51.6259 25.1565 53.4088C20.5107 58.0541 19.3262 65.1394 22.209 71.0392C22.489 71.6128 23.1813 71.8508 23.7548 71.5703C24.3287 71.2899 24.5663 70.5976 24.2863 70.0241C21.8369 65.0111 22.8435 58.9912 26.7912 55.0435C29.26 52.5747 32.542 51.215 36.0332 51.215C39.5243 51.215 42.8064 52.5747 45.2752 55.0435C47.7435 57.5118 49.1032 60.7939 49.1032 64.285C49.1032 67.7762 47.7435 71.0583 45.2747 73.527C41.3271 77.4747 35.307 78.4813 30.2941 76.0319C29.7206 75.7515 29.0283 75.9895 28.7483 76.5629C28.4679 77.137 28.7055 77.8292 29.2794 78.1091C31.4284 79.1596 33.7342 79.6698 36.0232 79.6698C40.0166 79.6694 43.9566 78.115 46.9099 75.1618C48.2642 73.8075 49.3344 72.245 50.0917 70.5466L55.0731 73.2818C55.2465 73.3771 55.438 73.4245 55.6294 73.4245C55.8208 73.4245 56.0128 73.3771 56.1857 73.2818L79.2379 60.6241C79.6078 60.4209 79.8376 60.0325 79.8376 59.6107V51.5767C79.8376 50.9382 79.3201 50.4207 78.6815 50.4207C78.043 50.4207 77.5255 50.9382 77.5255 51.5767V58.9266L56.7891 70.3132V47.6349L63.6328 43.8768V49.834C63.6328 50.2432 63.8486 50.6216 64.2004 50.8294C64.3819 50.9364 64.5851 50.9901 64.7888 50.9901C64.9803 50.9901 65.1722 50.9427 65.346 50.8469L70.2858 48.128C70.6552 47.9248 70.8842 47.5369 70.8842 47.1156V39.8949L77.5255 36.2483V42.3288C77.5255 42.9674 78.043 43.4849 78.6815 43.4849C79.3201 43.4849 79.8376 42.9674 79.8376 42.3288V34.2948C79.8376 33.873 79.6078 33.4842 79.2379 33.2815ZM55.6294 22.9552L76.2796 34.2948L69.7656 37.8718L49.1154 26.5322L55.6294 22.9552ZM55.6294 45.634L34.9792 34.2948L41.7321 30.5865L62.3828 41.9256L55.6294 45.634ZM64.7842 40.607L44.134 29.2678L46.7134 27.8513L67.3641 39.1904L64.7842 40.607ZM46.9099 53.4088C44.0044 50.5033 40.1416 48.9034 36.0332 48.9034C35.256 48.9034 34.4884 48.9607 33.7337 49.0732V36.2483L54.4774 47.639V70.3172L50.877 68.3402C51.2315 67.0351 51.4149 65.674 51.4149 64.285C51.4149 60.1766 49.8149 56.3138 46.9099 53.4088ZM68.5726 46.4323L65.9448 47.8787V42.6075L68.5726 41.1646V46.4323Z" fill="#3BB77E"/>
<path d="M78.6814 45.7903C78.3776 45.7903 78.079 45.9141 77.8641 46.129C77.6492 46.3439 77.5254 46.642 77.5254 46.9463C77.5254 47.2503 77.6492 47.5483 77.8641 47.7633C78.079 47.9787 78.3776 48.1019 78.6814 48.1019C78.9854 48.1019 79.2838 47.9787 79.4988 47.7633C79.7138 47.5483 79.8375 47.2503 79.8375 46.9463C79.8375 46.642 79.7138 46.3439 79.4988 46.129C79.2838 45.9141 78.9854 45.7903 78.6814 45.7903Z" fill="#3BB77E"/>
<path d="M32.1451 65.4404C32.4409 65.4404 32.7371 65.3275 32.9624 65.1021C33.414 64.6505 33.414 63.9185 32.9624 63.467L32.1618 62.6659H38.9941C40.6514 62.6659 41.9998 64.0142 41.9998 65.6715C41.9998 67.3288 40.6514 68.6773 38.9941 68.6773H34.9457C34.3072 68.6773 33.7897 69.1947 33.7897 69.8333C33.7897 70.4714 34.3072 70.9889 34.9457 70.9889H38.9941C41.9263 70.9889 44.3119 68.6036 44.3119 65.6715C44.3119 62.7394 41.9263 60.3542 38.9941 60.3542H32.1618L32.9624 59.5531C33.414 59.1015 33.414 58.3695 32.9624 57.918C32.5112 57.4668 31.7792 57.4668 31.3277 57.918L28.5532 60.6925C28.1021 61.144 28.1021 61.876 28.5532 62.3276L31.3277 65.1016C31.5535 65.3275 31.8493 65.4404 32.1451 65.4404Z" fill="#3BB77E"/>
<path d="M25.9751 75.5016C25.6464 75.5016 25.3199 75.3616 25.0918 75.0902L25.0896 75.0875C24.6786 74.5989 24.7419 73.87 25.2305 73.4591C25.7191 73.0477 26.4484 73.1109 26.8593 73.5995C27.2698 74.0886 27.2079 74.8188 26.7193 75.2297C26.5021 75.4122 26.2379 75.5016 25.9751 75.5016Z" fill="#3BB77E"/>
</g>
</g>
</g>
</g>
<path d="M102.376 33.0899H108.604C108.856 33.0899 109.066 33.1739 109.234 33.3419C109.414 33.5099 109.504 33.7199 109.504 33.9719C109.504 34.2239 109.414 34.4279 109.234 34.5839C109.066 34.7399 108.856 34.8179 108.604 34.8179H103.168L103.348 34.5119V38.5439L103.186 38.3639H107.794C108.046 38.3639 108.256 38.4479 108.424 38.6159C108.604 38.7839 108.694 38.9999 108.694 39.2639C108.694 39.5159 108.604 39.7199 108.424 39.8759C108.256 40.0319 108.046 40.1099 107.794 40.1099H103.222L103.348 39.9479V44.1059L103.222 43.9619H108.604C108.856 43.9619 109.066 44.0519 109.234 44.2319C109.414 44.3999 109.504 44.5979 109.504 44.8259C109.504 45.0779 109.414 45.2879 109.234 45.4559C109.066 45.6119 108.856 45.6899 108.604 45.6899H102.376C102.124 45.6899 101.908 45.6059 101.728 45.4379C101.548 45.2579 101.458 45.0359 101.458 44.7719V34.0079C101.458 33.7439 101.548 33.5279 101.728 33.3599C101.908 33.1799 102.124 33.0899 102.376 33.0899ZM119.301 36.0779C119.565 36.0779 119.781 36.1679 119.949 36.3479C120.117 36.5159 120.201 36.7319 120.201 36.9959V44.7719C120.201 45.0359 120.117 45.2579 119.949 45.4379C119.781 45.6059 119.565 45.6899 119.301 45.6899C119.049 45.6899 118.833 45.6059 118.653 45.4379C118.485 45.2579 118.401 45.0359 118.401 44.7719V43.4759L118.779 43.5299C118.779 43.7459 118.689 43.9859 118.509 44.2499C118.341 44.5139 118.107 44.7719 117.807 45.0239C117.507 45.2639 117.153 45.4679 116.745 45.6359C116.337 45.7919 115.899 45.8699 115.431 45.8699C114.603 45.8699 113.859 45.6599 113.199 45.2399C112.539 44.8079 112.017 44.2199 111.633 43.4759C111.249 42.7319 111.057 41.8859 111.057 40.9379C111.057 39.9659 111.249 39.1139 111.633 38.3819C112.017 37.6379 112.533 37.0559 113.181 36.6359C113.841 36.2159 114.573 36.0059 115.377 36.0059C115.893 36.0059 116.367 36.0899 116.799 36.2579C117.243 36.4259 117.627 36.6419 117.951 36.9059C118.275 37.1699 118.521 37.4519 118.689 37.7519C118.869 38.0399 118.959 38.3159 118.959 38.5799L118.401 38.6339V36.9959C118.401 36.7439 118.485 36.5279 118.653 36.3479C118.833 36.1679 119.049 36.0779 119.301 36.0779ZM115.629 44.2139C116.193 44.2139 116.691 44.0699 117.123 43.7819C117.555 43.4939 117.891 43.1039 118.131 42.6119C118.371 42.1079 118.491 41.5499 118.491 40.9379C118.491 40.3139 118.371 39.7559 118.131 39.2639C117.891 38.7719 117.555 38.3819 117.123 38.0939C116.691 37.8059 116.193 37.6619 115.629 37.6619C115.077 37.6619 114.585 37.8059 114.153 38.0939C113.733 38.3819 113.397 38.7719 113.145 39.2639C112.905 39.7559 112.785 40.3139 112.785 40.9379C112.785 41.5499 112.905 42.1079 113.145 42.6119C113.397 43.1039 113.733 43.4939 114.153 43.7819C114.585 44.0699 115.077 44.2139 115.629 44.2139ZM122.165 44.2139C122.057 44.0459 122.009 43.8539 122.021 43.6379C122.033 43.4099 122.159 43.2179 122.399 43.0619C122.567 42.9539 122.741 42.9119 122.921 42.9359C123.113 42.9479 123.293 43.0379 123.461 43.2059C123.797 43.5779 124.169 43.8719 124.577 44.0879C124.997 44.3039 125.501 44.4119 126.089 44.4119C126.329 44.3999 126.575 44.3639 126.827 44.3039C127.079 44.2319 127.295 44.1119 127.475 43.9439C127.655 43.7639 127.745 43.5059 127.745 43.1699C127.745 42.8699 127.649 42.6299 127.457 42.4499C127.265 42.2699 127.013 42.1259 126.701 42.0179C126.389 41.8979 126.053 41.7899 125.693 41.6939C125.309 41.5859 124.919 41.4659 124.523 41.3339C124.139 41.2019 123.791 41.0339 123.479 40.8299C123.167 40.6139 122.909 40.3379 122.705 40.0019C122.513 39.6659 122.417 39.2519 122.417 38.7599C122.417 38.1959 122.573 37.7099 122.885 37.3019C123.209 36.8939 123.623 36.5759 124.127 36.3479C124.643 36.1199 125.201 36.0059 125.801 36.0059C126.149 36.0059 126.515 36.0539 126.899 36.1499C127.283 36.2339 127.655 36.3719 128.015 36.5639C128.375 36.7559 128.687 37.0079 128.951 37.3199C129.071 37.4759 129.137 37.6619 129.149 37.8779C129.173 38.0939 129.077 38.2859 128.861 38.4539C128.717 38.5739 128.543 38.6279 128.339 38.6159C128.135 38.6039 127.967 38.5379 127.835 38.4179C127.607 38.1299 127.313 37.9079 126.953 37.7519C126.593 37.5839 126.185 37.4999 125.729 37.4999C125.501 37.4999 125.261 37.5359 125.009 37.6079C124.769 37.6679 124.565 37.7819 124.397 37.9499C124.229 38.1179 124.145 38.3639 124.145 38.6879C124.145 38.9879 124.241 39.2279 124.433 39.4079C124.637 39.5879 124.901 39.7379 125.225 39.8579C125.549 39.9779 125.903 40.0859 126.287 40.1819C126.659 40.2779 127.025 40.3919 127.385 40.5239C127.757 40.6559 128.087 40.8299 128.375 41.0459C128.675 41.2499 128.915 41.5199 129.095 41.8559C129.287 42.1799 129.383 42.5939 129.383 43.0979C129.383 43.6859 129.209 44.1899 128.861 44.6099C128.525 45.0179 128.093 45.3299 127.565 45.5459C127.049 45.7619 126.503 45.8699 125.927 45.8699C125.243 45.8699 124.559 45.7499 123.875 45.5099C123.203 45.2579 122.633 44.8259 122.165 44.2139ZM138.357 36.1499C138.621 36.1499 138.837 36.2399 139.005 36.4199C139.173 36.5879 139.257 36.8039 139.257 37.0679V44.8079C139.257 45.8639 139.053 46.7219 138.645 47.3819C138.249 48.0419 137.709 48.5219 137.025 48.8219C136.353 49.1339 135.591 49.2899 134.739 49.2899C134.307 49.2899 133.875 49.2479 133.443 49.1639C133.011 49.0919 132.657 48.9839 132.381 48.8399C132.093 48.7079 131.889 48.5459 131.769 48.3539C131.649 48.1619 131.631 47.9519 131.715 47.7239C131.799 47.4359 131.943 47.2379 132.147 47.1299C132.351 47.0339 132.561 47.0279 132.777 47.1119C132.981 47.1959 133.251 47.3039 133.587 47.4359C133.923 47.5679 134.307 47.6339 134.739 47.6339C135.327 47.6339 135.825 47.5379 136.233 47.3459C136.641 47.1539 136.947 46.8539 137.151 46.4459C137.367 46.0379 137.475 45.5099 137.475 44.8619V43.6199L137.763 44.0519C137.571 44.4479 137.319 44.7779 137.007 45.0419C136.695 45.3059 136.323 45.5099 135.891 45.6539C135.471 45.7979 135.003 45.8699 134.487 45.8699C133.827 45.8699 133.257 45.7259 132.777 45.4379C132.309 45.1379 131.949 44.7299 131.697 44.2139C131.445 43.6859 131.319 43.0859 131.319 42.4139V37.0679C131.319 36.8039 131.403 36.5879 131.571 36.4199C131.739 36.2399 131.955 36.1499 132.219 36.1499C132.471 36.1499 132.681 36.2399 132.849 36.4199C133.029 36.5879 133.119 36.8039 133.119 37.0679V41.9279C133.119 42.7199 133.293 43.3019 133.641 43.6739C133.989 44.0339 134.505 44.2139 135.189 44.2139C135.645 44.2139 136.041 44.1179 136.377 43.9259C136.713 43.7339 136.977 43.4699 137.169 43.1339C137.361 42.7859 137.457 42.3839 137.457 41.9279V37.0679C137.457 36.8039 137.541 36.5879 137.709 36.4199C137.889 36.2399 138.105 36.1499 138.357 36.1499ZM147.687 45.6899C147.423 45.6899 147.207 45.6059 147.039 45.4379C146.871 45.2579 146.787 45.0359 146.787 44.7719V37.1399C146.787 36.8759 146.871 36.6599 147.039 36.4919C147.207 36.3119 147.423 36.2219 147.687 36.2219C147.939 36.2219 148.149 36.3119 148.317 36.4919C148.497 36.6599 148.587 36.8759 148.587 37.1399V39.1559L148.407 38.3819C148.503 38.0459 148.647 37.7339 148.839 37.4459C149.043 37.1579 149.283 36.9059 149.559 36.6899C149.835 36.4739 150.141 36.3059 150.477 36.1859C150.825 36.0659 151.185 36.0059 151.557 36.0059C151.869 36.0059 152.139 36.0899 152.367 36.2579C152.595 36.4259 152.709 36.6359 152.709 36.8879C152.709 37.2119 152.625 37.4519 152.457 37.6079C152.289 37.7519 152.103 37.8239 151.899 37.8239C151.719 37.8239 151.545 37.7879 151.377 37.7159C151.209 37.6319 151.011 37.5899 150.783 37.5899C150.531 37.5899 150.273 37.6559 150.009 37.7879C149.745 37.9199 149.505 38.1179 149.289 38.3819C149.073 38.6339 148.899 38.9339 148.767 39.2819C148.647 39.6299 148.587 40.0199 148.587 40.4519V44.7719C148.587 45.0359 148.497 45.2579 148.317 45.4379C148.149 45.6059 147.939 45.6899 147.687 45.6899ZM158.316 45.8699C157.32 45.8699 156.456 45.6659 155.724 45.2579C154.992 44.8379 154.422 44.2679 154.014 43.5479C153.618 42.8159 153.42 41.9819 153.42 41.0459C153.42 39.9899 153.63 39.0899 154.05 38.3459C154.482 37.5899 155.04 37.0139 155.724 36.6179C156.408 36.2099 157.134 36.0059 157.902 36.0059C158.49 36.0059 159.048 36.1259 159.576 36.3659C160.104 36.5939 160.572 36.9179 160.98 37.3379C161.4 37.7459 161.73 38.2319 161.97 38.7959C162.21 39.3479 162.336 39.9539 162.348 40.6139C162.336 40.8539 162.24 41.0519 162.06 41.2079C161.88 41.3639 161.67 41.4419 161.43 41.4419H154.428L153.996 39.9119H160.764L160.422 40.2359V39.7859C160.398 39.3659 160.26 38.9999 160.008 38.6879C159.756 38.3639 159.444 38.1179 159.072 37.9499C158.7 37.7699 158.31 37.6799 157.902 37.6799C157.542 37.6799 157.194 37.7399 156.858 37.8599C156.534 37.9679 156.24 38.1479 155.976 38.3999C155.724 38.6519 155.52 38.9879 155.364 39.4079C155.22 39.8159 155.148 40.3259 155.148 40.9379C155.148 41.5979 155.286 42.1739 155.562 42.6659C155.838 43.1579 156.21 43.5419 156.678 43.8179C157.146 44.0819 157.662 44.2139 158.226 44.2139C158.67 44.2139 159.036 44.1719 159.324 44.0879C159.612 43.9919 159.852 43.8779 160.044 43.7459C160.236 43.6139 160.404 43.4879 160.548 43.3679C160.728 43.2599 160.908 43.2059 161.088 43.2059C161.304 43.2059 161.484 43.2839 161.628 43.4399C161.772 43.5839 161.844 43.7579 161.844 43.9619C161.844 44.2259 161.712 44.4659 161.448 44.6819C161.124 44.9939 160.674 45.2699 160.098 45.5099C159.534 45.7499 158.94 45.8699 158.316 45.8699ZM164.257 36.3299H168.487C168.727 36.3299 168.925 36.4139 169.081 36.5819C169.249 36.7379 169.333 36.9359 169.333 37.1759C169.333 37.4039 169.249 37.5959 169.081 37.7519C168.925 37.9079 168.727 37.9859 168.487 37.9859H164.257C164.017 37.9859 163.813 37.9079 163.645 37.7519C163.489 37.5839 163.411 37.3859 163.411 37.1579C163.411 36.9179 163.489 36.7199 163.645 36.5639C163.813 36.4079 164.017 36.3299 164.257 36.3299ZM166.147 33.9899C166.411 33.9899 166.627 34.0799 166.795 34.2599C166.963 34.4279 167.047 34.6439 167.047 34.9079V43.2599C167.047 43.4759 167.083 43.6499 167.155 43.7819C167.227 43.9139 167.323 44.0039 167.443 44.0519C167.575 44.0999 167.707 44.1239 167.839 44.1239C167.971 44.1239 168.085 44.0999 168.181 44.0519C168.289 44.0039 168.415 43.9799 168.559 43.9799C168.703 43.9799 168.835 44.0459 168.955 44.1779C169.075 44.3099 169.135 44.4899 169.135 44.7179C169.135 45.0059 168.979 45.2399 168.667 45.4199C168.355 45.5999 168.019 45.6899 167.659 45.6899C167.455 45.6899 167.215 45.6719 166.939 45.6359C166.663 45.5999 166.393 45.5099 166.129 45.3659C165.877 45.2219 165.667 44.9939 165.499 44.6819C165.331 44.3579 165.247 43.9079 165.247 43.3319V34.9079C165.247 34.6439 165.331 34.4279 165.499 34.2599C165.679 34.0799 165.895 33.9899 166.147 33.9899ZM178.382 36.2219C178.634 36.2219 178.844 36.3119 179.012 36.4919C179.192 36.6599 179.282 36.8759 179.282 37.1399V41.8739C179.282 43.1219 178.934 44.0999 178.238 44.8079C177.542 45.5039 176.558 45.8519 175.286 45.8519C174.026 45.8519 173.048 45.5039 172.352 44.8079C171.668 44.0999 171.326 43.1219 171.326 41.8739V37.1399C171.326 36.8759 171.41 36.6599 171.578 36.4919C171.746 36.3119 171.962 36.2219 172.226 36.2219C172.478 36.2219 172.688 36.3119 172.856 36.4919C173.036 36.6599 173.126 36.8759 173.126 37.1399V41.8739C173.126 42.6539 173.306 43.2359 173.666 43.6199C174.038 44.0039 174.578 44.1959 175.286 44.1959C176.006 44.1959 176.552 44.0039 176.924 43.6199C177.296 43.2359 177.482 42.6539 177.482 41.8739V37.1399C177.482 36.8759 177.566 36.6599 177.734 36.4919C177.902 36.3119 178.118 36.2219 178.382 36.2219ZM182.685 45.6899C182.421 45.6899 182.205 45.6059 182.037 45.4379C181.869 45.2579 181.785 45.0359 181.785 44.7719V37.1399C181.785 36.8759 181.869 36.6599 182.037 36.4919C182.205 36.3119 182.421 36.2219 182.685 36.2219C182.937 36.2219 183.147 36.3119 183.315 36.4919C183.495 36.6599 183.585 36.8759 183.585 37.1399V39.1559L183.405 38.3819C183.501 38.0459 183.645 37.7339 183.837 37.4459C184.041 37.1579 184.281 36.9059 184.557 36.6899C184.833 36.4739 185.139 36.3059 185.475 36.1859C185.823 36.0659 186.183 36.0059 186.555 36.0059C186.867 36.0059 187.137 36.0899 187.365 36.2579C187.593 36.4259 187.707 36.6359 187.707 36.8879C187.707 37.2119 187.623 37.4519 187.455 37.6079C187.287 37.7519 187.101 37.8239 186.897 37.8239C186.717 37.8239 186.543 37.7879 186.375 37.7159C186.207 37.6319 186.009 37.5899 185.781 37.5899C185.529 37.5899 185.271 37.6559 185.007 37.7879C184.743 37.9199 184.503 38.1179 184.287 38.3819C184.071 38.6339 183.897 38.9339 183.765 39.2819C183.645 39.6299 183.585 40.0199 183.585 40.4519V44.7719C183.585 45.0359 183.495 45.2579 183.315 45.4379C183.147 45.6059 182.937 45.6899 182.685 45.6899ZM194.187 36.0059C195.039 36.0059 195.699 36.1859 196.167 36.5459C196.635 36.8939 196.959 37.3679 197.139 37.9679C197.331 38.5559 197.427 39.2159 197.427 39.9479V44.7719C197.427 45.0359 197.337 45.2579 197.157 45.4379C196.989 45.6059 196.779 45.6899 196.527 45.6899C196.263 45.6899 196.047 45.6059 195.879 45.4379C195.711 45.2579 195.627 45.0359 195.627 44.7719V39.9659C195.627 39.5339 195.567 39.1499 195.447 38.8139C195.327 38.4659 195.117 38.1899 194.817 37.9859C194.529 37.7699 194.121 37.6619 193.593 37.6619C193.101 37.6619 192.669 37.7699 192.297 37.9859C191.925 38.1899 191.631 38.4659 191.415 38.8139C191.211 39.1499 191.109 39.5339 191.109 39.9659V44.7719C191.109 45.0359 191.019 45.2579 190.839 45.4379C190.671 45.6059 190.461 45.6899 190.209 45.6899C189.945 45.6899 189.729 45.6059 189.561 45.4379C189.393 45.2579 189.309 45.0359 189.309 44.7719V37.1399C189.309 36.8759 189.393 36.6599 189.561 36.4919C189.729 36.3119 189.945 36.2219 190.209 36.2219C190.461 36.2219 190.671 36.3119 190.839 36.4919C191.019 36.6599 191.109 36.8759 191.109 37.1399V38.1479L190.785 38.3279C190.869 38.0639 191.013 37.7999 191.217 37.5359C191.433 37.2599 191.691 37.0079 191.991 36.7799C192.291 36.5399 192.627 36.3539 192.999 36.2219C193.371 36.0779 193.767 36.0059 194.187 36.0059ZM199.368 44.2139C199.26 44.0459 199.212 43.8539 199.224 43.6379C199.236 43.4099 199.362 43.2179 199.602 43.0619C199.77 42.9539 199.944 42.9119 200.124 42.9359C200.316 42.9479 200.496 43.0379 200.664 43.2059C201 43.5779 201.372 43.8719 201.78 44.0879C202.2 44.3039 202.704 44.4119 203.292 44.4119C203.532 44.3999 203.778 44.3639 204.03 44.3039C204.282 44.2319 204.498 44.1119 204.678 43.9439C204.858 43.7639 204.948 43.5059 204.948 43.1699C204.948 42.8699 204.852 42.6299 204.66 42.4499C204.468 42.2699 204.216 42.1259 203.904 42.0179C203.592 41.8979 203.256 41.7899 202.896 41.6939C202.512 41.5859 202.122 41.4659 201.726 41.3339C201.342 41.2019 200.994 41.0339 200.682 40.8299C200.37 40.6139 200.112 40.3379 199.908 40.0019C199.716 39.6659 199.62 39.2519 199.62 38.7599C199.62 38.1959 199.776 37.7099 200.088 37.3019C200.412 36.8939 200.826 36.5759 201.33 36.3479C201.846 36.1199 202.404 36.0059 203.004 36.0059C203.352 36.0059 203.718 36.0539 204.102 36.1499C204.486 36.2339 204.858 36.3719 205.218 36.5639C205.578 36.7559 205.89 37.0079 206.154 37.3199C206.274 37.4759 206.34 37.6619 206.352 37.8779C206.376 38.0939 206.28 38.2859 206.064 38.4539C205.92 38.5739 205.746 38.6279 205.542 38.6159C205.338 38.6039 205.17 38.5379 205.038 38.4179C204.81 38.1299 204.516 37.9079 204.156 37.7519C203.796 37.5839 203.388 37.4999 202.932 37.4999C202.704 37.4999 202.464 37.5359 202.212 37.6079C201.972 37.6679 201.768 37.7819 201.6 37.9499C201.432 38.1179 201.348 38.3639 201.348 38.6879C201.348 38.9879 201.444 39.2279 201.636 39.4079C201.84 39.5879 202.104 39.7379 202.428 39.8579C202.752 39.9779 203.106 40.0859 203.49 40.1819C203.862 40.2779 204.228 40.3919 204.588 40.5239C204.96 40.6559 205.29 40.8299 205.578 41.0459C205.878 41.2499 206.118 41.5199 206.298 41.8559C206.49 42.1799 206.586 42.5939 206.586 43.0979C206.586 43.6859 206.412 44.1899 206.064 44.6099C205.728 45.0179 205.296 45.3299 204.768 45.5459C204.252 45.7619 203.706 45.8699 203.13 45.8699C202.446 45.8699 201.762 45.7499 201.078 45.5099C200.406 45.2579 199.836 44.8259 199.368 44.2139Z" fill="#242424"/>
<path d="M116.32 61.816L112.744 73.28H111.352L108.448 64.536C108.421 64.4507 108.395 64.36 108.368 64.264C108.347 64.168 108.323 64.0667 108.296 63.96C108.269 64.0667 108.243 64.168 108.216 64.264C108.189 64.36 108.163 64.4507 108.136 64.536L105.216 73.28H103.824L100.248 61.816H101.536C101.675 61.816 101.789 61.8507 101.88 61.92C101.976 61.9894 102.037 62.0774 102.064 62.184L104.432 70.152C104.469 70.296 104.504 70.4507 104.536 70.616C104.573 70.7814 104.608 70.9574 104.64 71.144C104.677 70.9574 104.715 70.7814 104.752 70.616C104.795 70.4454 104.84 70.2907 104.888 70.152L107.584 62.184C107.616 62.0934 107.677 62.0107 107.768 61.936C107.864 61.856 107.979 61.816 108.112 61.816H108.56C108.699 61.816 108.811 61.8507 108.896 61.92C108.981 61.9894 109.045 62.0774 109.088 62.184L111.776 70.152C111.824 70.2907 111.867 70.44 111.904 70.6C111.947 70.76 111.987 70.928 112.024 71.104C112.051 70.928 112.08 70.76 112.112 70.6C112.144 70.44 112.179 70.2907 112.216 70.152L114.592 62.184C114.619 62.088 114.677 62.0027 114.768 61.928C114.864 61.8534 114.979 61.816 115.112 61.816H116.32ZM119.132 65.176V73.28H117.708V65.176H119.132ZM119.436 62.632C119.436 62.7707 119.407 62.9014 119.348 63.024C119.295 63.1414 119.22 63.248 119.124 63.344C119.033 63.4347 118.924 63.5067 118.796 63.56C118.673 63.6134 118.543 63.64 118.404 63.64C118.265 63.64 118.135 63.6134 118.012 63.56C117.895 63.5067 117.791 63.4347 117.7 63.344C117.609 63.248 117.537 63.1414 117.484 63.024C117.431 62.9014 117.404 62.7707 117.404 62.632C117.404 62.4934 117.431 62.3627 117.484 62.24C117.537 62.112 117.609 62.0027 117.7 61.912C117.791 61.816 117.895 61.7414 118.012 61.688C118.135 61.6347 118.265 61.608 118.404 61.608C118.543 61.608 118.673 61.6347 118.796 61.688C118.924 61.7414 119.033 61.816 119.124 61.912C119.22 62.0027 119.295 62.112 119.348 62.24C119.407 62.3627 119.436 62.4934 119.436 62.632ZM123.96 73.408C123.32 73.408 122.826 73.2294 122.48 72.872C122.138 72.5147 121.968 72 121.968 71.328V66.368H120.992C120.906 66.368 120.834 66.344 120.776 66.296C120.717 66.2427 120.688 66.1627 120.688 66.056V65.488L122.016 65.32L122.344 62.816C122.36 62.736 122.394 62.672 122.448 62.624C122.506 62.5707 122.581 62.544 122.672 62.544H123.392V65.336H125.736V66.368H123.392V71.232C123.392 71.5734 123.474 71.8267 123.64 71.992C123.805 72.1574 124.018 72.24 124.28 72.24C124.429 72.24 124.557 72.2214 124.664 72.184C124.776 72.1414 124.872 72.096 124.952 72.048C125.032 72 125.098 71.9574 125.152 71.92C125.21 71.8774 125.261 71.856 125.304 71.856C125.378 71.856 125.445 71.9014 125.504 71.992L125.92 72.672C125.674 72.9014 125.378 73.0827 125.032 73.216C124.685 73.344 124.328 73.408 123.96 73.408ZM128.638 66.256C128.985 65.888 129.369 65.5947 129.79 65.376C130.211 65.1574 130.697 65.048 131.246 65.048C131.689 65.048 132.078 65.1227 132.414 65.272C132.755 65.416 133.038 65.624 133.262 65.896C133.491 66.1627 133.665 66.4854 133.782 66.864C133.899 67.2427 133.958 67.6614 133.958 68.12V73.28H132.526V68.12C132.526 67.5067 132.385 67.032 132.102 66.696C131.825 66.3547 131.401 66.184 130.83 66.184C130.409 66.184 130.014 66.2854 129.646 66.488C129.283 66.6907 128.947 66.9654 128.638 67.312V73.28H127.206V61.496H128.638V66.256ZM137.632 65.176V73.28H136.208V65.176H137.632ZM137.936 62.632C137.936 62.7707 137.907 62.9014 137.848 63.024C137.795 63.1414 137.72 63.248 137.624 63.344C137.533 63.4347 137.424 63.5067 137.296 63.56C137.173 63.6134 137.043 63.64 136.904 63.64C136.765 63.64 136.635 63.6134 136.512 63.56C136.395 63.5067 136.291 63.4347 136.2 63.344C136.109 63.248 136.037 63.1414 135.984 63.024C135.931 62.9014 135.904 62.7707 135.904 62.632C135.904 62.4934 135.931 62.3627 135.984 62.24C136.037 62.112 136.109 62.0027 136.2 61.912C136.291 61.816 136.395 61.7414 136.512 61.688C136.635 61.6347 136.765 61.608 136.904 61.608C137.043 61.608 137.173 61.6347 137.296 61.688C137.424 61.7414 137.533 61.816 137.624 61.912C137.72 62.0027 137.795 62.112 137.848 62.24C137.907 62.3627 137.936 62.4934 137.936 62.632ZM141.316 66.352C141.492 66.1547 141.678 65.976 141.876 65.816C142.073 65.656 142.281 65.52 142.5 65.408C142.724 65.2907 142.958 65.2027 143.204 65.144C143.454 65.08 143.724 65.048 144.012 65.048C144.454 65.048 144.844 65.1227 145.18 65.272C145.521 65.416 145.804 65.624 146.028 65.896C146.257 66.1627 146.43 66.4854 146.548 66.864C146.665 67.2427 146.724 67.6614 146.724 68.12V73.28H145.292V68.12C145.292 67.5067 145.15 67.032 144.868 66.696C144.59 66.3547 144.166 66.184 143.596 66.184C143.174 66.184 142.78 66.2854 142.412 66.488C142.049 66.6907 141.713 66.9654 141.404 67.312V73.28H139.972V65.176H140.828C141.03 65.176 141.156 65.2747 141.204 65.472L141.316 66.352ZM152.899 64.92C152.974 64.3974 153.118 63.936 153.331 63.536C153.545 63.1307 153.814 62.792 154.139 62.52C154.47 62.248 154.846 62.0427 155.267 61.904C155.694 61.76 156.153 61.688 156.643 61.688C157.129 61.688 157.577 61.7574 157.987 61.896C158.398 62.0347 158.75 62.232 159.043 62.488C159.342 62.744 159.574 63.0534 159.739 63.416C159.905 63.7787 159.987 64.1814 159.987 64.624C159.987 64.9867 159.939 65.312 159.843 65.6C159.753 65.8827 159.619 66.1307 159.443 66.344C159.273 66.5574 159.065 66.7387 158.819 66.888C158.574 67.0374 158.299 67.16 157.995 67.256C158.742 67.448 159.302 67.7787 159.675 68.248C160.054 68.712 160.243 69.2934 160.243 69.992C160.243 70.52 160.142 70.9947 159.939 71.416C159.742 71.8374 159.47 72.1974 159.123 72.496C158.777 72.7894 158.371 73.016 157.907 73.176C157.449 73.3307 156.955 73.408 156.427 73.408C155.819 73.408 155.299 73.3334 154.867 73.184C154.435 73.0294 154.07 72.8187 153.771 72.552C153.473 72.2854 153.227 71.9707 153.035 71.608C152.843 71.24 152.681 70.8427 152.547 70.416L153.163 70.16C153.323 70.0907 153.478 70.072 153.627 70.104C153.782 70.136 153.894 70.224 153.963 70.368C154.033 70.5174 154.118 70.696 154.219 70.904C154.326 71.112 154.47 71.312 154.651 71.504C154.833 71.696 155.062 71.8587 155.339 71.992C155.622 72.1254 155.979 72.192 156.411 72.192C156.811 72.192 157.161 72.128 157.459 72C157.763 71.8667 158.014 71.696 158.211 71.488C158.414 71.28 158.566 71.048 158.667 70.792C158.769 70.536 158.819 70.2827 158.819 70.032C158.819 69.7227 158.779 69.44 158.699 69.184C158.619 68.928 158.47 68.7067 158.251 68.52C158.033 68.3334 157.731 68.1867 157.347 68.08C156.969 67.9734 156.481 67.92 155.883 67.92V66.888C156.374 66.8827 156.79 66.8294 157.131 66.728C157.478 66.6267 157.758 66.488 157.971 66.312C158.19 66.136 158.347 65.9254 158.443 65.68C158.545 65.4347 158.595 65.1627 158.595 64.864C158.595 64.5334 158.542 64.2454 158.435 64C158.334 63.7547 158.193 63.552 158.011 63.392C157.83 63.232 157.614 63.112 157.363 63.032C157.118 62.952 156.851 62.912 156.563 62.912C156.275 62.912 156.006 62.9547 155.755 63.04C155.51 63.1254 155.291 63.2454 155.099 63.4C154.913 63.5494 154.755 63.728 154.627 63.936C154.499 64.144 154.409 64.3734 154.355 64.624C154.286 64.8107 154.198 64.936 154.091 65C153.99 65.0587 153.841 65.0747 153.643 65.048L152.899 64.92ZM169.941 67.552C169.941 68.5547 169.831 69.424 169.613 70.16C169.399 70.8907 169.106 71.496 168.733 71.976C168.359 72.456 167.917 72.8134 167.405 73.048C166.898 73.2827 166.354 73.4 165.773 73.4C165.186 73.4 164.639 73.2827 164.133 73.048C163.631 72.8134 163.194 72.456 162.821 71.976C162.447 71.496 162.154 70.8907 161.941 70.16C161.727 69.424 161.621 68.5547 161.621 67.552C161.621 66.5494 161.727 65.68 161.941 64.944C162.154 64.208 162.447 63.6 162.821 63.12C163.194 62.6347 163.631 62.2747 164.133 62.04C164.639 61.8054 165.186 61.688 165.773 61.688C166.354 61.688 166.898 61.8054 167.405 62.04C167.917 62.2747 168.359 62.6347 168.733 63.12C169.106 63.6 169.399 64.208 169.613 64.944C169.831 65.68 169.941 66.5494 169.941 67.552ZM168.461 67.552C168.461 66.6774 168.386 65.944 168.237 65.352C168.093 64.7547 167.895 64.2747 167.645 63.912C167.399 63.5494 167.114 63.2907 166.789 63.136C166.463 62.976 166.125 62.896 165.773 62.896C165.421 62.896 165.082 62.976 164.757 63.136C164.431 63.2907 164.146 63.5494 163.901 63.912C163.655 64.2747 163.458 64.7547 163.309 65.352C163.165 65.944 163.093 66.6774 163.093 67.552C163.093 68.4267 163.165 69.16 163.309 69.752C163.458 70.344 163.655 70.8214 163.901 71.184C164.146 71.5467 164.431 71.808 164.757 71.968C165.082 72.1227 165.421 72.2 165.773 72.2C166.125 72.2 166.463 72.1227 166.789 71.968C167.114 71.808 167.399 71.5467 167.645 71.184C167.895 70.8214 168.093 70.344 168.237 69.752C168.386 69.16 168.461 68.4267 168.461 67.552ZM180.924 67.104C180.657 66.7467 180.369 66.4987 180.06 66.36C179.75 66.216 179.404 66.144 179.02 66.144C178.268 66.144 177.689 66.4134 177.284 66.952C176.878 67.4907 176.676 68.2587 176.676 69.256C176.676 69.784 176.721 70.2374 176.812 70.616C176.902 70.9894 177.036 71.2987 177.212 71.544C177.388 71.784 177.604 71.96 177.86 72.072C178.116 72.184 178.406 72.24 178.732 72.24C179.201 72.24 179.609 72.1334 179.956 71.92C180.308 71.7067 180.63 71.4054 180.924 71.016V67.104ZM182.348 61.496V73.28H181.5C181.297 73.28 181.169 73.1814 181.116 72.984L180.988 72C180.641 72.416 180.246 72.752 179.804 73.008C179.361 73.264 178.849 73.392 178.268 73.392C177.804 73.392 177.382 73.304 177.004 73.128C176.625 72.9467 176.302 72.6827 176.036 72.336C175.769 71.9894 175.564 71.5574 175.42 71.04C175.276 70.5227 175.204 69.928 175.204 69.256C175.204 68.6587 175.284 68.104 175.444 67.592C175.604 67.0747 175.833 66.6267 176.132 66.248C176.43 65.8694 176.796 65.5734 177.228 65.36C177.665 65.1414 178.156 65.032 178.7 65.032C179.196 65.032 179.62 65.1174 179.972 65.288C180.329 65.4534 180.646 65.6854 180.924 65.984V61.496H182.348ZM188.989 69.632C188.333 69.6534 187.773 69.7067 187.309 69.792C186.85 69.872 186.474 69.9787 186.181 70.112C185.893 70.2454 185.682 70.4027 185.549 70.584C185.421 70.7654 185.357 70.968 185.357 71.192C185.357 71.4054 185.391 71.5894 185.461 71.744C185.53 71.8987 185.623 72.0267 185.741 72.128C185.863 72.224 186.005 72.296 186.165 72.344C186.33 72.3867 186.506 72.408 186.693 72.408C186.943 72.408 187.173 72.384 187.381 72.336C187.589 72.2827 187.783 72.208 187.965 72.112C188.151 72.016 188.327 71.9014 188.493 71.768C188.663 71.6347 188.829 71.4827 188.989 71.312V69.632ZM184.389 66.32C184.837 65.888 185.319 65.5654 185.837 65.352C186.354 65.1387 186.927 65.032 187.557 65.032C188.01 65.032 188.413 65.1067 188.765 65.256C189.117 65.4054 189.413 65.6134 189.653 65.88C189.893 66.1467 190.074 66.4694 190.197 66.848C190.319 67.2267 190.381 67.6427 190.381 68.096V73.28H189.749C189.61 73.28 189.503 73.2587 189.429 73.216C189.354 73.168 189.295 73.0774 189.253 72.944L189.093 72.176C188.879 72.3734 188.671 72.5494 188.469 72.704C188.266 72.8534 188.053 72.9814 187.829 73.088C187.605 73.1894 187.365 73.2667 187.109 73.32C186.858 73.3787 186.578 73.408 186.269 73.408C185.954 73.408 185.658 73.3654 185.381 73.28C185.103 73.1894 184.861 73.056 184.653 72.88C184.45 72.704 184.287 72.4827 184.165 72.216C184.047 71.944 183.989 71.624 183.989 71.256C183.989 70.936 184.077 70.6294 184.253 70.336C184.429 70.0374 184.714 69.7734 185.109 69.544C185.503 69.3147 186.018 69.128 186.653 68.984C187.287 68.8347 188.066 68.7494 188.989 68.728V68.096C188.989 67.4667 188.853 66.992 188.581 66.672C188.309 66.3467 187.911 66.184 187.389 66.184C187.037 66.184 186.741 66.2294 186.501 66.32C186.266 66.4054 186.061 66.504 185.885 66.616C185.714 66.7227 185.565 66.8214 185.437 66.912C185.314 66.9974 185.191 67.04 185.069 67.04C184.973 67.04 184.89 67.016 184.821 66.968C184.751 66.9147 184.693 66.8507 184.645 66.776L184.389 66.32ZM199.354 65.176L194.834 75.672C194.786 75.7787 194.725 75.864 194.65 75.928C194.581 75.992 194.472 76.024 194.322 76.024H193.266L194.746 72.808L191.402 65.176H192.634C192.757 65.176 192.853 65.208 192.922 65.272C192.997 65.3307 193.048 65.3974 193.074 65.472L195.242 70.576C195.328 70.8 195.4 71.0347 195.458 71.28C195.533 71.0294 195.613 70.792 195.698 70.568L197.802 65.472C197.834 65.3867 197.888 65.3174 197.962 65.264C198.042 65.2054 198.13 65.176 198.226 65.176H199.354ZM205.192 66.512C205.128 66.6294 205.029 66.688 204.896 66.688C204.816 66.688 204.725 66.6587 204.624 66.6C204.522 66.5414 204.397 66.4774 204.248 66.408C204.104 66.3334 203.93 66.2667 203.728 66.208C203.525 66.144 203.285 66.112 203.008 66.112C202.768 66.112 202.552 66.144 202.36 66.208C202.168 66.2667 202.002 66.3494 201.864 66.456C201.73 66.5627 201.626 66.688 201.552 66.832C201.482 66.9707 201.448 67.1227 201.448 67.288C201.448 67.496 201.506 67.6694 201.624 67.808C201.746 67.9467 201.906 68.0667 202.104 68.168C202.301 68.2694 202.525 68.36 202.776 68.44C203.026 68.5147 203.282 68.5974 203.544 68.688C203.81 68.7734 204.069 68.8694 204.32 68.976C204.57 69.0827 204.794 69.216 204.992 69.376C205.189 69.536 205.346 69.7334 205.464 69.968C205.586 70.1974 205.648 70.4747 205.648 70.8C205.648 71.1734 205.581 71.52 205.448 71.84C205.314 72.1547 205.117 72.4294 204.856 72.664C204.594 72.8934 204.274 73.0747 203.896 73.208C203.517 73.3414 203.08 73.408 202.584 73.408C202.018 73.408 201.506 73.3174 201.048 73.136C200.589 72.9494 200.2 72.712 199.88 72.424L200.216 71.88C200.258 71.8107 200.309 71.7574 200.368 71.72C200.426 71.6827 200.501 71.664 200.592 71.664C200.688 71.664 200.789 71.7014 200.896 71.776C201.002 71.8507 201.13 71.9334 201.28 72.024C201.434 72.1147 201.621 72.1974 201.84 72.272C202.058 72.3467 202.33 72.384 202.656 72.384C202.933 72.384 203.176 72.3494 203.384 72.28C203.592 72.2054 203.765 72.1067 203.904 71.984C204.042 71.8614 204.144 71.72 204.208 71.56C204.277 71.4 204.312 71.2294 204.312 71.048C204.312 70.824 204.25 70.64 204.128 70.496C204.01 70.3467 203.853 70.2214 203.656 70.12C203.458 70.0134 203.232 69.9227 202.976 69.848C202.725 69.768 202.466 69.6854 202.2 69.6C201.938 69.5147 201.68 69.4187 201.424 69.312C201.173 69.2 200.949 69.0614 200.752 68.896C200.554 68.7307 200.394 68.528 200.272 68.288C200.154 68.0427 200.096 67.7467 200.096 67.4C200.096 67.0907 200.16 66.7947 200.288 66.512C200.416 66.224 200.602 65.9734 200.848 65.76C201.093 65.5414 201.394 65.368 201.752 65.24C202.109 65.112 202.517 65.048 202.976 65.048C203.509 65.048 203.986 65.1334 204.408 65.304C204.834 65.4694 205.202 65.6987 205.512 65.992L205.192 66.512Z" fill="#ADADAD"/>
<defs>
<clipPath id="clip0_8336_1049">
<rect width="60" height="60" fill="white" transform="translate(20 20.48)"/>
</clipPath>
<clipPath id="clip1_8336_1049">
<rect width="60" height="60" fill="white" transform="translate(20 20.48)"/>
</clipPath>
<clipPath id="clip2_8336_1049">
<rect width="60" height="60" fill="white" transform="translate(20 20.48)"/>
</clipPath>
</defs>
</svg>
