<svg width="321" height="108" viewBox="0 0 321 108" fill="none" xmlns="http://www.w3.org/2000/svg">
<rect y="0.47998" width="321" height="107" rx="10" fill="#F4F6FA"/>
<g clip-path="url(#clip0_8336_969)">
<g clip-path="url(#clip1_8336_969)">
<mask id="mask0_8336_969" style="mask-type:luminance" maskUnits="userSpaceOnUse" x="20" y="20" width="60" height="60">
<path d="M79.305 20.48H20V79.785H79.305V20.48Z" fill="white"/>
</mask>
<g mask="url(#mask0_8336_969)">
<path d="M57.7146 24.7659H49.1431L38.8574 35.0516L44.0003 38.0516L49.1431 32.9087L59.8574 43.623L63.7146 48.3373L69.286 49.1944L71.8574 44.4802V28.1944L67.5717 24.7659H57.7146Z" fill="#FDC040"/>
<path d="M75.3668 32.8128H73.048L73.0502 28.6673C73.0516 25.8842 70.7888 23.6187 68.0052 23.6174L50.4063 23.6074H50.4041C49.4023 23.6074 48.4603 23.9974 47.7517 24.706L21.4782 50.9795C20.5249 51.9329 20 53.2002 20 54.5485C20 55.8969 20.5249 57.1642 21.4782 58.1176L38.5288 75.1681C39.5129 76.1522 40.8055 76.6441 42.0977 76.6441C43.3905 76.6441 44.6831 76.1522 45.6672 75.1681L62.2092 58.6261C62.6617 58.1737 62.6617 57.4402 62.2092 56.9882C61.7567 56.5357 61.0233 56.5357 60.5709 56.9882L44.0289 73.5302C42.9642 74.5949 41.2318 74.5949 40.1671 73.5302L23.1166 56.4797C22.6008 55.9639 22.3166 55.2779 22.3166 54.5485C22.3166 53.8192 22.6008 53.1332 23.1166 52.6174L49.3896 26.3444C49.6607 26.0733 50.0208 25.924 50.4041 25.924H50.405L68.0039 25.934C69.5097 25.9344 70.7345 27.1606 70.7336 28.6664L70.7282 38.3726H65.5109C65.0615 38.3726 64.6547 38.1889 64.3607 37.893C64.8453 37.6853 65.2996 37.3853 65.6945 36.9903C67.3591 35.3252 67.3591 32.6168 65.6945 30.9523C64.0295 29.2872 61.3211 29.2872 59.656 30.9523C57.9914 32.6168 57.9914 35.3252 59.656 36.9903C60.2731 37.6075 61.0342 37.9952 61.8319 38.155C62.3988 39.6349 63.8336 40.6892 65.5109 40.6892H70.7268L70.7237 46.2418C70.7237 46.625 70.5743 46.9848 70.3033 47.2553L67.1234 50.4356C66.6709 50.8881 66.6709 51.6216 67.1234 52.0741C67.5755 52.526 68.3088 52.526 68.7613 52.0741L71.9417 48.8937C72.6493 48.1855 73.0398 47.2445 73.0403 46.2432L73.0434 40.6892H75.3668C77.5382 40.6892 79.305 38.9228 79.305 36.751C79.305 34.5796 77.5382 32.8128 75.3668 32.8128ZM61.2943 32.5902C61.6753 32.2092 62.1753 32.0191 62.6757 32.0191C63.1757 32.0191 63.6756 32.2096 64.0566 32.5902C64.177 32.7109 64.2765 32.8444 64.3589 32.9851C63.0875 33.3747 62.0885 34.3923 61.7233 35.6746C61.5699 35.5891 61.4247 35.4827 61.2943 35.3524C60.5328 34.5905 60.5328 33.3517 61.2943 32.5902ZM75.3668 38.3726H73.0448L73.0466 35.1294H75.3668C76.2609 35.1294 76.9884 35.8569 76.9884 36.751C76.9884 37.645 76.2609 38.3726 75.3668 38.3726Z" fill="#3BB77E"/>
<path d="M38.697 52.8319C38.8395 53.3444 39.3051 53.6797 39.8118 53.6797C39.915 53.6797 40.0195 53.6662 40.1232 53.6372L52.0139 50.3275C52.6301 50.1559 52.9907 49.5171 52.8192 48.9008C52.6477 48.2851 52.0093 47.9245 51.3926 48.0959L39.5019 51.4052C38.8861 51.5772 38.5255 52.2156 38.697 52.8319Z" fill="#3BB77E"/>
<path d="M43.9301 54.3603C43.2848 55.0055 42.9297 55.8629 42.9297 56.7755C42.9297 57.6877 43.2848 58.5451 43.9301 59.1903C44.5961 59.8559 45.4703 60.1889 46.3448 60.1889C47.2194 60.1889 48.0941 59.8559 48.7601 59.1903C50.0916 57.8587 50.0916 55.6918 48.7601 54.3603C47.4285 53.0287 45.2616 53.0287 43.9301 54.3603ZM47.1217 57.5519C46.6932 57.9804 45.9965 57.9804 45.568 57.5519C45.3603 57.3447 45.2463 57.0687 45.2463 56.7751C45.2463 56.4819 45.3607 56.2059 45.568 55.9982C45.7824 55.7841 46.0638 55.6769 46.3448 55.6769C46.6263 55.6769 46.9077 55.7841 47.1217 55.9982C47.5502 56.4267 47.5502 57.1239 47.1217 57.5519Z" fill="#3BB77E"/>
<path d="M49.3345 47.4639C50.6661 46.1319 50.6661 43.9655 49.3345 42.6339C48.6894 41.9887 47.8315 41.6335 46.9193 41.6335C46.0071 41.6335 45.1493 41.9887 44.5045 42.6339C43.173 43.9655 43.173 46.1319 44.5045 47.4639C45.1705 48.1295 46.0447 48.4625 46.9193 48.4625C47.7939 48.4625 48.6685 48.1295 49.3345 47.4639ZM46.1425 44.2718C46.3501 44.0641 46.6261 43.9501 46.9193 43.9501C47.2129 43.9501 47.4889 44.0641 47.6962 44.2718C48.1247 44.7003 48.1247 45.3971 47.6962 45.8256C47.2681 46.2541 46.5709 46.2541 46.1425 45.8256C45.7144 45.3971 45.7144 44.7003 46.1425 44.2718Z" fill="#3BB77E"/>
<path d="M31.5208 50.4385C31.0684 49.986 30.335 49.986 29.8825 50.4385L26.5913 53.7297C26.3741 53.9469 26.252 54.2414 26.252 54.5486C26.252 54.8559 26.3741 55.1504 26.5913 55.3676L41.2796 70.0558C41.5054 70.2816 41.8022 70.3947 42.0985 70.3947C42.3949 70.3947 42.6912 70.2816 42.9175 70.0558L64.8781 48.0947C65.3306 47.6422 65.3306 46.9088 64.8781 46.4564L50.1904 31.7685C49.9732 31.5513 49.6786 31.4292 49.3714 31.4292C49.0642 31.4292 48.7696 31.5513 48.5524 31.7685L36.435 43.8859C35.9826 44.3384 35.9826 45.0718 36.435 45.5242C36.8871 45.9763 37.6205 45.9763 38.0729 45.5242L49.3714 34.2259L62.4213 47.2757L42.0985 67.5985L29.0486 54.5486L31.5208 52.0764C31.9729 51.6239 31.9733 50.8909 31.5208 50.4385Z" fill="#3BB77E"/>
<path d="M64.6662 53.3726C64.3612 53.3726 64.0626 53.4965 63.8472 53.7119C63.6318 53.9273 63.5078 54.2264 63.5078 54.5308C63.5078 54.8354 63.6318 55.1344 63.8472 55.3498C64.0626 55.5652 64.3612 55.6892 64.6662 55.6892C64.9706 55.6892 65.2692 55.5652 65.4851 55.3498C65.7005 55.1344 65.8244 54.8354 65.8244 54.5308C65.8244 54.2264 65.7005 53.9273 65.4851 53.7119C65.2692 53.4965 64.9706 53.3726 64.6662 53.3726Z" fill="#3BB77E"/>
<path d="M34.7951 48.7995C35.0119 48.5842 35.135 48.2864 35.135 47.9806C35.135 47.6761 35.0119 47.3784 34.7951 47.1616C34.5798 46.9463 34.282 46.8223 33.9766 46.8223C33.6716 46.8223 33.373 46.9463 33.1577 47.1616C32.9419 47.377 32.8184 47.6761 32.8184 47.9806C32.8184 48.2864 32.9419 48.5842 33.1577 48.7995C33.374 49.0163 33.6716 49.1389 33.9766 49.1389C34.282 49.1389 34.5798 49.0163 34.7951 48.7995Z" fill="#3BB77E"/>
</g>
</g>
</g>
<path d="M106.984 33.0899C108.088 33.0899 108.922 33.3599 109.486 33.8999C110.062 34.4399 110.35 35.2259 110.35 36.2579C110.35 36.7979 110.218 37.2899 109.954 37.7339C109.702 38.1659 109.324 38.5079 108.82 38.7599C108.328 39.0119 107.71 39.1439 106.966 39.1559L107.002 38.4899C107.398 38.4899 107.824 38.5439 108.28 38.6519C108.748 38.7599 109.186 38.9459 109.594 39.2099C110.002 39.4739 110.338 39.8339 110.602 40.2899C110.866 40.7339 110.998 41.2919 110.998 41.9639C110.998 42.6959 110.878 43.3079 110.638 43.7999C110.398 44.2799 110.08 44.6579 109.684 44.9339C109.288 45.2099 108.85 45.4079 108.37 45.5279C107.902 45.6359 107.44 45.6899 106.984 45.6899H102.376C102.124 45.6899 101.908 45.6059 101.728 45.4379C101.548 45.2579 101.458 45.0359 101.458 44.7719V34.0079C101.458 33.7439 101.548 33.5279 101.728 33.3599C101.908 33.1799 102.124 33.0899 102.376 33.0899H106.984ZM106.732 34.8539H103.186L103.402 34.5659V38.4359L103.204 38.2379H106.768C107.2 38.2259 107.578 38.0819 107.902 37.8059C108.238 37.5179 108.406 37.0979 108.406 36.5459C108.406 35.9819 108.256 35.5619 107.956 35.2859C107.656 34.9979 107.248 34.8539 106.732 34.8539ZM106.858 40.0019H103.276L103.402 39.8759V44.1239L103.258 43.9619H106.966C107.59 43.9619 108.094 43.7999 108.478 43.4759C108.862 43.1399 109.054 42.6359 109.054 41.9639C109.054 41.3999 108.94 40.9799 108.712 40.7039C108.484 40.4279 108.202 40.2419 107.866 40.1459C107.53 40.0499 107.194 40.0019 106.858 40.0019ZM117.43 45.8699C116.434 45.8699 115.57 45.6659 114.838 45.2579C114.106 44.8379 113.536 44.2679 113.128 43.5479C112.732 42.8159 112.534 41.9819 112.534 41.0459C112.534 39.9899 112.744 39.0899 113.164 38.3459C113.596 37.5899 114.154 37.0139 114.838 36.6179C115.522 36.2099 116.248 36.0059 117.016 36.0059C117.604 36.0059 118.162 36.1259 118.69 36.3659C119.218 36.5939 119.686 36.9179 120.094 37.3379C120.514 37.7459 120.844 38.2319 121.084 38.7959C121.324 39.3479 121.45 39.9539 121.462 40.6139C121.45 40.8539 121.354 41.0519 121.174 41.2079C120.994 41.3639 120.784 41.4419 120.544 41.4419H113.542L113.11 39.9119H119.878L119.536 40.2359V39.7859C119.512 39.3659 119.374 38.9999 119.122 38.6879C118.87 38.3639 118.558 38.1179 118.186 37.9499C117.814 37.7699 117.424 37.6799 117.016 37.6799C116.656 37.6799 116.308 37.7399 115.972 37.8599C115.648 37.9679 115.354 38.1479 115.09 38.3999C114.838 38.6519 114.634 38.9879 114.478 39.4079C114.334 39.8159 114.262 40.3259 114.262 40.9379C114.262 41.5979 114.4 42.1739 114.676 42.6659C114.952 43.1579 115.324 43.5419 115.792 43.8179C116.26 44.0819 116.776 44.2139 117.34 44.2139C117.784 44.2139 118.15 44.1719 118.438 44.0879C118.726 43.9919 118.966 43.8779 119.158 43.7459C119.35 43.6139 119.518 43.4879 119.662 43.3679C119.842 43.2599 120.022 43.2059 120.202 43.2059C120.418 43.2059 120.598 43.2839 120.742 43.4399C120.886 43.5839 120.958 43.7579 120.958 43.9619C120.958 44.2259 120.826 44.4659 120.562 44.6819C120.238 44.9939 119.788 45.2699 119.212 45.5099C118.648 45.7499 118.054 45.8699 117.43 45.8699ZM122.938 44.2139C122.83 44.0459 122.782 43.8539 122.794 43.6379C122.806 43.4099 122.932 43.2179 123.172 43.0619C123.34 42.9539 123.514 42.9119 123.694 42.9359C123.886 42.9479 124.066 43.0379 124.234 43.2059C124.57 43.5779 124.942 43.8719 125.35 44.0879C125.77 44.3039 126.274 44.4119 126.862 44.4119C127.102 44.3999 127.348 44.3639 127.6 44.3039C127.852 44.2319 128.068 44.1119 128.248 43.9439C128.428 43.7639 128.518 43.5059 128.518 43.1699C128.518 42.8699 128.422 42.6299 128.23 42.4499C128.038 42.2699 127.786 42.1259 127.474 42.0179C127.162 41.8979 126.826 41.7899 126.466 41.6939C126.082 41.5859 125.692 41.4659 125.296 41.3339C124.912 41.2019 124.564 41.0339 124.252 40.8299C123.94 40.6139 123.682 40.3379 123.478 40.0019C123.286 39.6659 123.19 39.2519 123.19 38.7599C123.19 38.1959 123.346 37.7099 123.658 37.3019C123.982 36.8939 124.396 36.5759 124.9 36.3479C125.416 36.1199 125.974 36.0059 126.574 36.0059C126.922 36.0059 127.288 36.0539 127.672 36.1499C128.056 36.2339 128.428 36.3719 128.788 36.5639C129.148 36.7559 129.46 37.0079 129.724 37.3199C129.844 37.4759 129.91 37.6619 129.922 37.8779C129.946 38.0939 129.85 38.2859 129.634 38.4539C129.49 38.5739 129.316 38.6279 129.112 38.6159C128.908 38.6039 128.74 38.5379 128.608 38.4179C128.38 38.1299 128.086 37.9079 127.726 37.7519C127.366 37.5839 126.958 37.4999 126.502 37.4999C126.274 37.4999 126.034 37.5359 125.782 37.6079C125.542 37.6679 125.338 37.7819 125.17 37.9499C125.002 38.1179 124.918 38.3639 124.918 38.6879C124.918 38.9879 125.014 39.2279 125.206 39.4079C125.41 39.5879 125.674 39.7379 125.998 39.8579C126.322 39.9779 126.676 40.0859 127.06 40.1819C127.432 40.2779 127.798 40.3919 128.158 40.5239C128.53 40.6559 128.86 40.8299 129.148 41.0459C129.448 41.2499 129.688 41.5199 129.868 41.8559C130.06 42.1799 130.156 42.5939 130.156 43.0979C130.156 43.6859 129.982 44.1899 129.634 44.6099C129.298 45.0179 128.866 45.3299 128.338 45.5459C127.822 45.7619 127.276 45.8699 126.7 45.8699C126.016 45.8699 125.332 45.7499 124.648 45.5099C123.976 45.2579 123.406 44.8259 122.938 44.2139ZM131.966 36.3299H136.196C136.436 36.3299 136.634 36.4139 136.79 36.5819C136.958 36.7379 137.042 36.9359 137.042 37.1759C137.042 37.4039 136.958 37.5959 136.79 37.7519C136.634 37.9079 136.436 37.9859 136.196 37.9859H131.966C131.726 37.9859 131.522 37.9079 131.354 37.7519C131.198 37.5839 131.12 37.3859 131.12 37.1579C131.12 36.9179 131.198 36.7199 131.354 36.5639C131.522 36.4079 131.726 36.3299 131.966 36.3299ZM133.856 33.9899C134.12 33.9899 134.336 34.0799 134.504 34.2599C134.672 34.4279 134.756 34.6439 134.756 34.9079V43.2599C134.756 43.4759 134.792 43.6499 134.864 43.7819C134.936 43.9139 135.032 44.0039 135.152 44.0519C135.284 44.0999 135.416 44.1239 135.548 44.1239C135.68 44.1239 135.794 44.0999 135.89 44.0519C135.998 44.0039 136.124 43.9799 136.268 43.9799C136.412 43.9799 136.544 44.0459 136.664 44.1779C136.784 44.3099 136.844 44.4899 136.844 44.7179C136.844 45.0059 136.688 45.2399 136.376 45.4199C136.064 45.5999 135.728 45.6899 135.368 45.6899C135.164 45.6899 134.924 45.6719 134.648 45.6359C134.372 45.5999 134.102 45.5099 133.838 45.3659C133.586 45.2219 133.376 44.9939 133.208 44.6819C133.04 44.3579 132.956 43.9079 132.956 43.3319V34.9079C132.956 34.6439 133.04 34.4279 133.208 34.2599C133.388 34.0799 133.604 33.9899 133.856 33.9899ZM148.815 36.0599C149.655 36.0599 150.399 36.2699 151.047 36.6899C151.707 37.1099 152.229 37.6859 152.613 38.4179C152.997 39.1379 153.189 39.9779 153.189 40.9379C153.189 41.8979 152.997 42.7499 152.613 43.4939C152.229 44.2259 151.713 44.8019 151.065 45.2219C150.417 45.6419 149.685 45.8519 148.869 45.8519C148.413 45.8519 147.981 45.7799 147.573 45.6359C147.165 45.4919 146.805 45.3059 146.493 45.0779C146.181 44.8379 145.923 44.5859 145.719 44.3219C145.527 44.0579 145.407 43.8119 145.359 43.5839L145.845 43.3499V48.3719C145.845 48.6359 145.755 48.8519 145.575 49.0199C145.407 49.1999 145.197 49.2899 144.945 49.2899C144.681 49.2899 144.465 49.1999 144.297 49.0199C144.129 48.8519 144.045 48.6359 144.045 48.3719V37.1039C144.045 36.8519 144.129 36.6359 144.297 36.4559C144.465 36.2759 144.681 36.1859 144.945 36.1859C145.197 36.1859 145.407 36.2759 145.575 36.4559C145.755 36.6359 145.845 36.8519 145.845 37.1039V38.3459L145.557 38.1839C145.593 37.9559 145.707 37.7219 145.899 37.4819C146.091 37.2299 146.331 36.9959 146.619 36.7799C146.919 36.5639 147.255 36.3899 147.627 36.2579C148.011 36.1259 148.407 36.0599 148.815 36.0599ZM148.617 37.7159C148.041 37.7159 147.537 37.8599 147.105 38.1479C146.685 38.4239 146.355 38.8019 146.115 39.2819C145.875 39.7619 145.755 40.3139 145.755 40.9379C145.755 41.5499 145.875 42.1079 146.115 42.6119C146.355 43.1039 146.685 43.4939 147.105 43.7819C147.537 44.0579 148.041 44.1959 148.617 44.1959C149.181 44.1959 149.673 44.0579 150.093 43.7819C150.513 43.4939 150.843 43.1039 151.083 42.6119C151.335 42.1079 151.461 41.5499 151.461 40.9379C151.461 40.3259 151.335 39.7799 151.083 39.2999C150.843 38.8079 150.513 38.4239 150.093 38.1479C149.673 37.8599 149.181 37.7159 148.617 37.7159ZM156.125 45.6899C155.861 45.6899 155.645 45.6059 155.477 45.4379C155.309 45.2579 155.225 45.0359 155.225 44.7719V37.1399C155.225 36.8759 155.309 36.6599 155.477 36.4919C155.645 36.3119 155.861 36.2219 156.125 36.2219C156.377 36.2219 156.587 36.3119 156.755 36.4919C156.935 36.6599 157.025 36.8759 157.025 37.1399V39.1559L156.845 38.3819C156.941 38.0459 157.085 37.7339 157.277 37.4459C157.481 37.1579 157.721 36.9059 157.997 36.6899C158.273 36.4739 158.579 36.3059 158.915 36.1859C159.263 36.0659 159.623 36.0059 159.995 36.0059C160.307 36.0059 160.577 36.0899 160.805 36.2579C161.033 36.4259 161.147 36.6359 161.147 36.8879C161.147 37.2119 161.063 37.4519 160.895 37.6079C160.727 37.7519 160.541 37.8239 160.337 37.8239C160.157 37.8239 159.983 37.7879 159.815 37.7159C159.647 37.6319 159.449 37.5899 159.221 37.5899C158.969 37.5899 158.711 37.6559 158.447 37.7879C158.183 37.9199 157.943 38.1179 157.727 38.3819C157.511 38.6339 157.337 38.9339 157.205 39.2819C157.085 39.6299 157.025 40.0199 157.025 40.4519V44.7719C157.025 45.0359 156.935 45.2579 156.755 45.4379C156.587 45.6059 156.377 45.6899 156.125 45.6899ZM164.44 44.7719C164.44 45.0359 164.356 45.2579 164.188 45.4379C164.02 45.6059 163.804 45.6899 163.54 45.6899C163.288 45.6899 163.072 45.6059 162.892 45.4379C162.724 45.2579 162.64 45.0359 162.64 44.7719V37.0679C162.64 36.8039 162.724 36.5879 162.892 36.4199C163.072 36.2399 163.288 36.1499 163.54 36.1499C163.804 36.1499 164.02 36.2399 164.188 36.4199C164.356 36.5879 164.44 36.8039 164.44 37.0679V44.7719ZM163.522 34.9619C163.174 34.9619 162.922 34.9019 162.766 34.7819C162.61 34.6499 162.532 34.4339 162.532 34.1339V33.8459C162.532 33.5459 162.616 33.3359 162.784 33.2159C162.952 33.0959 163.204 33.0359 163.54 33.0359C163.9 33.0359 164.158 33.1019 164.314 33.2339C164.47 33.3539 164.548 33.5579 164.548 33.8459V34.1339C164.548 34.4459 164.464 34.6619 164.296 34.7819C164.14 34.9019 163.882 34.9619 163.522 34.9619ZM171.056 36.0059C171.704 36.0059 172.28 36.0779 172.784 36.2219C173.288 36.3539 173.678 36.5459 173.954 36.7979C174.242 37.0379 174.386 37.3199 174.386 37.6439C174.386 37.8479 174.326 38.0399 174.206 38.2199C174.086 38.3879 173.906 38.4719 173.666 38.4719C173.498 38.4719 173.354 38.4419 173.234 38.3819C173.126 38.3219 173.024 38.2499 172.928 38.1659C172.832 38.0819 172.712 37.9979 172.568 37.9139C172.436 37.8419 172.238 37.7819 171.974 37.7339C171.722 37.6859 171.494 37.6619 171.29 37.6619C170.654 37.6619 170.102 37.8059 169.634 38.0939C169.178 38.3819 168.818 38.7719 168.554 39.2639C168.302 39.7559 168.176 40.3139 168.176 40.9379C168.176 41.5619 168.302 42.1199 168.554 42.6119C168.818 43.1039 169.172 43.4939 169.616 43.7819C170.072 44.0699 170.6 44.2139 171.2 44.2139C171.56 44.2139 171.854 44.1899 172.082 44.1419C172.31 44.0819 172.508 44.0099 172.676 43.9259C172.856 43.8179 173.006 43.7099 173.126 43.6019C173.258 43.4819 173.438 43.4219 173.666 43.4219C173.93 43.4219 174.128 43.5059 174.26 43.6739C174.404 43.8299 174.476 44.0279 174.476 44.2679C174.476 44.5319 174.314 44.7899 173.99 45.0419C173.678 45.2819 173.258 45.4799 172.73 45.6359C172.202 45.7919 171.62 45.8699 170.984 45.8699C170.048 45.8699 169.232 45.6539 168.536 45.2219C167.852 44.7899 167.318 44.2019 166.934 43.4579C166.562 42.7139 166.376 41.8739 166.376 40.9379C166.376 39.9899 166.574 39.1499 166.97 38.4179C167.366 37.6739 167.918 37.0859 168.626 36.6539C169.334 36.2219 170.144 36.0059 171.056 36.0059ZM180.606 45.8699C179.61 45.8699 178.746 45.6659 178.014 45.2579C177.282 44.8379 176.712 44.2679 176.304 43.5479C175.908 42.8159 175.71 41.9819 175.71 41.0459C175.71 39.9899 175.92 39.0899 176.34 38.3459C176.772 37.5899 177.33 37.0139 178.014 36.6179C178.698 36.2099 179.424 36.0059 180.192 36.0059C180.78 36.0059 181.338 36.1259 181.866 36.3659C182.394 36.5939 182.862 36.9179 183.27 37.3379C183.69 37.7459 184.02 38.2319 184.26 38.7959C184.5 39.3479 184.626 39.9539 184.638 40.6139C184.626 40.8539 184.53 41.0519 184.35 41.2079C184.17 41.3639 183.96 41.4419 183.72 41.4419H176.718L176.286 39.9119H183.054L182.712 40.2359V39.7859C182.688 39.3659 182.55 38.9999 182.298 38.6879C182.046 38.3639 181.734 38.1179 181.362 37.9499C180.99 37.7699 180.6 37.6799 180.192 37.6799C179.832 37.6799 179.484 37.7399 179.148 37.8599C178.824 37.9679 178.53 38.1479 178.266 38.3999C178.014 38.6519 177.81 38.9879 177.654 39.4079C177.51 39.8159 177.438 40.3259 177.438 40.9379C177.438 41.5979 177.576 42.1739 177.852 42.6659C178.128 43.1579 178.5 43.5419 178.968 43.8179C179.436 44.0819 179.952 44.2139 180.516 44.2139C180.96 44.2139 181.326 44.1719 181.614 44.0879C181.902 43.9919 182.142 43.8779 182.334 43.7459C182.526 43.6139 182.694 43.4879 182.838 43.3679C183.018 43.2599 183.198 43.2059 183.378 43.2059C183.594 43.2059 183.774 43.2839 183.918 43.4399C184.062 43.5839 184.134 43.7579 184.134 43.9619C184.134 44.2259 184.002 44.4659 183.738 44.6819C183.414 44.9939 182.964 45.2699 182.388 45.5099C181.824 45.7499 181.23 45.8699 180.606 45.8699ZM186.114 44.2139C186.006 44.0459 185.958 43.8539 185.97 43.6379C185.982 43.4099 186.108 43.2179 186.348 43.0619C186.516 42.9539 186.69 42.9119 186.87 42.9359C187.062 42.9479 187.242 43.0379 187.41 43.2059C187.746 43.5779 188.118 43.8719 188.526 44.0879C188.946 44.3039 189.45 44.4119 190.038 44.4119C190.278 44.3999 190.524 44.3639 190.776 44.3039C191.028 44.2319 191.244 44.1119 191.424 43.9439C191.604 43.7639 191.694 43.5059 191.694 43.1699C191.694 42.8699 191.598 42.6299 191.406 42.4499C191.214 42.2699 190.962 42.1259 190.65 42.0179C190.338 41.8979 190.002 41.7899 189.642 41.6939C189.258 41.5859 188.868 41.4659 188.472 41.3339C188.088 41.2019 187.74 41.0339 187.428 40.8299C187.116 40.6139 186.858 40.3379 186.654 40.0019C186.462 39.6659 186.366 39.2519 186.366 38.7599C186.366 38.1959 186.522 37.7099 186.834 37.3019C187.158 36.8939 187.572 36.5759 188.076 36.3479C188.592 36.1199 189.15 36.0059 189.75 36.0059C190.098 36.0059 190.464 36.0539 190.848 36.1499C191.232 36.2339 191.604 36.3719 191.964 36.5639C192.324 36.7559 192.636 37.0079 192.9 37.3199C193.02 37.4759 193.086 37.6619 193.098 37.8779C193.122 38.0939 193.026 38.2859 192.81 38.4539C192.666 38.5739 192.492 38.6279 192.288 38.6159C192.084 38.6039 191.916 38.5379 191.784 38.4179C191.556 38.1299 191.262 37.9079 190.902 37.7519C190.542 37.5839 190.134 37.4999 189.678 37.4999C189.45 37.4999 189.21 37.5359 188.958 37.6079C188.718 37.6679 188.514 37.7819 188.346 37.9499C188.178 38.1179 188.094 38.3639 188.094 38.6879C188.094 38.9879 188.19 39.2279 188.382 39.4079C188.586 39.5879 188.85 39.7379 189.174 39.8579C189.498 39.9779 189.852 40.0859 190.236 40.1819C190.608 40.2779 190.974 40.3919 191.334 40.5239C191.706 40.6559 192.036 40.8299 192.324 41.0459C192.624 41.2499 192.864 41.5199 193.044 41.8559C193.236 42.1799 193.332 42.5939 193.332 43.0979C193.332 43.6859 193.158 44.1899 192.81 44.6099C192.474 45.0179 192.042 45.3299 191.514 45.5459C190.998 45.7619 190.452 45.8699 189.876 45.8699C189.192 45.8699 188.508 45.7499 187.824 45.5099C187.152 45.2579 186.582 44.8259 186.114 44.2139ZM204.004 45.8699C203.152 45.8699 202.39 45.6839 201.718 45.3119C201.046 44.9279 200.518 44.4299 200.134 43.8179C199.75 43.2059 199.558 42.5579 199.558 41.8739C199.558 41.2979 199.66 40.7639 199.864 40.2719C200.08 39.7679 200.398 39.3239 200.818 38.9399C201.25 38.5559 201.796 38.2379 202.456 37.9859L203.644 39.2099C202.78 39.4019 202.186 39.7079 201.862 40.1279C201.55 40.5479 201.394 41.0399 201.394 41.6039C201.394 42.0239 201.496 42.4319 201.7 42.8279C201.904 43.2119 202.222 43.5299 202.654 43.7819C203.098 44.0339 203.674 44.1599 204.382 44.1599C205.018 44.1599 205.576 44.0339 206.056 43.7819C206.548 43.5179 206.968 43.1759 207.316 42.7559C207.664 42.3239 207.946 41.8499 208.162 41.3339C208.378 40.8059 208.528 40.2659 208.612 39.7139C208.636 39.5459 208.702 39.4199 208.81 39.3359C208.918 39.2399 209.098 39.1919 209.35 39.1919C209.614 39.1919 209.818 39.2939 209.962 39.4979C210.118 39.7019 210.178 39.9479 210.142 40.2359C210.034 40.9319 209.83 41.6159 209.53 42.2879C209.23 42.9479 208.828 43.5539 208.324 44.1059C207.82 44.6459 207.208 45.0779 206.488 45.4019C205.768 45.7139 204.94 45.8699 204.004 45.8699ZM210.394 45.6899C210.286 45.6899 210.184 45.6779 210.088 45.6539C210.004 45.6179 209.938 45.5819 209.89 45.5459C209.062 44.8619 208.294 44.2199 207.586 43.6199C206.89 43.0199 206.23 42.4259 205.606 41.8379C204.994 41.2379 204.388 40.6019 203.788 39.9299C203.368 39.4499 202.984 39.0059 202.636 38.5979C202.3 38.1899 202.024 37.7879 201.808 37.3919C201.604 36.9959 201.502 36.5759 201.502 36.1319C201.502 35.5559 201.652 35.0279 201.952 34.5479C202.264 34.0559 202.696 33.6599 203.248 33.3599C203.812 33.0599 204.478 32.9099 205.246 32.9099C206.086 32.9099 206.818 33.0599 207.442 33.3599C208.078 33.6479 208.51 34.0139 208.738 34.4579C208.75 34.4699 208.774 34.5359 208.81 34.6559C208.858 34.7639 208.882 34.8959 208.882 35.0519C208.882 35.2319 208.81 35.3939 208.666 35.5379C208.522 35.6819 208.33 35.7539 208.09 35.7539C207.934 35.7539 207.808 35.7239 207.712 35.6639C207.616 35.6039 207.544 35.5439 207.496 35.4839C207.232 35.1239 206.92 34.8599 206.56 34.6919C206.212 34.5239 205.774 34.4399 205.246 34.4399C204.646 34.4399 204.184 34.5959 203.86 34.9079C203.548 35.2199 203.392 35.6039 203.392 36.0599C203.392 36.4319 203.512 36.8099 203.752 37.1939C204.004 37.5779 204.292 37.9499 204.616 38.3099C204.952 38.6579 205.258 38.9819 205.534 39.2819C205.942 39.7259 206.386 40.1879 206.866 40.6679C207.358 41.1359 207.844 41.5859 208.324 42.0179C208.816 42.4499 209.272 42.8459 209.692 43.2059C210.112 43.5659 210.466 43.8719 210.754 44.1239C210.886 44.2439 210.982 44.3639 211.042 44.4839C211.114 44.6039 211.15 44.7479 211.15 44.9159C211.15 45.0479 211.09 45.2099 210.97 45.4019C210.85 45.5939 210.658 45.6899 210.394 45.6899ZM226.945 40.9559C226.945 41.9159 226.735 42.7679 226.315 43.5119C225.895 44.2439 225.325 44.8199 224.605 45.2399C223.885 45.6599 223.075 45.8699 222.175 45.8699C221.275 45.8699 220.465 45.6599 219.745 45.2399C219.025 44.8199 218.449 44.2439 218.017 43.5119C217.597 42.7679 217.387 41.9159 217.387 40.9559C217.387 39.9839 217.597 39.1319 218.017 38.3999C218.449 37.6559 219.025 37.0739 219.745 36.6539C220.465 36.2219 221.275 36.0059 222.175 36.0059C223.075 36.0059 223.885 36.2219 224.605 36.6539C225.325 37.0739 225.895 37.6559 226.315 38.3999C226.735 39.1319 226.945 39.9839 226.945 40.9559ZM225.145 40.9559C225.145 40.2959 225.013 39.7259 224.749 39.2459C224.485 38.7539 224.125 38.3699 223.669 38.0939C223.225 37.8059 222.727 37.6619 222.175 37.6619C221.623 37.6619 221.119 37.8059 220.663 38.0939C220.207 38.3699 219.847 38.7539 219.583 39.2459C219.319 39.7259 219.187 40.2959 219.187 40.9559C219.187 41.5919 219.319 42.1559 219.583 42.6479C219.847 43.1399 220.207 43.5239 220.663 43.7999C221.119 44.0759 221.623 44.2139 222.175 44.2139C222.727 44.2139 223.225 44.0759 223.669 43.7999C224.125 43.5239 224.485 43.1399 224.749 42.6479C225.013 42.1559 225.145 41.5919 225.145 40.9559ZM233.393 32.3879C233.621 32.3879 233.855 32.4179 234.095 32.4779C234.335 32.5379 234.533 32.6399 234.689 32.7839C234.857 32.9159 234.941 33.1019 234.941 33.3419C234.941 33.5819 234.869 33.7799 234.725 33.9359C234.581 34.0799 234.413 34.1519 234.221 34.1519C234.101 34.1519 233.939 34.1279 233.735 34.0799C233.531 34.0199 233.327 33.9899 233.123 33.9899C232.847 33.9899 232.625 34.0559 232.457 34.1879C232.289 34.3079 232.169 34.4639 232.097 34.6559C232.025 34.8359 231.989 35.0159 231.989 35.1959V44.7719C231.989 45.0359 231.899 45.2579 231.719 45.4379C231.551 45.6059 231.341 45.6899 231.089 45.6899C230.825 45.6899 230.609 45.6059 230.441 45.4379C230.273 45.2579 230.189 45.0359 230.189 44.7719V35.2139C230.189 34.3859 230.459 33.7079 230.999 33.1799C231.551 32.6519 232.349 32.3879 233.393 32.3879ZM233.753 36.3839C233.993 36.3839 234.191 36.4619 234.347 36.6179C234.503 36.7739 234.581 36.9719 234.581 37.2119C234.581 37.4519 234.503 37.6499 234.347 37.8059C234.191 37.9619 233.993 38.0399 233.753 38.0399H229.091C228.863 38.0399 228.665 37.9619 228.497 37.8059C228.341 37.6499 228.263 37.4519 228.263 37.2119C228.263 36.9719 228.341 36.7739 228.497 36.6179C228.665 36.4619 228.863 36.3839 229.091 36.3839H233.753ZM240.791 32.3879C241.019 32.3879 241.253 32.4179 241.493 32.4779C241.733 32.5379 241.931 32.6399 242.087 32.7839C242.255 32.9159 242.339 33.1019 242.339 33.3419C242.339 33.5819 242.267 33.7799 242.123 33.9359C241.979 34.0799 241.811 34.1519 241.619 34.1519C241.499 34.1519 241.337 34.1279 241.133 34.0799C240.929 34.0199 240.725 33.9899 240.521 33.9899C240.245 33.9899 240.023 34.0559 239.855 34.1879C239.687 34.3079 239.567 34.4639 239.495 34.6559C239.423 34.8359 239.387 35.0159 239.387 35.1959V44.7719C239.387 45.0359 239.297 45.2579 239.117 45.4379C238.949 45.6059 238.739 45.6899 238.487 45.6899C238.223 45.6899 238.007 45.6059 237.839 45.4379C237.671 45.2579 237.587 45.0359 237.587 44.7719V35.2139C237.587 34.3859 237.857 33.7079 238.397 33.1799C238.949 32.6519 239.747 32.3879 240.791 32.3879ZM241.151 36.3839C241.391 36.3839 241.589 36.4619 241.745 36.6179C241.901 36.7739 241.979 36.9719 241.979 37.2119C241.979 37.4519 241.901 37.6499 241.745 37.8059C241.589 37.9619 241.391 38.0399 241.151 38.0399H236.489C236.261 38.0399 236.063 37.9619 235.895 37.8059C235.739 37.6499 235.661 37.4519 235.661 37.2119C235.661 36.9719 235.739 36.7739 235.895 36.6179C236.063 36.4619 236.261 36.3839 236.489 36.3839H241.151ZM248.211 45.8699C247.215 45.8699 246.351 45.6659 245.619 45.2579C244.887 44.8379 244.317 44.2679 243.909 43.5479C243.513 42.8159 243.315 41.9819 243.315 41.0459C243.315 39.9899 243.525 39.0899 243.945 38.3459C244.377 37.5899 244.935 37.0139 245.619 36.6179C246.303 36.2099 247.029 36.0059 247.797 36.0059C248.385 36.0059 248.943 36.1259 249.471 36.3659C249.999 36.5939 250.467 36.9179 250.875 37.3379C251.295 37.7459 251.625 38.2319 251.865 38.7959C252.105 39.3479 252.231 39.9539 252.243 40.6139C252.231 40.8539 252.135 41.0519 251.955 41.2079C251.775 41.3639 251.565 41.4419 251.325 41.4419H244.323L243.891 39.9119H250.659L250.317 40.2359V39.7859C250.293 39.3659 250.155 38.9999 249.903 38.6879C249.651 38.3639 249.339 38.1179 248.967 37.9499C248.595 37.7699 248.205 37.6799 247.797 37.6799C247.437 37.6799 247.089 37.7399 246.753 37.8599C246.429 37.9679 246.135 38.1479 245.871 38.3999C245.619 38.6519 245.415 38.9879 245.259 39.4079C245.115 39.8159 245.043 40.3259 245.043 40.9379C245.043 41.5979 245.181 42.1739 245.457 42.6659C245.733 43.1579 246.105 43.5419 246.573 43.8179C247.041 44.0819 247.557 44.2139 248.121 44.2139C248.565 44.2139 248.931 44.1719 249.219 44.0879C249.507 43.9919 249.747 43.8779 249.939 43.7459C250.131 43.6139 250.299 43.4879 250.443 43.3679C250.623 43.2599 250.803 43.2059 250.983 43.2059C251.199 43.2059 251.379 43.2839 251.523 43.4399C251.667 43.5839 251.739 43.7579 251.739 43.9619C251.739 44.2259 251.607 44.4659 251.343 44.6819C251.019 44.9939 250.569 45.2699 249.993 45.5099C249.429 45.7499 248.835 45.8699 248.211 45.8699ZM255.178 45.6899C254.914 45.6899 254.698 45.6059 254.53 45.4379C254.362 45.2579 254.278 45.0359 254.278 44.7719V37.1399C254.278 36.8759 254.362 36.6599 254.53 36.4919C254.698 36.3119 254.914 36.2219 255.178 36.2219C255.43 36.2219 255.64 36.3119 255.808 36.4919C255.988 36.6599 256.078 36.8759 256.078 37.1399V39.1559L255.898 38.3819C255.994 38.0459 256.138 37.7339 256.33 37.4459C256.534 37.1579 256.774 36.9059 257.05 36.6899C257.326 36.4739 257.632 36.3059 257.968 36.1859C258.316 36.0659 258.676 36.0059 259.048 36.0059C259.36 36.0059 259.63 36.0899 259.858 36.2579C260.086 36.4259 260.2 36.6359 260.2 36.8879C260.2 37.2119 260.116 37.4519 259.948 37.6079C259.78 37.7519 259.594 37.8239 259.39 37.8239C259.21 37.8239 259.036 37.7879 258.868 37.7159C258.7 37.6319 258.502 37.5899 258.274 37.5899C258.022 37.5899 257.764 37.6559 257.5 37.7879C257.236 37.9199 256.996 38.1179 256.78 38.3819C256.564 38.6339 256.39 38.9339 256.258 39.2819C256.138 39.6299 256.078 40.0199 256.078 40.4519V44.7719C256.078 45.0359 255.988 45.2579 255.808 45.4379C255.64 45.6059 255.43 45.6899 255.178 45.6899ZM261.243 44.2139C261.135 44.0459 261.087 43.8539 261.099 43.6379C261.111 43.4099 261.237 43.2179 261.477 43.0619C261.645 42.9539 261.819 42.9119 261.999 42.9359C262.191 42.9479 262.371 43.0379 262.539 43.2059C262.875 43.5779 263.247 43.8719 263.655 44.0879C264.075 44.3039 264.579 44.4119 265.167 44.4119C265.407 44.3999 265.653 44.3639 265.905 44.3039C266.157 44.2319 266.373 44.1119 266.553 43.9439C266.733 43.7639 266.823 43.5059 266.823 43.1699C266.823 42.8699 266.727 42.6299 266.535 42.4499C266.343 42.2699 266.091 42.1259 265.779 42.0179C265.467 41.8979 265.131 41.7899 264.771 41.6939C264.387 41.5859 263.997 41.4659 263.601 41.3339C263.217 41.2019 262.869 41.0339 262.557 40.8299C262.245 40.6139 261.987 40.3379 261.783 40.0019C261.591 39.6659 261.495 39.2519 261.495 38.7599C261.495 38.1959 261.651 37.7099 261.963 37.3019C262.287 36.8939 262.701 36.5759 263.205 36.3479C263.721 36.1199 264.279 36.0059 264.879 36.0059C265.227 36.0059 265.593 36.0539 265.977 36.1499C266.361 36.2339 266.733 36.3719 267.093 36.5639C267.453 36.7559 267.765 37.0079 268.029 37.3199C268.149 37.4759 268.215 37.6619 268.227 37.8779C268.251 38.0939 268.155 38.2859 267.939 38.4539C267.795 38.5739 267.621 38.6279 267.417 38.6159C267.213 38.6039 267.045 38.5379 266.913 38.4179C266.685 38.1299 266.391 37.9079 266.031 37.7519C265.671 37.5839 265.263 37.4999 264.807 37.4999C264.579 37.4999 264.339 37.5359 264.087 37.6079C263.847 37.6679 263.643 37.7819 263.475 37.9499C263.307 38.1179 263.223 38.3639 263.223 38.6879C263.223 38.9879 263.319 39.2279 263.511 39.4079C263.715 39.5879 263.979 39.7379 264.303 39.8579C264.627 39.9779 264.981 40.0859 265.365 40.1819C265.737 40.2779 266.103 40.3919 266.463 40.5239C266.835 40.6559 267.165 40.8299 267.453 41.0459C267.753 41.2499 267.993 41.5199 268.173 41.8559C268.365 42.1799 268.461 42.5939 268.461 43.0979C268.461 43.6859 268.287 44.1899 267.939 44.6099C267.603 45.0179 267.171 45.3299 266.643 45.5459C266.127 45.7619 265.581 45.8699 265.005 45.8699C264.321 45.8699 263.637 45.7499 262.953 45.5099C262.281 45.2579 261.711 44.8259 261.243 44.2139Z" fill="#242424"/>
<path d="M112.056 67.552C112.056 68.4107 111.92 69.2 111.648 69.92C111.376 70.6347 110.992 71.2507 110.496 71.768C110 72.2854 109.403 72.688 108.704 72.976C108.011 73.2587 107.243 73.4 106.4 73.4C105.557 73.4 104.789 73.2587 104.096 72.976C103.403 72.688 102.808 72.2854 102.312 71.768C101.816 71.2507 101.432 70.6347 101.16 69.92C100.888 69.2 100.752 68.4107 100.752 67.552C100.752 66.6934 100.888 65.9067 101.16 65.192C101.432 64.472 101.816 63.8534 102.312 63.336C102.808 62.8134 103.403 62.408 104.096 62.12C104.789 61.832 105.557 61.688 106.4 61.688C107.243 61.688 108.011 61.832 108.704 62.12C109.403 62.408 110 62.8134 110.496 63.336C110.992 63.8534 111.376 64.472 111.648 65.192C111.92 65.9067 112.056 66.6934 112.056 67.552ZM110.464 67.552C110.464 66.848 110.368 66.216 110.176 65.656C109.984 65.096 109.712 64.624 109.36 64.24C109.008 63.8507 108.581 63.552 108.08 63.344C107.579 63.136 107.019 63.032 106.4 63.032C105.787 63.032 105.229 63.136 104.728 63.344C104.227 63.552 103.797 63.8507 103.44 64.24C103.088 64.624 102.816 65.096 102.624 65.656C102.432 66.216 102.336 66.848 102.336 67.552C102.336 68.256 102.432 68.888 102.624 69.448C102.816 70.0027 103.088 70.4747 103.44 70.864C103.797 71.248 104.227 71.544 104.728 71.752C105.229 71.9547 105.787 72.056 106.4 72.056C107.019 72.056 107.579 71.9547 108.08 71.752C108.581 71.544 109.008 71.248 109.36 70.864C109.712 70.4747 109.984 70.0027 110.176 69.448C110.368 68.888 110.464 68.256 110.464 67.552ZM115.136 66.8C115.392 66.2454 115.707 65.8134 116.08 65.504C116.454 65.1894 116.91 65.032 117.448 65.032C117.619 65.032 117.782 65.0507 117.936 65.088C118.096 65.1254 118.238 65.184 118.36 65.264L118.256 66.328C118.224 66.4614 118.144 66.528 118.016 66.528C117.942 66.528 117.832 66.512 117.688 66.48C117.544 66.448 117.382 66.432 117.2 66.432C116.944 66.432 116.715 66.4694 116.512 66.544C116.315 66.6187 116.136 66.7307 115.976 66.88C115.822 67.024 115.68 67.2054 115.552 67.424C115.43 67.6374 115.318 67.8827 115.216 68.16V73.28H113.784V65.176H114.6C114.755 65.176 114.862 65.2054 114.92 65.264C114.979 65.3227 115.019 65.424 115.04 65.568L115.136 66.8ZM124.58 67.104C124.313 66.7467 124.025 66.4987 123.716 66.36C123.407 66.216 123.06 66.144 122.676 66.144C121.924 66.144 121.345 66.4134 120.94 66.952C120.535 67.4907 120.332 68.2587 120.332 69.256C120.332 69.784 120.377 70.2374 120.468 70.616C120.559 70.9894 120.692 71.2987 120.868 71.544C121.044 71.784 121.26 71.96 121.516 72.072C121.772 72.184 122.063 72.24 122.388 72.24C122.857 72.24 123.265 72.1334 123.612 71.92C123.964 71.7067 124.287 71.4054 124.58 71.016V67.104ZM126.004 61.496V73.28H125.156C124.953 73.28 124.825 73.1814 124.772 72.984L124.644 72C124.297 72.416 123.903 72.752 123.46 73.008C123.017 73.264 122.505 73.392 121.924 73.392C121.46 73.392 121.039 73.304 120.66 73.128C120.281 72.9467 119.959 72.6827 119.692 72.336C119.425 71.9894 119.22 71.5574 119.076 71.04C118.932 70.5227 118.86 69.928 118.86 69.256C118.86 68.6587 118.94 68.104 119.1 67.592C119.26 67.0747 119.489 66.6267 119.788 66.248C120.087 65.8694 120.452 65.5734 120.884 65.36C121.321 65.1414 121.812 65.032 122.356 65.032C122.852 65.032 123.276 65.1174 123.628 65.288C123.985 65.4534 124.303 65.6854 124.58 65.984V61.496H126.004ZM133.677 68.344C133.677 68.0134 133.629 67.712 133.533 67.44C133.442 67.1627 133.306 66.9254 133.125 66.728C132.949 66.5254 132.733 66.3707 132.477 66.264C132.221 66.152 131.93 66.096 131.605 66.096C130.922 66.096 130.381 66.296 129.981 66.696C129.586 67.0907 129.341 67.64 129.245 68.344H133.677ZM134.829 72.144C134.653 72.3574 134.442 72.544 134.197 72.704C133.952 72.8587 133.688 72.9867 133.405 73.088C133.128 73.1894 132.84 73.264 132.541 73.312C132.242 73.3654 131.946 73.392 131.653 73.392C131.093 73.392 130.576 73.2987 130.101 73.112C129.632 72.92 129.224 72.6427 128.877 72.28C128.536 71.912 128.269 71.4587 128.077 70.92C127.885 70.3814 127.789 69.7627 127.789 69.064C127.789 68.4987 127.874 67.9707 128.045 67.48C128.221 66.9894 128.472 66.5654 128.797 66.208C129.122 65.8454 129.52 65.5627 129.989 65.36C130.458 65.152 130.986 65.048 131.573 65.048C132.058 65.048 132.506 65.1307 132.917 65.296C133.333 65.456 133.69 65.6907 133.989 66C134.293 66.304 134.53 66.6827 134.701 67.136C134.872 67.584 134.957 68.096 134.957 68.672C134.957 68.896 134.933 69.0454 134.885 69.12C134.837 69.1947 134.746 69.232 134.613 69.232H129.197C129.213 69.744 129.282 70.1894 129.405 70.568C129.533 70.9467 129.709 71.264 129.933 71.52C130.157 71.7707 130.424 71.96 130.733 72.088C131.042 72.2107 131.389 72.272 131.773 72.272C132.13 72.272 132.437 72.232 132.693 72.152C132.954 72.0667 133.178 71.976 133.365 71.88C133.552 71.784 133.706 71.696 133.829 71.616C133.957 71.5307 134.066 71.488 134.157 71.488C134.274 71.488 134.365 71.5334 134.429 71.624L134.829 72.144ZM138.058 66.8C138.314 66.2454 138.629 65.8134 139.002 65.504C139.375 65.1894 139.831 65.032 140.37 65.032C140.541 65.032 140.703 65.0507 140.858 65.088C141.018 65.1254 141.159 65.184 141.282 65.264L141.178 66.328C141.146 66.4614 141.066 66.528 140.938 66.528C140.863 66.528 140.754 66.512 140.61 66.48C140.466 66.448 140.303 66.432 140.122 66.432C139.866 66.432 139.637 66.4694 139.434 66.544C139.237 66.6187 139.058 66.7307 138.898 66.88C138.743 67.024 138.602 67.2054 138.474 67.424C138.351 67.6374 138.239 67.8827 138.138 68.16V73.28H136.706V65.176H137.522C137.677 65.176 137.783 65.2054 137.842 65.264C137.901 65.3227 137.941 65.424 137.962 65.568L138.058 66.8ZM147.207 66.512C147.143 66.6294 147.045 66.688 146.911 66.688C146.831 66.688 146.741 66.6587 146.639 66.6C146.538 66.5414 146.413 66.4774 146.263 66.408C146.119 66.3334 145.946 66.2667 145.743 66.208C145.541 66.144 145.301 66.112 145.023 66.112C144.783 66.112 144.567 66.144 144.375 66.208C144.183 66.2667 144.018 66.3494 143.879 66.456C143.746 66.5627 143.642 66.688 143.567 66.832C143.498 66.9707 143.463 67.1227 143.463 67.288C143.463 67.496 143.522 67.6694 143.639 67.808C143.762 67.9467 143.922 68.0667 144.119 68.168C144.317 68.2694 144.541 68.36 144.791 68.44C145.042 68.5147 145.298 68.5974 145.559 68.688C145.826 68.7734 146.085 68.8694 146.335 68.976C146.586 69.0827 146.81 69.216 147.007 69.376C147.205 69.536 147.362 69.7334 147.479 69.968C147.602 70.1974 147.663 70.4747 147.663 70.8C147.663 71.1734 147.597 71.52 147.463 71.84C147.33 72.1547 147.133 72.4294 146.871 72.664C146.61 72.8934 146.29 73.0747 145.911 73.208C145.533 73.3414 145.095 73.408 144.599 73.408C144.034 73.408 143.522 73.3174 143.063 73.136C142.605 72.9494 142.215 72.712 141.895 72.424L142.231 71.88C142.274 71.8107 142.325 71.7574 142.383 71.72C142.442 71.6827 142.517 71.664 142.607 71.664C142.703 71.664 142.805 71.7014 142.911 71.776C143.018 71.8507 143.146 71.9334 143.295 72.024C143.45 72.1147 143.637 72.1974 143.855 72.272C144.074 72.3467 144.346 72.384 144.671 72.384C144.949 72.384 145.191 72.3494 145.399 72.28C145.607 72.2054 145.781 72.1067 145.919 71.984C146.058 71.8614 146.159 71.72 146.223 71.56C146.293 71.4 146.327 71.2294 146.327 71.048C146.327 70.824 146.266 70.64 146.143 70.496C146.026 70.3467 145.869 70.2214 145.671 70.12C145.474 70.0134 145.247 69.9227 144.991 69.848C144.741 69.768 144.482 69.6854 144.215 69.6C143.954 69.5147 143.695 69.4187 143.439 69.312C143.189 69.2 142.965 69.0614 142.767 68.896C142.57 68.7307 142.41 68.528 142.287 68.288C142.17 68.0427 142.111 67.7467 142.111 67.4C142.111 67.0907 142.175 66.7947 142.303 66.512C142.431 66.224 142.618 65.9734 142.863 65.76C143.109 65.5414 143.41 65.368 143.767 65.24C144.125 65.112 144.533 65.048 144.991 65.048C145.525 65.048 146.002 65.1334 146.423 65.304C146.85 65.4694 147.218 65.6987 147.527 65.992L147.207 66.512ZM157.279 72.184C157.631 72.152 157.94 72.0774 158.207 71.96C158.474 71.8374 158.698 71.6827 158.879 71.496C159.066 71.3094 159.204 71.0934 159.295 70.848C159.391 70.5974 159.439 70.3227 159.439 70.024C159.439 69.7574 159.388 69.528 159.287 69.336C159.191 69.144 159.058 68.9787 158.887 68.84C158.716 68.696 158.516 68.576 158.287 68.48C158.058 68.3787 157.812 68.2854 157.551 68.2L157.279 72.184ZM157.015 62.936C156.668 62.968 156.367 63.0374 156.111 63.144C155.86 63.2507 155.652 63.384 155.487 63.544C155.322 63.704 155.199 63.8854 155.119 64.088C155.039 64.2854 154.999 64.4934 154.999 64.712C154.999 64.968 155.044 65.192 155.135 65.384C155.226 65.5707 155.351 65.736 155.511 65.88C155.671 66.024 155.858 66.1494 156.071 66.256C156.284 66.3627 156.516 66.4587 156.767 66.544L157.015 62.936ZM157.647 66.824C158.031 66.9467 158.41 67.0774 158.783 67.216C159.156 67.3547 159.492 67.5334 159.791 67.752C160.09 67.9707 160.33 68.2454 160.511 68.576C160.698 68.9014 160.791 69.3094 160.791 69.8C160.791 70.28 160.711 70.7307 160.551 71.152C160.391 71.5734 160.156 71.944 159.847 72.264C159.543 72.584 159.167 72.8454 158.719 73.048C158.276 73.2454 157.77 73.3627 157.199 73.4L157.103 74.8C157.098 74.9014 157.058 74.9894 156.983 75.064C156.908 75.144 156.815 75.184 156.703 75.184H156.175L156.295 73.384C155.65 73.32 155.06 73.16 154.527 72.904C153.999 72.6427 153.543 72.312 153.159 71.912L153.591 71.256C153.634 71.1974 153.687 71.1494 153.751 71.112C153.815 71.0747 153.884 71.056 153.959 71.056C154.06 71.056 154.175 71.1067 154.303 71.208C154.431 71.3094 154.588 71.424 154.775 71.552C154.967 71.68 155.191 71.8054 155.447 71.928C155.708 72.0507 156.02 72.1334 156.383 72.176L156.671 67.928C156.298 67.816 155.93 67.6907 155.567 67.552C155.21 67.4134 154.887 67.2294 154.599 67C154.316 66.7707 154.087 66.4854 153.911 66.144C153.74 65.8027 153.655 65.3734 153.655 64.856C153.655 64.4667 153.73 64.088 153.879 63.72C154.034 63.3467 154.258 63.016 154.551 62.728C154.844 62.44 155.204 62.2054 155.631 62.024C156.058 61.8374 156.546 61.7334 157.095 61.712L157.175 60.56C157.18 60.4587 157.218 60.368 157.287 60.288C157.362 60.208 157.458 60.168 157.575 60.168H158.103L157.999 61.744C158.554 61.8134 159.034 61.9574 159.439 62.176C159.85 62.3947 160.212 62.6614 160.527 62.976L160.183 63.504C160.076 63.664 159.954 63.744 159.815 63.744C159.74 63.744 159.647 63.712 159.535 63.648C159.428 63.5787 159.298 63.4987 159.143 63.408C158.994 63.3174 158.815 63.2294 158.607 63.144C158.404 63.0587 158.172 62.9947 157.911 62.952L157.647 66.824ZM164.552 66.144C165.15 66.016 165.699 65.952 166.2 65.952C166.798 65.952 167.326 66.04 167.784 66.216C168.243 66.392 168.624 66.6347 168.928 66.944C169.238 67.2534 169.47 67.6187 169.624 68.04C169.784 68.4614 169.864 68.92 169.864 69.416C169.864 70.024 169.758 70.5734 169.544 71.064C169.336 71.5547 169.046 71.976 168.672 72.328C168.304 72.6747 167.87 72.9414 167.368 73.128C166.867 73.3147 166.326 73.408 165.744 73.408C165.408 73.408 165.086 73.3734 164.776 73.304C164.467 73.24 164.176 73.152 163.904 73.04C163.638 72.928 163.39 72.8 163.16 72.656C162.931 72.512 162.728 72.36 162.552 72.2L162.992 71.592C163.088 71.4534 163.214 71.384 163.368 71.384C163.475 71.384 163.595 71.4267 163.728 71.512C163.862 71.592 164.024 71.6827 164.216 71.784C164.408 71.8854 164.632 71.9787 164.888 72.064C165.15 72.144 165.459 72.184 165.816 72.184C166.216 72.184 166.576 72.12 166.896 71.992C167.216 71.864 167.491 71.6827 167.72 71.448C167.95 71.208 168.126 70.9227 168.248 70.592C168.371 70.2614 168.432 69.8907 168.432 69.48C168.432 69.1227 168.379 68.8 168.272 68.512C168.171 68.224 168.014 67.9787 167.8 67.776C167.592 67.5734 167.331 67.416 167.016 67.304C166.702 67.192 166.334 67.136 165.912 67.136C165.624 67.136 165.323 67.16 165.008 67.208C164.699 67.256 164.382 67.3334 164.056 67.44L163.16 67.176L164.08 61.816H169.512V62.44C169.512 62.6427 169.448 62.8107 169.32 62.944C169.198 63.072 168.984 63.136 168.68 63.136H165.08L164.552 66.144ZM179.738 67.552C179.738 68.5547 179.628 69.424 179.41 70.16C179.196 70.8907 178.903 71.496 178.53 71.976C178.156 72.456 177.714 72.8134 177.202 73.048C176.695 73.2827 176.151 73.4 175.57 73.4C174.983 73.4 174.436 73.2827 173.93 73.048C173.428 72.8134 172.991 72.456 172.618 71.976C172.244 71.496 171.951 70.8907 171.738 70.16C171.524 69.424 171.418 68.5547 171.418 67.552C171.418 66.5494 171.524 65.68 171.738 64.944C171.951 64.208 172.244 63.6 172.618 63.12C172.991 62.6347 173.428 62.2747 173.93 62.04C174.436 61.8054 174.983 61.688 175.57 61.688C176.151 61.688 176.695 61.8054 177.202 62.04C177.714 62.2747 178.156 62.6347 178.53 63.12C178.903 63.6 179.196 64.208 179.41 64.944C179.628 65.68 179.738 66.5494 179.738 67.552ZM178.258 67.552C178.258 66.6774 178.183 65.944 178.034 65.352C177.89 64.7547 177.692 64.2747 177.442 63.912C177.196 63.5494 176.911 63.2907 176.586 63.136C176.26 62.976 175.922 62.896 175.57 62.896C175.218 62.896 174.879 62.976 174.554 63.136C174.228 63.2907 173.943 63.5494 173.698 63.912C173.452 64.2747 173.255 64.7547 173.106 65.352C172.962 65.944 172.89 66.6774 172.89 67.552C172.89 68.4267 172.962 69.16 173.106 69.752C173.255 70.344 173.452 70.8214 173.698 71.184C173.943 71.5467 174.228 71.808 174.554 71.968C174.879 72.1227 175.218 72.2 175.57 72.2C175.922 72.2 176.26 72.1227 176.586 71.968C176.911 71.808 177.196 71.5467 177.442 71.184C177.692 70.8214 177.89 70.344 178.034 69.752C178.183 69.16 178.258 68.4267 178.258 67.552ZM188.857 65.048C189.449 65.048 189.982 65.1467 190.457 65.344C190.931 65.5414 191.337 65.8214 191.673 66.184C192.009 66.5467 192.265 66.9867 192.441 67.504C192.622 68.016 192.713 68.5894 192.713 69.224C192.713 69.864 192.622 70.44 192.441 70.952C192.265 71.464 192.009 71.9014 191.673 72.264C191.337 72.6267 190.931 72.9067 190.457 73.104C189.982 73.296 189.449 73.392 188.857 73.392C188.259 73.392 187.721 73.296 187.241 73.104C186.766 72.9067 186.361 72.6267 186.025 72.264C185.689 71.9014 185.43 71.464 185.249 70.952C185.073 70.44 184.985 69.864 184.985 69.224C184.985 68.5894 185.073 68.016 185.249 67.504C185.43 66.9867 185.689 66.5467 186.025 66.184C186.361 65.8214 186.766 65.5414 187.241 65.344C187.721 65.1467 188.259 65.048 188.857 65.048ZM188.857 72.28C189.657 72.28 190.254 72.0134 190.649 71.48C191.043 70.9414 191.241 70.192 191.241 69.232C191.241 68.2667 191.043 67.5147 190.649 66.976C190.254 66.4374 189.657 66.168 188.857 66.168C188.451 66.168 188.097 66.2374 187.793 66.376C187.494 66.5147 187.243 66.7147 187.041 66.976C186.843 67.2374 186.694 67.56 186.593 67.944C186.497 68.3227 186.449 68.752 186.449 69.232C186.449 70.192 186.646 70.9414 187.041 71.48C187.441 72.0134 188.046 72.28 188.857 72.28ZM195.871 66.8C196.127 66.2454 196.441 65.8134 196.815 65.504C197.188 65.1894 197.644 65.032 198.183 65.032C198.353 65.032 198.516 65.0507 198.671 65.088C198.831 65.1254 198.972 65.184 199.095 65.264L198.991 66.328C198.959 66.4614 198.879 66.528 198.751 66.528C198.676 66.528 198.567 66.512 198.423 66.48C198.279 66.448 198.116 66.432 197.935 66.432C197.679 66.432 197.449 66.4694 197.247 66.544C197.049 66.6187 196.871 66.7307 196.711 66.88C196.556 67.024 196.415 67.2054 196.287 67.424C196.164 67.6374 196.052 67.8827 195.951 68.16V73.28H194.519V65.176H195.335C195.489 65.176 195.596 65.2054 195.655 65.264C195.713 65.3227 195.753 65.424 195.775 65.568L195.871 66.8ZM204.097 73.28V65.176H204.953C205.155 65.176 205.281 65.2747 205.329 65.472L205.433 66.304C205.731 65.936 206.067 65.6347 206.441 65.4C206.814 65.1654 207.246 65.048 207.737 65.048C208.281 65.048 208.721 65.2 209.057 65.504C209.398 65.808 209.643 66.2187 209.793 66.736C209.91 66.4427 210.059 66.1894 210.241 65.976C210.427 65.7627 210.635 65.5867 210.865 65.448C211.094 65.3094 211.337 65.208 211.593 65.144C211.854 65.08 212.118 65.048 212.385 65.048C212.811 65.048 213.19 65.1174 213.521 65.256C213.857 65.3894 214.139 65.5867 214.369 65.848C214.603 66.1094 214.782 66.432 214.905 66.816C215.027 67.1947 215.089 67.6294 215.089 68.12V73.28H213.657V68.12C213.657 67.4854 213.518 67.0054 213.241 66.68C212.963 66.3494 212.563 66.184 212.041 66.184C211.806 66.184 211.582 66.2267 211.369 66.312C211.161 66.392 210.977 66.512 210.817 66.672C210.657 66.832 210.529 67.0347 210.433 67.28C210.342 67.52 210.297 67.8 210.297 68.12V73.28H208.865V68.12C208.865 67.4694 208.734 66.984 208.473 66.664C208.211 66.344 207.83 66.184 207.329 66.184C206.977 66.184 206.651 66.28 206.353 66.472C206.054 66.6587 205.779 66.9147 205.529 67.24V73.28H204.097ZM220.669 65.048C221.261 65.048 221.794 65.1467 222.269 65.344C222.744 65.5414 223.149 65.8214 223.485 66.184C223.821 66.5467 224.077 66.9867 224.253 67.504C224.434 68.016 224.525 68.5894 224.525 69.224C224.525 69.864 224.434 70.44 224.253 70.952C224.077 71.464 223.821 71.9014 223.485 72.264C223.149 72.6267 222.744 72.9067 222.269 73.104C221.794 73.296 221.261 73.392 220.669 73.392C220.072 73.392 219.533 73.296 219.053 73.104C218.578 72.9067 218.173 72.6267 217.837 72.264C217.501 71.9014 217.242 71.464 217.061 70.952C216.885 70.44 216.797 69.864 216.797 69.224C216.797 68.5894 216.885 68.016 217.061 67.504C217.242 66.9867 217.501 66.5467 217.837 66.184C218.173 65.8214 218.578 65.5414 219.053 65.344C219.533 65.1467 220.072 65.048 220.669 65.048ZM220.669 72.28C221.469 72.28 222.066 72.0134 222.461 71.48C222.856 70.9414 223.053 70.192 223.053 69.232C223.053 68.2667 222.856 67.5147 222.461 66.976C222.066 66.4374 221.469 66.168 220.669 66.168C220.264 66.168 219.909 66.2374 219.605 66.376C219.306 66.5147 219.056 66.7147 218.853 66.976C218.656 67.2374 218.506 67.56 218.405 67.944C218.309 68.3227 218.261 68.752 218.261 69.232C218.261 70.192 218.458 70.9414 218.853 71.48C219.253 72.0134 219.858 72.28 220.669 72.28ZM227.683 66.8C227.939 66.2454 228.254 65.8134 228.627 65.504C229 65.1894 229.456 65.032 229.995 65.032C230.166 65.032 230.328 65.0507 230.483 65.088C230.643 65.1254 230.784 65.184 230.907 65.264L230.803 66.328C230.771 66.4614 230.691 66.528 230.563 66.528C230.488 66.528 230.379 66.512 230.235 66.48C230.091 66.448 229.928 66.432 229.747 66.432C229.491 66.432 229.262 66.4694 229.059 66.544C228.862 66.6187 228.683 66.7307 228.523 66.88C228.368 67.024 228.227 67.2054 228.099 67.424C227.976 67.6374 227.864 67.8827 227.763 68.16V73.28H226.331V65.176H227.147C227.302 65.176 227.408 65.2054 227.467 65.264C227.526 65.3227 227.566 65.424 227.587 65.568L227.683 66.8ZM237.255 68.344C237.255 68.0134 237.207 67.712 237.111 67.44C237.02 67.1627 236.884 66.9254 236.703 66.728C236.527 66.5254 236.311 66.3707 236.055 66.264C235.799 66.152 235.508 66.096 235.183 66.096C234.5 66.096 233.959 66.296 233.559 66.696C233.164 67.0907 232.919 67.64 232.823 68.344H237.255ZM238.407 72.144C238.231 72.3574 238.02 72.544 237.775 72.704C237.53 72.8587 237.266 72.9867 236.983 73.088C236.706 73.1894 236.418 73.264 236.119 73.312C235.82 73.3654 235.524 73.392 235.231 73.392C234.671 73.392 234.154 73.2987 233.679 73.112C233.21 72.92 232.802 72.6427 232.455 72.28C232.114 71.912 231.847 71.4587 231.655 70.92C231.463 70.3814 231.367 69.7627 231.367 69.064C231.367 68.4987 231.452 67.9707 231.623 67.48C231.799 66.9894 232.05 66.5654 232.375 66.208C232.7 65.8454 233.098 65.5627 233.567 65.36C234.036 65.152 234.564 65.048 235.151 65.048C235.636 65.048 236.084 65.1307 236.495 65.296C236.911 65.456 237.268 65.6907 237.567 66C237.871 66.304 238.108 66.6827 238.279 67.136C238.45 67.584 238.535 68.096 238.535 68.672C238.535 68.896 238.511 69.0454 238.463 69.12C238.415 69.1947 238.324 69.232 238.191 69.232H232.775C232.791 69.744 232.86 70.1894 232.983 70.568C233.111 70.9467 233.287 71.264 233.511 71.52C233.735 71.7707 234.002 71.96 234.311 72.088C234.62 72.2107 234.967 72.272 235.351 72.272C235.708 72.272 236.015 72.232 236.271 72.152C236.532 72.0667 236.756 71.976 236.943 71.88C237.13 71.784 237.284 71.696 237.407 71.616C237.535 71.5307 237.644 71.488 237.735 71.488C237.852 71.488 237.943 71.5334 238.007 71.624L238.407 72.144Z" fill="#ADADAD"/>
<defs>
<clipPath id="clip0_8336_969">
<rect width="60" height="60" fill="white" transform="translate(20 20.48)"/>
</clipPath>
<clipPath id="clip1_8336_969">
<rect width="60" height="60" fill="white" transform="translate(20 20.48)"/>
</clipPath>
</defs>
</svg>
