<svg width="18" height="17" viewBox="0 0 18 17" fill="none" xmlns="http://www.w3.org/2000/svg">
<path d="M12.6875 0.397522C13.5625 0.397522 14.3675 0.625022 15.1025 1.08002C15.8375 1.53502 16.415 2.15336 16.835 2.93502C17.2783 3.75169 17.5 4.65586 17.5 5.64752C17.5 7.00086 17.185 8.30169 16.555 9.55002C16.0183 10.6117 15.2542 11.6325 14.2625 12.6125C13.4925 13.3825 12.5767 14.135 11.515 14.87C10.92 15.2784 10.1383 15.7684 9.17 16.34L8.75 16.585L8.33 16.34C7.36167 15.7684 6.58 15.2784 5.985 14.87C4.92333 14.135 4.0075 13.3825 3.2375 12.6125C2.24583 11.6325 1.48167 10.6117 0.945 9.55002C0.315 8.30169 0 7.00086 0 5.64752C0 4.65586 0.221667 3.75169 0.665 2.93502C1.085 2.15336 1.6625 1.53502 2.3975 1.08002C3.1325 0.625022 3.9375 0.397522 4.8125 0.397522C5.57083 0.409189 6.32333 0.595856 7.07 0.957521C7.7 1.26086 8.26 1.65752 8.75 2.14752C9.24 1.65752 9.8 1.26086 10.43 0.957521C11.1767 0.584188 11.9292 0.397522 12.6875 0.397522ZM9.5725 14.065C10.3658 13.5634 11.0717 13.0675 11.69 12.5775C13.02 11.5159 14.0233 10.425 14.7 9.30502C15.4 8.13836 15.75 6.92502 15.75 5.66502C15.75 4.98836 15.6158 4.38169 15.3475 3.84502C15.0792 3.30836 14.7117 2.89419 14.245 2.60252C13.7783 2.31085 13.2592 2.15919 12.6875 2.14752C12.2208 2.14752 11.7483 2.26127 11.27 2.48877C10.7917 2.71627 10.3658 3.01669 9.9925 3.39002L8.75 4.63252L7.5075 3.39002C7.13417 3.01669 6.70833 2.71627 6.23 2.48877C5.75167 2.26127 5.27917 2.14752 4.8125 2.14752C4.2525 2.14752 3.73917 2.29919 3.2725 2.60252C2.80583 2.90586 2.43542 3.32294 2.16125 3.85377C1.88708 4.38461 1.75 4.98836 1.75 5.66502C1.75 6.92502 2.1 8.13836 2.8 9.30502C3.47667 10.425 4.48 11.5159 5.81 12.5775C6.42833 13.0675 7.13417 13.5634 7.9275 14.065C8.1725 14.2167 8.44667 14.38 8.75 14.555C9.05333 14.38 9.3275 14.2167 9.5725 14.065Z" fill="black"/>
</svg>
