<svg width="18" height="17" viewBox="0 0 18 17" fill="none" xmlns="http://www.w3.org/2000/svg">
<path d="M12.6875 0.63736C13.5625 0.63736 14.3675 0.86486 15.1025 1.31986C15.8375 1.77486 16.415 2.39319 16.835 3.17486C17.2783 3.99153 17.5 4.89569 17.5 5.88736C17.5 7.24069 17.185 8.54153 16.555 9.78986C16.0183 10.8515 15.2542 11.8724 14.2625 12.8524C13.4925 13.6224 12.5767 14.3749 11.515 15.1099C10.92 15.5182 10.1383 16.0082 9.17 16.5799L8.75 16.8249L8.33 16.5799C7.36167 16.0082 6.58 15.5182 5.985 15.1099C4.92333 14.3749 4.0075 13.6224 3.2375 12.8524C2.24583 11.8724 1.48167 10.8515 0.945 9.78986C0.315 8.54153 0 7.24069 0 5.88736C0 4.89569 0.221667 3.99153 0.665 3.17486C1.085 2.39319 1.6625 1.77486 2.3975 1.31986C3.1325 0.86486 3.9375 0.63736 4.8125 0.63736C5.57083 0.649027 6.32333 0.835693 7.07 1.19736C7.7 1.50069 8.26 1.89736 8.75 2.38736C9.24 1.89736 9.8 1.50069 10.43 1.19736C11.1767 0.824026 11.9292 0.63736 12.6875 0.63736ZM9.5725 14.3049C10.3658 13.8032 11.0717 13.3074 11.69 12.8174C13.02 11.7557 14.0233 10.6649 14.7 9.54486C15.4 8.37819 15.75 7.16486 15.75 5.90486C15.75 5.22819 15.6158 4.62153 15.3475 4.08486C15.0792 3.54819 14.7117 3.13403 14.245 2.84236C13.7783 2.55069 13.2592 2.39903 12.6875 2.38736C12.2208 2.38736 11.7483 2.50111 11.27 2.72861C10.7917 2.95611 10.3658 3.25653 9.9925 3.62986L8.75 4.87236L7.5075 3.62986C7.13417 3.25653 6.70833 2.95611 6.23 2.72861C5.75167 2.50111 5.27917 2.38736 4.8125 2.38736C4.2525 2.38736 3.73917 2.53903 3.2725 2.84236C2.80583 3.14569 2.43542 3.56278 2.16125 4.09361C1.88708 4.62444 1.75 5.22819 1.75 5.90486C1.75 7.16486 2.1 8.37819 2.8 9.54486C3.47667 10.6649 4.48 11.7557 5.81 12.8174C6.42833 13.3074 7.13417 13.8032 7.9275 14.3049C8.1725 14.4565 8.44667 14.6199 8.75 14.7949C9.05333 14.6199 9.3275 14.4565 9.5725 14.3049Z" fill="#FF0000"/>
</svg>
